{
.appVersion = "3343";
.storedFileType = com.schriftgestaltung.glyphs;
.formatVersion = 3;
.storedFormatVersion = 1;
DisplayStrings = (
"Alan/space Play
Mashallah
Rosa/space Marina
HElmanKJGFZ
QUARTZ
KALIEFRIEND",
"Ranpifert
Ranpifert/space/space bpdqecg/space",
"Anna/space Keroulle
Laure/space Boutmy
Tiphaine/space Gillet
Raphael/space Ronot",
hwxkznnnnnznnn,
"AMNESIE/space WAVEFORM/space PHARMACEUTICAL
biologie/space kinésithér/a.ss01 pie

AMNSI/space WAVFOM/space PHAMACUTICAL
iooie/space inésithérapie

ANSI/space AVFO
PHAACUTICAL
iooie/space inésithérapie
",
"Aa/space a/space A/a.ss01/space A/space Bb/space B/space Cc/space Dd/space Ee/space e/space Ff/space Gg/space g/space/space/space Hh/space Ii/space Jj/space Kk/space K/space K/space Ll/space L/space Mm/space m/space Nn/space Nn/space Oo/space Pp/space Qq/space q/space Rr/space r/space r/space Ss/space Tt/space Uu/space U/space Vv/space Ww/space w/space Xx/space Yy/space Zz/space 12452679",
"Aa/space Bbpnmhu/space Cca/space Dd/space Ee/space Ff/space CGHog/space Hh/space Ii/space Jj/space Kk/space Ll/space HMm/space Nn/space Oo/space PRHBp/space Qq/space Rr/space Ss/space Tt/space Uu/space Vv/space Ww/space Xx/space Yy/space Zz/space",
"a(",
"$¢",
"l/lcaron",
"/strokeshortcomb d/dcroat hh/hbar",
"/aogonek",
"a/f_f ictrmer
affirmer
mmmmml",
"Hg&H@"
);
axes = (
{
name = Weight;
tag = wght;
}
);
date = "2021-08-11 14:50:01 +0000";
familyName = "Antique Extended";
featurePrefixes = (
{
automatic = 1;
code = "languagesystem DFLT dflt;

languagesystem latn dflt;
languagesystem latn AZE;
languagesystem latn CRT;
languagesystem latn KAZ;
languagesystem latn TAT;
languagesystem latn TRK;
languagesystem latn ROM;
languagesystem latn MOL;
languagesystem latn CAT;
languagesystem latn NLD;
";
name = Languagesystems;
}
);
features = (
{
automatic = 1;
code = "feature locl;
feature ordn;
feature case;
feature ss01;
";
tag = aalt;
},
{
automatic = 1;
code = "lookup ccmp_DFLT_1 {

glyphs = (
{
glyphname = A;
lastChange = "2025-06-25 14:53:55 +0000";
layers = (
{
anchors = (
{
name = bottom;
pos = (327,0);
},
{
name = ogonek;
pos = (576,0);
},
{
name = top;
pos = (327,700);
}
);
layerId = "D8D2F0D2-8948-448B-99CD-378CDFD0E0AE";
shapes = (
{
closed = 1;
nodes = (
(85,0,l),
(345,679,l),
(311,679,l),
(570,0,l),
(636,0,l),
(378,666,ls),
(366,698,o),
(350,712,o),
(328,712,cs),
(306,712,o),
(290,698,o),
(278,666,cs),
(18,0,l)
);
},
{
closed = 1;
nodes = (
(499,211,l),
(499,267,l),
(156,267,l),
(156,211,l)
);
}
);
width = 654;
},
{
anchors = (
{
name = bottom;
pos = (398,0);
},
{
name = ogonek;
pos = (726,0);
},
{
name = top;
pos = (398,700);
}
);
layerId = "83B83716-1CD1-47ED-B715-8773FED73F88";
shapes = (
{
closed = 1;
nodes = (
(263,0,l),
(413,486,l),
(377,486,l),
(530,0,l),
(786,0,l),
(579,571,ls),
(546,661,o),
(487,712,o),
(397,712,cs),
(295,712,o),
(243,646,o),
(216,571,cs),
(10,0,l)
);
},
{
closed = 1;
nodes = (
(604,84,l),
(604,294,l),
(202,294,l),
(202,84,l)
);
}
);
width = 796;
},
{
anchors = (
{
name = bottom;
pos = (398,0);
},
{
name = ogonek;
pos = (716,10);
},
{
name = top;
pos = (398,700);
}
);
associatedMasterId = "83B83716-1CD1-47ED-B715-8773FED73F88";
layerId = "21A7AABA-127C-45BF-8340-AA42C542908E";
name = "18 juin 25 à 16:22";
shapes = (
{
closed = 1;
nodes = (
(268,700,l),
(10,0,l),
(263,0,l),
(479,700,l)
);
},
{
closed = 1;
nodes = (
(530,0,l),
(786,0,l),
(528,700,l),
(314,700,l)
);
},
{
closed = 1;
nodes = (
(202,84,l),
(604,84,l),
(604,294,l),
(202,294,l)
);
}
);
width = 796;
},
{
anchors = (
{
name = bottom;
pos = (327,0);
},
{
name = ogonek;
pos = (589,10);
},
{
name = top;
pos = (327,740);
}
);
associatedMasterId = "D8D2F0D2-8948-448B-99CD-378CDFD0E0AE";
layerId = "EBC9EF9B-1593-4D84-9CC0-46CE86775B45";
name = "18 juin 25 à 19:21";
shapes = (
{
closed = 1;
nodes = (
(295,700,l),
(28,0,l),
(95,0,l),
(356,700,l)
);
},
{
closed = 1;
nodes = (
(560,0,l),
(626,0,l),
(361,700,l),
(300,700,l)
);
},
{
closed = 1;
nodes = (
(156,231,l),
(499,231,l),
(499,287,l),
(156,287,l)
);
}
);
width = 654;
}
);
metricRight = "=|";
unicode = 65;
},
{
glyphname = AE;
lastChange = "2025-06-25 11:25:25 +0000";
layers = (
{
.lastUpdate = 773061708.194;
anchors = (
{
name = bottom;
pos = (63,0);
},
{
name = ogonek;
pos = (325,10);
},
{
name = top;
pos = (63,740);
}
);
layerId = "D8D2F0D2-8948-448B-99CD-378CDFD0E0AE";
shapes = (
{
closed = 1;
nodes = (
(92,0,l),
(521,667,l),
(504,700,l),
(483,700,o),
(468,691,o),
(450,663,cs),
(18,0,l)
);
},
{
closed = 1;
nodes = (
(535,211,l),
(535,267,l),
(192,267,l),
(192,211,l)
);
},
{
pos = (390,0);
ref = E;
}
);
width = 1030;
},
{
.lastUpdate = 773073464.948;
anchors = (
{
name = bottom;
pos = (32,0);
},
{
name = ogonek;
pos = (350,10);
},
{
name = top;
pos = (32,700);
}
);
layerId = "83B83716-1CD1-47ED-B715-8773FED73F88";
shapes = (
{
closed = 1;
nodes = (
(268,0,l),
(486,546,l),
(460,700,l),
(373,700,o),
(301,666,o),
(260,571,cs),
(10,0,l)
);
},
{
closed = 1;
nodes = (
(538,94,l),
(538,304,l),
(176,304,l),
(176,94,l)
);
},
{
pos = (430,0);
ref = E;
}
);
width = 1000;
}
);
metricLeft = "=A";
metricRight = "=E";
unicode = 198;
},
{
glyphname = B;
lastChange = "2025-06-24 11:13:38 +0000";
layers = (
{
layerId = "D8D2F0D2-8948-448B-99CD-378CDFD0E0AE";
shapes = (
{
closed = 1;
nodes = (
(402,0,ls),
(577,0,o),
(664,73,o),
(664,197,cs),
(664,320,o),
(580,367,o),
(430,367,cs),
(173,367,l),
(173,324,l),
(402,324,ls),
(536,324,o),
(596,287,o),
(596,196,cs),
(596,105,o),
(536,58,o),
(402,58,cs),
(173,58,l),
(173,0,l)
);
},
{
closed = 1;
nodes = (
(177,0,l),
(177,700,l),
(114,700,l),
(114,0,l)
);
},
{
closed = 1;
nodes = (
(402,341,ls),
(544,341,o),
(634,395,o),
(634,519,cs),
(634,641,o),
(547,700,o),
(373,700,cs),
(144,700,l),
(144,642,l),
(373,642,ls),
(507,642,o),
(568,608,o),
(568,518,cs),
(568,427,o),
(507,382,o),
(373,382,cs),
(144,382,l),
(144,341,l)
);
}
);
width = 729;
},
{
layerId = "83B83716-1CD1-47ED-B715-8773FED73F88";
shapes = (
{
closed = 1;
nodes = (
(366,0,ls),
(550,0,o),
(674,51,o),
(674,200,cs),
(674,362,o),
(506,377,o),
(364,377,cs),
(228,377,l),
(228,255,l),
(363,255,ls),
(403,255,o),
(426,249,o),
(426,222,cs),
(426,194,o),
(400,190,o),
(363,190,cs),
(228,190,l),
(228,0,l)
);
},
{
closed = 1;
nodes = (
(266,0,l),
(266,700,l),
(30,700,l),
(30,0,l)
);
},
{
closed = 1;
nodes = (
(340,325,ls),
(474,325,o),
(648,325,o),
(648,502,cs),
(648,646,o),
(534,700,o),
(342,700,cs),
(168,700,l),
(168,510,l),
(346,510,ls),
(385,510,o),
(408,503,o),
(408,477,cs),
(408,450,o),
(382,445,o),
(346,445,cs),
(168,445,l),
(168,325,l)
);
}
);
width = 692;
}
);
metricLeft = "=H";
unicode = 66;
},
{
glyphname = C;
lastChange = "2025-06-25 12:15:27 +0000";
layers = (
{
anchors = (
{
name = bottom;
pos = (413,0);
},
{
name = top;
pos = (393,700);
}
);
layerId = "D8D2F0D2-8948-448B-99CD-378CDFD0E0AE";
shapes = (
{
closed = 1;
nodes = (
(490,-12,o),
(569,14,o),
(616,45,c),
(616,103,l),
(552,66,o),
(477,44,o),
(401,44,cs),
(217,44,o),
(124,170,o),
(124,346,cs),
(124,525,o),
(218,656,o),
(393,656,cs),
(548,656,o),
(567,557,o),
(610,557,cs),
(625,557,o),
(635,569,o),
(635,588,cs),
(635,654,o),
(524,712,o),
(395,712,cs),
(182,712,o),
(56,557,o),
(56,340,cs),
(56,128,o),
(177,-12,o),
(394,-12,cs)
);
}
);
width = 668;
},
{
anchors = (
{
name = bottom;
pos = (332,0);
},
{
name = top;
pos = (332,700);
}
);
layerId = "83B83716-1CD1-47ED-B715-8773FED73F88";
shapes = (
{
closed = 1;
nodes = (
(474,-12,o),
(546,13,o),
(608,44,c),
(608,240,l),
(537,216,o),
(476,202,o),
(419,202,cs),
(312,202,o),
(252,252,o),
(252,357,cs),
(252,437,o),
(287,498,o),
(356,498,cs),
(430,498,o),
(444,427,o),
(534,427,cs),
(591,427,o),
(644,456,o),
(644,534,cs),
(644,659,o),
(503,712,o),
(369,712,cs),
(131,711,o),
(6,545,o),
(6,340,cs),
(6,131,o),
(135,-12,o),
(373,-12,cs)
);
}
);
width = 644;
},
{
associatedMasterId = "83B83716-1CD1-47ED-B715-8773FED73F88";
layerId = "C47B9186-437F-4E61-AFF1-364C4813D818";
name = "6 juin 25 à 17:48";
shapes = (
{
closed = 1;
nodes = (
(489,231,o),
(456,205,o),
(411,205,cs),
(337,205,o),
(302,275,o),
(302,365,cs),
(302,457,o),
(340,535,o),
(412,535,cs),
(460,535,o),
(487,504,o),
(499,464,c),
(724,562,l),
(672,699,o),
(551,750,o),
(418,750,cs),
(186,750,o),
(56,585,o),
(56,360,cs),
(56,131,o),
(190,-10,o),
(412,-10,cs),
(564,-10,o),
(681,55,o),
(736,188,c),
(511,284,l)
);
}
);
width = 770;
}
);
metricLeft = "=O";
unicode = 67;
},
{
glyphname = D;
lastChange = "2025-06-25 12:15:57 +0000";
layers = (
{
anchors = (
{
name = bottom;
pos = (379,0);
},
{
name = center;
pos = (190,350);
},
{
name = top;
pos = (359,700);
}
);
layerId = "D8D2F0D2-8948-448B-99CD-378CDFD0E0AE";
shapes = (
{
closed = 1;
nodes = (
(114,700,l),
(114,0,l),
(178,0,l),
(178,700,l)
);
},
{
closed = 1;
nodes = (
(324,0,ls),
(581,0,o),
(702,143,o),
(702,359,cs),
(702,572,o),
(581,700,o),
(324,700,cs),
(153,700,l),
(153,644,l),
(318,644,ls),
(531,644,o),
(634,548,o),
(634,359,cs),
(634,176,o),
(535,56,o),
(318,56,cs),
(153,56,l),
(153,0,l)
);
}
);
width = 758;
},
{
anchors = (
{
name = bottom;
pos = (354,0);
},
{
name = center;
pos = (177,350);
},
{
name = top;
pos = (344,700);
}
);
layerId = "83B83716-1CD1-47ED-B715-8773FED73F88";
shapes = (
{
closed = 1;
nodes = (
(30,700,l),
(30,0,l),
(266,0,l),
(266,700,l)
);
},
{
closed = 1;
nodes = (
(316,0,ls),
(583,0,o),
(702,154,o),
(702,353,cs),
(702,568,o),
(563,700,o),
(306,700,cs),
(142,700,l),
(142,490,l),
(302,490,ls),
(402,490,o),
(456,456,o),
(456,353,cs),
(456,254,o),
(405,210,o),
(302,210,cs),
(142,210,l),
(142,0,l)
);
}
);
width = 708;
}
);
metricLeft = "=H";
metricRight = "=O";
unicode = 68;
},
{
glyphname = Eth;
lastChange = "2025-06-25 08:51:30 +0000";
layers = (
{
.lastUpdate = 773061708.196;
layerId = "D8D2F0D2-8948-448B-99CD-378CDFD0E0AE";
shapes = (
{
closed = 1;
nodes = (
(10,336,l),
(416,336,l),
(416,388,l),
(10,388,l)
);
},
{
ref = D;
}
);
width = 758;
},
{
.lastUpdate = 773073464.943;
layerId = "83B83716-1CD1-47ED-B715-8773FED73F88";
shapes = (
{
closed = 1;
nodes = (
(0,290,l),
(386,290,l),
(386,410,l),
(0,410,l)
);
},
{
pos = (30,0);
ref = D;
}
);
width = 738;
}
);
metricRight = "=D";
unicode = 208;
},
{
glyphname = E;
lastChange = "2025-06-25 16:21:02 +0000";
layers = (
{
anchors = (
{
name = bottom;
pos = (320,0);
},
{
name = ogonek;
pos = (511,0);
},
{
name = top;
pos = (366,700);
},
{
name = topleft;
pos = (20,700);
}
);
layerId = "D8D2F0D2-8948-448B-99CD-378CDFD0E0AE";
shapes = (
{
closed = 1;
nodes = (
(178,0,l),
(178,700,l),
(114,700,l),
(114,0,l)
);
},
{
closed = 1;
nodes = (
(592,0,l),
(592,56,l),
(144,56,l),
(144,0,l)
);
},
{
closed = 1;
nodes = (
(520,354,ls),
(540,354,o),
(552,364,o),
(552,382,cs),
(552,400,o),
(540,410,o),
(520,410,cs),
(144,410,l),
(144,354,l)
);
},
{
closed = 1;
nodes = (
(592,644,l),
(592,700,l),
(144,700,l),
(144,644,l)
);
}
);
width = 660;
},
{
anchors = (
{
name = bottom;
pos = (285,0);
},
{
name = ogonek;
pos = (509,0);
},
{
name = top;
pos = (295,700);
},
{
name = topleft;
pos = (20,700);
}
);
layerId = "83B83716-1CD1-47ED-B715-8773FED73F88";
shapes = (
{
closed = 1;
nodes = (
(266,0,l),
(266,700,l),
(30,700,l),
(30,0,l)
);
},
{
closed = 1;
nodes = (
(554,0,l),
(554,200,l),
(232,200,l),
(232,0,l)
);
},
{
closed = 1;
nodes = (
(414,255,ls),
(479,255,o),
(514,290,o),
(514,355,cs),
(514,420,o),
(479,455,o),
(414,455,cs),
(132,455,l),
(132,255,l)
);
},
{
closed = 1;
nodes = (
(554,500,l),
(554,700,l),
(232,700,l),
(232,500,l)
);
}
);
width = 570;
},
{
anchors = (
{
name = bottom;
pos = (285,0);
},
{
name = ogonek;
pos = (513,10);
},
{
name = top;
pos = (295,700);
},
{
name = topleft;
pos = (20,700);
}
);
associatedMasterId = "83B83716-1CD1-47ED-B715-8773FED73F88";
layerId = "42106470-92DC-4361-844B-DF32979D6851";
name = "17 juin 25 à 13:36";
shapes = (
{
closed = 1;
nodes = (
(266,0,l),
(266,700,l),
(30,700,l),
(30,0,l)
);
},
{
closed = 1;
nodes = (
(554,0,l),
(554,190,l),
(102,190,l),
(102,0,l)
);
},
{
closed = 1;
nodes = (
(484,260,l),
(484,450,l),
(102,450,l),
(102,260,l)
);
},
{
closed = 1;
nodes = (
(554,510,l),
(554,700,l),
(102,700,l),
(102,510,l)
);
}
);
width = 570;
},
{
anchors = (
{
name = bottom;
pos = (285,0);
},
{
name = ogonek;
pos = (513,10);
},
{
name = top;
pos = (295,700);
},
{
name = topleft;
pos = (20,700);
}
);
associatedMasterId = "83B83716-1CD1-47ED-B715-8773FED73F88";
layerId = "4BAFB2FB-7F61-405C-AAB7-4C5AD8CCC522";
name = "18 juin 25 à 16:54";
shapes = (
{
closed = 1;
nodes = (
(266,0,l),
(266,700,l),
(30,700,l),
(30,0,l)
);
},
{
closed = 1;
nodes = (
(554,0,l),
(554,200,l),
(102,200,l),
(102,0,l)
);
},
{
closed = 1;
nodes = (
(484,255,l),
(484,455,l),
(102,455,l),
(102,255,l)
);
},
{
closed = 1;
nodes = (
(554,500,l),
(554,700,l),
(232,700,l),
(232,500,l)
);
}
);
width = 570;
},
{
anchors = (
{
name = bottom;
pos = (320,0);
},
{
name = ogonek;
pos = (576,10);
},
{
name = top;
pos = (370,700);
},
{
name = topleft;
pos = (20,700);
}
);
associatedMasterId = "D8D2F0D2-8948-448B-99CD-378CDFD0E0AE";
layerId = "D04DD2A2-CEF7-45CA-8D12-D99EE57770D4";
name = "19 juin 25 à 11:16";
shapes = (
{
closed = 1;
nodes = (
(178,0,l),
(178,700,l),
(114,700,l),
(114,0,l)
);
},
{
closed = 1;
nodes = (
(592,0,l),
(592,56,l),
(144,56,l),
(144,0,l)
);
},
{
closed = 1;
nodes = (
(552,354,l),
(552,410,l),
(144,410,l),
(144,354,l)
);
},
{
closed = 1;
nodes = (
(592,644,l),
(592,700,l),
(144,700,l),
(144,644,l)
);
}
);
width = 640;
},
{
anchors = (
{
name = bottom;
pos = (285,0);
},
{
name = ogonek;
pos = (513,10);
},
{
name = top;
pos = (295,700);
},
{
name = topleft;
pos = (20,700);
}
);
associatedMasterId = "83B83716-1CD1-47ED-B715-8773FED73F88";
layerId = "EB583A55-5AEE-492C-BDEA-6B6E6A5B3FA4";
name = "19 juin 25 à 11:17";
shapes = (
{
closed = 1;
nodes = (
(266,0,l),
(266,700,l),
(30,700,l),
(30,0,l)
);
},
{
closed = 1;
nodes = (
(554,0,l),
(554,200,l),
(232,200,l),
(232,0,l)
);
},
{
closed = 1;
nodes = (
(484,255,l),
(484,455,l),
(102,455,l),
(102,255,l)
);
},
{
closed = 1;
nodes = (
(554,500,l),
(554,700,l),
(232,700,l),
(232,500,l)
);
}
);
width = 570;
}
);
metricLeft = "=H";
unicode = 69;
},
{
glyphname = F;
lastChange = "2025-06-25 14:59:23 +0000";
layers = (
{
layerId = "D8D2F0D2-8948-448B-99CD-378CDFD0E0AE";
shapes = (
{
closed = 1;
nodes = (
(178,0,l),
(178,700,l),
(114,700,l),
(114,0,l)
);
},
{
closed = 1;
nodes = (
(520,344,ls),
(540,344,o),
(552,354,o),
(552,372,cs),
(552,390,o),
(540,400,o),
(520,400,cs),
(144,400,l),
(144,344,l)
);
},
{
closed = 1;
nodes = (
(602,644,l),
(602,700,l),
(144,700,l),
(144,644,l)
);
}
);
width = 660;
},
{
layerId = "83B83716-1CD1-47ED-B715-8773FED73F88";
shapes = (
{
closed = 1;
nodes = (
(266,0,l),
(266,700,l),
(30,700,l),
(30,0,l)
);
},
{
closed = 1;
nodes = (
(424,245,ls),
(489,245,o),
(524,280,o),
(524,345,cs),
(524,410,o),
(489,445,o),
(424,445,cs),
(142,445,l),
(142,245,l)
);
},
{
closed = 1;
nodes = (
(554,500,l),
(554,700,l),
(102,700,l),
(102,500,l)
);
}
);
width = 560;
},
{
associatedMasterId = "D8D2F0D2-8948-448B-99CD-378CDFD0E0AE";
layerId = "809553D7-DBEA-40BC-A688-6722828DEE31";
name = "19 juin 25 à 11:17";
shapes = (
{
closed = 1;
nodes = (
(178,0,l),
(178,700,l),
(114,700,l),
(114,0,l)
);
},
{
closed = 1;
nodes = (
(562,344,l),
(562,400,l),
(144,400,l),
(144,344,l)
);
},
{
closed = 1;
nodes = (
(602,644,l),
(602,700,l),
(144,700,l),
(144,644,l)
);
}
);
width = 640;
},
{
associatedMasterId = "83B83716-1CD1-47ED-B715-8773FED73F88";
layerId = "9C79B7C6-324F-4FEA-AC0A-F082AC650537";
name = "19 juin 25 à 11:17";
shapes = (
{
closed = 1;
nodes = (
(266,0,l),
(266,700,l),
(30,700,l),
(30,0,l)
);
},
{
closed = 1;
nodes = (
(484,255,l),
(484,455,l),
(102,455,l),
(102,255,l)
);
},
{
closed = 1;
nodes = (
(554,500,l),
(554,700,l),
(102,700,l),
(102,500,l)
);
}
);
width = 560;
}
);
metricLeft = "=H";
metricRight = "=E-10";
unicode = 70;
},
{
glyphname = G;
lastChange = "2025-07-01 09:31:01 +0000";
layers = (
{
anchors = (
{
name = bottom;
pos = (437,0);
},
{
name = top;
pos = (411,700);
}
);
layerId = "D8D2F0D2-8948-448B-99CD-378CDFD0E0AE";
shapes = (
{
closed = 1;
nodes = (
(519,-12,o),
(615,14,o),
(662,45,c),
(662,99,l),
(588,66,o),
(508,44,o),
(422,44,cs),
(219,44,o),
(124,167,o),
(124,346,cs),
(124,525,o),
(220,656,o),
(402,656,cs),
(561,656,o),
(590,557,o),
(633,557,cs),
(648,557,o),
(658,569,o),
(658,588,cs),
(658,654,o),
(538,712,o),
(404,712,cs),
(184,712,o),
(56,557,o),
(56,340,cs),
(56,128,o),
(179,-12,o),
(416,-12,cs)
);
},
{
closed = 1;
nodes = (
(662,45,l),
(662,371,l),
(388,371,l),
(388,313,l),
(598,313,l),
(598,45,l)
);
}
);
width = 752;
},
{
.lastUpdate = 773055061.893;
anchors = (
{
name = bottom;
pos = (403,13);
},
{
name = top;
pos = (379,700);
}
);
layerId = "83B83716-1CD1-47ED-B715-8773FED73F88";
name = Black;
shapes = (
{
closed = 1;
nodes = (
(508,-12,o),
(612,13,o),
(678,44,c),
(678,234,l),
(587,213,o),
(500,188,o),
(416,188,cs),
(300,188,o),
(252,238,o),
(252,346,cs),
(252,451,o),
(297,512,o),
(373,512,cs),
(458,512,o),
(477,435,o),
(576,435,cs),
(624,435,o),
(680,454,o),
(680,532,cs),
(680,657,o),
(534,713,o),
(385,712,cs),
(141,711,o),
(6,545,o),
(6,340,cs),
(6,131,o),
(145,-12,o),
(400,-12,cs)
);
},
{
closed = 1;
nodes = (
(678,44,l),
(678,412,l),
(368,412,l),
(368,232,l),
(448,232,l),
(448,44,l)
);
}
);
width = 702;
},
{
associatedMasterId = "83B83716-1CD1-47ED-B715-8773FED73F88";
layerId = "6379A4C9-36C6-4A41-8C72-32522E43BC93";
name = "18 juin 25 à 16:23";
shapes = (
{
closed = 1;
nodes = (
(353,406,l),
(353,226,l),
(526,226,l),
(486,289,l),
(483,225,o),
(450,184,o),
(382,184,cs),
(281,184,o),
(252,265,o),
(252,345,cs),
(252,427,o),
(284,516,o),
(376,516,cs),
(464,516,o),
(483,435,o),
(582,435,cs),
(630,435,o),
(686,454,o),
(686,532,cs),
(686,657,o),
(540,712,o),
(395,712,cs),
(136,712,o),
(6,545,o),
(6,340,cs),
(6,131,o),
(137,-12,o),
(387,-12,cs),
(624,-12,o),
(748,115,o),
(725,406,c)
);
}
);
width = 744;
},
{
associatedMasterId = "D8D2F0D2-8948-448B-99CD-378CDFD0E0AE";
layerId = "37A82D80-DF44-4C91-84B0-94400EF9C8CF";
name = "18 juin 25 à 19:23";
shapes = (
{
closed = 1;
nodes = (
(346,378,l),
(346,322,l),
(670,322,l),
(620,358,l),
(632,166,o),
(564,45,o),
(392,45,cs),
(227,45,o),
(131,158,o),
(131,342,cs),
(131,525,o),
(228,656,o),
(398,656,cs),
(549,656,o),
(568,557,o),
(609,557,cs),
(621,557,o),
(629,565,o),
(629,584,cs),
(629,654,o),
(526,712,o),
(401,712,cs),
(192,712,o),
(63,553,o),
(63,336,cs),
(63,124,o),
(187,-11,o),
(391,-11,cs),
(608,-11,o),
(702,147,o),
(683,378,c)
);
}
);
width = 736;
},
{
associatedMasterId = "83B83716-1CD1-47ED-B715-8773FED73F88";
layerId = "23D73E9A-2D0A-4BA4-B40B-52B74C0C9E54";
name = "24 juin 25 à 12:11";
shapes = (
{
closed = 1;
nodes = (
(498,-12,o),
(602,13,o),
(668,44,c),
(668,234,l),
(577,213,o),
(486,188,o),
(409,188,cs),
(300,188,o),
(252,238,o),
(252,346,cs),
(252,451,o),
(297,512,o),
(367,512,cs),
(448,512,o),
(467,435,o),
(566,435,cs),
(614,435,o),
(670,454,o),
(670,532,cs),
(670,657,o),
(524,712,o),
(379,712,cs),
(141,711,o),
(6,545,o),
(6,340,cs),
(6,131,o),
(145,-12,o),
(393,-12,cs)
);
},
{
closed = 1;
nodes = (
(668,44,l),
(668,412,l),
(358,412,l),
(358,232,l),
(438,232,l),
(438,44,l)
);
}
);
width = 698;
}
);
metricLeft = "=O";
metricRight = "=u";
unicode = 71;
},
{
glyphname = H;
lastChange = "2025-06-25 12:14:11 +0000";
layers = (
{
layerId = "D8D2F0D2-8948-448B-99CD-378CDFD0E0AE";
shapes = (
{
closed = 1;
nodes = (
(648,0,l),
(648,700,l),
(584,700,l),
(584,0,l)
);
},
{
closed = 1;
nodes = (
(178,0,l),
(178,700,l),
(114,700,l),
(114,0,l)
);
},
{
closed = 1;
nodes = (
(612,352,l),
(612,408,l),
(144,408,l),
(144,352,l)
);
}
);
width = 762;
},
{
layerId = "83B83716-1CD1-47ED-B715-8773FED73F88";
shapes = (
{
closed = 1;
nodes = (
(698,0,l),
(698,700,l),
(462,700,l),
(462,0,l)
);
},
{
closed = 1;
nodes = (
(266,0,l),
(266,700,l),
(30,700,l),
(30,0,l)
);
},
{
closed = 1;
nodes = (
(584,260,l),
(584,470,l),
(102,470,l),
(102,260,l)
);
}
);
width = 728;
}
);
metricRight = "=|";
unicode = 72;
},
{
glyphname = I;
lastChange = "2025-06-25 14:53:39 +0000";
layers = (
{
anchors = (
{
name = bottom;
pos = (146,0);
},
{
name = ogonek;
pos = (131,0);
},
{
name = top;
pos = (146,700);
},
{
name = topleft;
pos = (20,700);
}
);
layerId = "D8D2F0D2-8948-448B-99CD-378CDFD0E0AE";
shapes = (
{
closed = 1;
nodes = (
(177,0,l),
(177,700,l),
(114,700,l),
(114,0,l)
);
}
);
width = 291;
},
{
anchors = (
{
name = bottom;
pos = (148,0);
},
{
name = ogonek;
pos = (221,0);
},
{
name = top;
pos = (148,700);
},
{
name = topleft;
pos = (20,700);
}
);
layerId = "83B83716-1CD1-47ED-B715-8773FED73F88";
shapes = (
{
closed = 1;
nodes = (
(266,0,l),
(266,700,l),
(30,700,l),
(30,0,l)
);
}
);
width = 296;
}
);
metricLeft = "=H";
metricRight = "=H";
unicode = 73;
},
{
glyphname = J;
lastChange = "2025-06-25 11:23:22 +0000";
layers = (
{
anchors = (
{
name = bottom;
pos = (288,0);
},
{
name = top;
pos = (288,700);
}
);
layerId = "D8D2F0D2-8948-448B-99CD-378CDFD0E0AE";
shapes = (
{
closed = 1;
nodes = (
(312,-12,o),
(382,46,o),
(382,181,cs),
(382,700,l),
(320,700,l),
(320,191,ls),
(320,99,o),
(277,46,o),
(206,46,cs),
(156,46,o),
(128,72,o),
(101,72,cs),
(83,72,o),
(74,60,o),
(74,46,cs),
(74,11,o),
(130,-12,o),
(200,-12,cs)
);
},
{
closed = 1;
nodes = (
(382,642,l),
(382,700,l),
(83,700,l),
(83,642,l)
);
}
);
width = 486;
},
{
anchors = (
{
name = bottom;
pos = (264,0);
},
{
name = top;
pos = (264,700);
}
);
layerId = "83B83716-1CD1-47ED-B715-8773FED73F88";
shapes = (
{
closed = 1;
nodes = (
(318,-12,o),
(458,41,o),
(458,250,cs),
(458,700,l),
(222,700,l),
(222,293,ls),
(222,228,o),
(206,208,o),
(165,208,cs),
(139,208,o),
(121,216,o),
(97,216,cs),
(47,216,o),
(10,182,o),
(10,126,cs),
(10,44,o),
(91,-12,o),
(206,-12,cs)
);
},
{
closed = 1;
nodes = (
(458,490,l),
(458,700,l),
(40,700,l),
(40,490,l)
);
}
);
width = 478;
},
{
associatedMasterId = "D8D2F0D2-8948-448B-99CD-378CDFD0E0AE";
layerId = "7F9D26FB-564C-4C0E-BC72-198310F9C550";
name = "Sep 11 21, 16:01";
shapes = (
{
closed = 1;
nodes = (
(243,22,o),
(308,85,o),
(308,240,cs),
(308,780,l),
(242,780,l),
(242,238,ls),
(242,118,o),
(197,76,o),
(46,51,c),
(51,-10,l)
);
}
);
width = 418;
}
);
metricRight = "=U";
unicode = 74;
},
{
glyphname = K;
lastChange = "2025-07-01 11:38:05 +0000";
layers = (
{
.lastUpdate = 773062685.91;
anchors = (
{
name = bottom;
pos = (363,0);
},
{
name = top;
pos = (333,700);
}
);
layerId = "D8D2F0D2-8948-448B-99CD-378CDFD0E0AE";
shapes = (
{
closed = 1;
nodes = (
(114,700,l),
(114,0,l),
(178,0,l),
(178,700,l)
);
},
{
closed = 1;
nodes = (
(585,643,ls),
(597,655,o),
(604,666,o),
(604,679,cs),
(604,694,o),
(595,706,o),
(578,706,cs),
(562,706,o),
(548,695,o),
(534,682,cs),
(137,297,l),
(170,247,l)
);
},
{
closed = 1;
nodes = (
(644,0,l),
(302,430,l),
(255,386,l),
(562,0,l)
);
}
);
width = 666;
},
{
.lastUpdate = 773062566.443;
anchors = (
{
name = bottom;
pos = (361,0);
},
{
name = top;
pos = (371,700);
}
);
layerId = "83B83716-1CD1-47ED-B715-8773FED73F88";
shapes = (
{
closed = 1;
nodes = (
(30,700,l),
(30,0,l),
(266,0,l),
(266,700,l)
);
},
{
closed = 1;
nodes = (
(642,483,ls),
(683,520,o),
(703,558,o),
(703,601,cs),
(703,667,o),
(657,712,o),
(590,712,cs),
(543,712,o),
(504,690,o),
(465,651,cs),
(101,295,l),
(228,114,l)
);
},
{
closed = 1;
nodes = (
(740,0,l),
(430,508,l),
(263,310,l),
(450,0,l)
);
}
);
width = 742;
},
{
associatedMasterId = "83B83716-1CD1-47ED-B715-8773FED73F88";
layerId = "1CC0AEB0-7023-4328-A38C-A27278C3261A";
name = "13 juin 25 à 12:19";
shapes = (
{
closed = 1;
nodes = (
(30,700,l),
(30,0,l),
(266,0,l),
(266,700,l)
);
},
{
closed = 1;
nodes = (
(734,700,l),
(455,700,l),
(97,253,l),
(214,106,l)
);
},
{
closed = 1;
nodes = (
(726,-16,o),
(751,91,o),
(688,179,cs),
(445,518,l),
(297,310,l),
(449,93,ls),
(492,31,o),
(535,-16,o),
(611,-16,cs)
);
}
);
width = 754;
},
{
associatedMasterId = "D8D2F0D2-8948-448B-99CD-378CDFD0E0AE";
layerId = "5BF3BBCE-0A7F-4DFF-BDCA-5EDE044CF258";
name = "13 juin 25 à 12:20";
shapes = (
{
closed = 1;
nodes = (
(114,700,l),
(114,0,l),
(178,0,l),
(178,700,l)
);
},
{
closed = 1;
nodes = (
(587,700,l),
(507,700,l),
(127,297,l),
(160,249,l)
);
},
{
closed = 1;
nodes = (
(598,-4,o),
(604,30,o),
(583,58,cs),
(296,430,l),
(249,386,l),
(527,26,ls),
(540,9,o),
(554,-4,o),
(571,-4,cs)
);
}
);
width = 636;
},
{
associatedMasterId = "83B83716-1CD1-47ED-B715-8773FED73F88";
layerId = "36449B9C-5D1D-42EA-8D00-7FA30A4BD909";
name = "18 juin 25 à 16:57";
shapes = (
{
closed = 1;
nodes = (
(30,700,l),
(30,0,l),
(266,0,l),
(266,700,l)
);
},
{
closed = 1;
nodes = (
(734,700,l),
(455,700,l),
(97,253,l),
(214,96,l)
);
},
{
closed = 1;
nodes = (
(734,0,l),
(424,518,l),
(267,310,l),
(454,0,l)
);
}
);
width = 744;
}
);
metricLeft = "=H";
unicode = 75;
},
{
glyphname = L;
lastChange = "2025-07-01 11:51:02 +0000";
layers = (
{
anchors = (
{
name = bottom;
pos = (361,0);
},
{
name = caron;
pos = (178,500);
},
{
name = center;
pos = (178,350);
},
{
name = top;
pos = (301,700);
}
);
layerId = "D8D2F0D2-8948-448B-99CD-378CDFD0E0AE";
shapes = (
{
closed = 1;
nodes = (
(178,0,l),
(178,700,l),
(114,700,l),
(114,0,l)
);
},
{
closed = 1;
nodes = (
(592,0,l),
(592,56,l),
(144,56,l),
(144,0,l)
);
}
);
width = 602;
},
{
.lastUpdate = 773063462.492;
anchors = (
{
name = bottom;
pos = (307,0);
},
{
name = caron;
pos = (266,500);
},
{
name = center;
pos = (162,350);
},
{
name = top;
pos = (151,700);
}
);
layerId = "83B83716-1CD1-47ED-B715-8773FED73F88";
shapes = (
{
closed = 1;
nodes = (
(266,0,l),
(266,700,l),
(30,700,l),
(30,0,l)
);
},
{
closed = 1;
nodes = (
(564,0,l),
(564,210,l),
(112,210,l),
(112,0,l)
);
}
);
width = 574;
}
);
metricLeft = "=H";
metricRight = "=+10";
unicode = 76;
},
{
glyphname = M;
lastChange = "2025-06-26 10:28:43 +0000";
layers = (
{
layerId = "D8D2F0D2-8948-448B-99CD-378CDFD0E0AE";
shapes = (
{
closed = 1;
nodes = (
(434,263,l),
(481,263,l),
(211,677,ls),
(197,699,o),
(184,712,o),
(161,712,cs),
(132,712,o),
(114,692,o),
(114,650,cs),
(114,0,l),
(174,0,l),
(174,663,l),
(151,659,l),
(456,191,l),
(761,659,l),
(738,663,l),
(738,0,l),
(798,0,l),
(798,650,ls),
(798,692,o),
(780,712,o),
(754,712,cs),
(732,712,o),
(718,698,o),
(704,677,cs)
);
}
);
width = 912;
},
{
layerId = "83B83716-1CD1-47ED-B715-8773FED73F88";
shapes = (
{
closed = 1;
nodes = (
(418,443,l),
(468,443,l),
(330,609,ls),
(263,689,o),
(225,712,o),
(168,712,cs),
(78,712,o),
(30,656,o),
(30,532,cs),
(30,0,l),
(256,0,l),
(256,401,l),
(205,404,l),
(443,90,l),
(681,404,l),
(630,401,l),
(630,0,l),
(856,0,l),
(856,532,ls),
(856,651,o),
(813,712,o),
(720,712,cs),
(663,712,o),
(621,688,o),
(556,609,cs)
);
}
);
width = 886;
},
{
associatedMasterId = "83B83716-1CD1-47ED-B715-8773FED73F88";
layerId = "57D6BC32-B48D-4ABC-85EE-359DE3BBC944";
name = "26 juin 25 à 12:28";
shapes = (
{
closed = 1;
nodes = (
(418,443,l),
(468,443,l),
(330,609,ls),
(263,689,o),
(225,712,o),
(168,712,cs),
(78,712,o),
(30,656,o),
(30,532,cs),
(30,0,l),
(256,0,l),
(256,401,l),
(205,404,l),
(443,90,l),
(681,404,l),
(630,401,l),
(630,0,l),
(856,0,l),
(856,532,ls),
(856,651,o),
(813,712,o),
(720,712,cs),
(663,712,o),
(621,688,o),
(556,609,cs)
);
},
{
closed = 1;
nodes = (
(528,63,o),
(599,138,o),
(599,230,cs),
(599,321,o),
(528,396,o),
(441,396,cs),
(354,396,o),
(283,321,o),
(283,230,cs),
(283,138,o),
(354,63,o),
(441,63,cs)
);
}
);
width = 886;
}
);
metricLeft = "=H";
metricRight = "=H";
unicode = 77;
},
{
glyphname = N;
lastChange = "2025-06-27 07:59:51 +0000";
layers = (
{
anchors = (
{
name = bottom;
pos = (384,0);
},
{
name = top;
pos = (394,700);
}
);
layerId = "D8D2F0D2-8948-448B-99CD-378CDFD0E0AE";
shapes = (
{
closed = 1;
nodes = (
(172,0,l),
(172,647,l),
(151,641,l),
(591,0,l),
(654,0,l),
(654,700,l),
(596,700,l),
(596,53,l),
(626,59,l),
(207,668,ls),
(190,693,o),
(176,706,o),
(154,706,cs),
(128,706,o),
(114,688,o),
(114,654,cs),
(114,0,l)
);
}
);
width = 768;
},
{
anchors = (
{
name = bottom;
pos = (368,0);
},
{
name = top;
pos = (398,700);
}
);
layerId = "83B83716-1CD1-47ED-B715-8773FED73F88";
shapes = (
{
closed = 1;
nodes = (
(256,0,l),
(256,454,l),
(173,448,l),
(495,0,l),
(736,0,l),
(736,700,l),
(510,700,l),
(510,248,l),
(603,254,l),
(352,601,ls),
(302,670,o),
(256,712,o),
(181,712,cs),
(87,712,o),
(30,646,o),
(30,532,cs),
(30,0,l)
);
}
);
width = 766;
},
{
anchors = (
{
name = bottom;
pos = (409,0);
},
{
name = top;
pos = (409,700);
}
);
associatedMasterId = "83B83716-1CD1-47ED-B715-8773FED73F88";
layerId = "28850CA8-EDB6-468C-9B01-D4278442978C";
name = "18 juin 25 à 10:34";
shapes = (
{
closed = 1;
nodes = (
(307,0,l),
(282,83,o),
(224,383,o),
(284,383,cs),
(322,383,o),
(416,274,o),
(556,0,c),
(767,0,l),
(767,700,l),
(541,700,l),
(541,413,l),
(451,613,o),
(356,712,o),
(232,712,cs),
(103,712,o),
(30,605,o),
(30,376,cs),
(30,270,o),
(46,147,o),
(85,0,c)
);
}
);
width = 797;
}
);
metricLeft = "=H";
metricRight = "=H";
unicode = 78;
},
{
glyphname = O;
lastChange = "2025-06-27 07:59:37 +0000";
layers = (
{
anchors = (
{
name = bottom;
pos = (383,0);
},
{
name = center;
pos = (383,370);
},
{
name = ogonek;
pos = (681,10);
},
{
name = top;
pos = (391,700);
},
{
name = topleft;
pos = (31,700);
},
{
name = topright;
pos = (735,700);
}
);
layerId = "D8D2F0D2-8948-448B-99CD-378CDFD0E0AE";
shapes = (
{
closed = 1;
nodes = (
(56,128,o),
(183,-12,o),
(386,-12,cs),
(595,-12,o),
(722,142,o),
(722,359,cs),
(722,571,o),
(595,712,o),
(392,712,cs),
(183,712,o),
(56,557,o),
(56,340,cs)
);
},
{
closed = 1;
nodes = (
(124,525,o),
(223,656,o),
(391,656,cs),
(551,656,o),
(654,537,o),
(654,358,cs),
(654,175,o),
(555,44,o),
(387,44,cs),
(227,44,o),
(124,161,o),
(124,342,cs)
);
}
);
width = 778;
},
{
anchors = (
{
name = bottom;
pos = (371,0);
},
{
name = center;
pos = (371,370);
},
{
name = ogonek;
pos = (668,10);
},
{
name = top;
pos = (371,700);
},
{
name = topleft;
pos = (20,700);
},
{
name = topright;
pos = (722,700);
}
);
layerId = "83B83716-1CD1-47ED-B715-8773FED73F88";
shapes = (
{
closed = 1;
nodes = (
(6,139,o),
(131,-12,o),
(366,-12,cs),
(603,-12,o),
(736,144,o),
(736,357,cs),
(736,561,o),
(611,712,o),
(376,712,cs),
(139,712,o),
(6,555,o),
(6,344,cs)
);
},
{
closed = 1;
nodes = (
(252,442,o),
(295,498,o),
(372,498,cs),
(448,498,o),
(490,445,o),
(490,353,cs),
(490,260,o),
(447,202,o),
(370,202,cs),
(294,202,o),
(252,256,o),
(252,349,cs)
);
}
);
width = 742;
}
);
metricRight = "=|";
unicode = 79;
},
{
glyphname = Oslash;
lastChange = "2025-06-25 08:43:57 +0000";
layers = (
{
.lastUpdate = 773061708.199;
layerId = "D8D2F0D2-8948-448B-99CD-378CDFD0E0AE";
shapes = (
{
closed = 1;
nodes = (
(129,0,l),
(722,700,l),
(649,700,l),
(56,0,l)
);
},
{
ref = O;
}
);
width = 778;
},
{
.lastUpdate = 773073464.947;
layerId = "83B83716-1CD1-47ED-B715-8773FED73F88";
shapes = (
{
closed = 1;
nodes = (
(162,0,l),
(736,700,l),
(580,700,l),
(6,0,l)
);
},
{
ref = O;
}
);
width = 742;
}
);
metricLeft = "=O";
metricRight = "=O";
unicode = 216;
},
{
glyphname = P;
lastChange = "2025-06-19 15:54:44 +0000";
layers = (
{
layerId = "D8D2F0D2-8948-448B-99CD-378CDFD0E0AE";
shapes = (
{
closed = 1;
nodes = (
(377,305,ls),
(550,305,o),
(636,385,o),
(636,509,cs),
(636,631,o),
(553,700,o),
(373,700,cs),
(144,700,l),
(144,642,l),
(373,642,ls),
(507,642,o),
(568,598,o),
(568,508,cs),
(568,417,o),
(507,363,o),
(373,363,cs),
(144,363,l),
(144,305,l)
);
},
{
closed = 1;
nodes = (
(177,0,l),
(177,700,l),
(114,700,l),
(114,0,l)
);
}
);
width = 678;
},
{
layerId = "83B83716-1CD1-47ED-B715-8773FED73F88";
shapes = (
{
closed = 1;
nodes = (
(362,192,ls),
(556,192,o),
(672,294,o),
(672,452,cs),
(672,605,o),
(564,700,o),
(362,700,cs),
(178,700,l),
(178,500,l),
(335,500,ls),
(402,500,o),
(424,482,o),
(424,447,cs),
(424,409,o),
(398,392,o),
(335,392,cs),
(178,392,l),
(178,192,l)
);
},
{
closed = 1;
nodes = (
(266,0,l),
(266,700,l),
(30,700,l),
(30,0,l)
);
}
);
width = 678;
}
);
metricLeft = "=H";
unicode = 80;
},
{
glyphname = Thorn;
lastChange = "2025-06-25 07:59:00 +0000";
layers = (
{
layerId = "D8D2F0D2-8948-448B-99CD-378CDFD0E0AE";
shapes = (
{
closed = 1;
nodes = (
(377,175,ls),
(550,175,o),
(636,255,o),
(636,379,cs),
(636,501,o),
(553,570,o),
(373,570,cs),
(144,570,l),
(144,512,l),
(373,512,ls),
(507,512,o),
(568,468,o),
(568,378,cs),
(568,287,o),
(507,233,o),
(373,233,cs),
(144,233,l),
(144,175,l)
);
},
{
closed = 1;
nodes = (
(177,0,l),
(177,700,l),
(114,700,l),
(114,0,l)
);
}
);
width = 678;
},
{
layerId = "83B83716-1CD1-47ED-B715-8773FED73F88";
shapes = (
{
closed = 1;
nodes = (
(362,112,ls),
(556,112,o),
(672,214,o),
(672,372,cs),
(672,525,o),
(564,620,o),
(362,620,cs),
(178,620,l),
(178,420,l),
(335,420,ls),
(402,420,o),
(424,402,o),
(424,367,cs),
(424,329,o),
(398,312,o),
(335,312,cs),
(178,312,l),
(178,112,l)
);
},
{
closed = 1;
nodes = (
(266,0,l),
(266,700,l),
(30,700,l),
(30,0,l)
);
}
);
width = 678;
}
);
metricLeft = "=H";
metricRight = "=P";
unicode = 222;
},
{
glyphname = Q;
lastChange = "2025-07-01 11:18:39 +0000";
layers = (
{
.lastUpdate = 773061708.2;
layerId = "D8D2F0D2-8948-448B-99CD-378CDFD0E0AE";
shapes = (
{
closed = 1;
nodes = (
(435,-134,o),
(507,-180,o),
(581,-180,cs),
(623,-180,o),
(641,-165,o),
(641,-144,cs),
(641,-129,o),
(632,-115,o),
(590,-115,cs),
(554,-115,o),
(501,-110,o),
(454,8,c),
(388,24,l)
);
},
{
ref = O;
}
);
width = 766;
},
{
.lastUpdate = 773073464.906;
layerId = "83B83716-1CD1-47ED-B715-8773FED73F88";
shapes = (
{
closed = 1;
nodes = (
(343,-134,o),
(429,-200,o),
(547,-200,cs),
(646,-200,o),
(693,-153,o),
(693,-86,cs),
(693,-28,o),
(658,-1,o),
(608,-1,cs),
(564,-1,o),
(533,-22,o),
(524,61,c),
(296,44,l)
);
},
{
ref = O;
}
);
width = 742;
},
{
associatedMasterId = "83B83716-1CD1-47ED-B715-8773FED73F88";
layerId = "F8A425C8-FE7A-4E37-9473-F90E4B06085A";
name = "18 juin 25 à 17:08";
shapes = (
{
closed = 1;
nodes = (
(728,-64,o),
(723,5,o),
(670,67,cs),
(545,215,l),
(376,70,l),
(500,-77,ls),
(552,-139,o),
(620,-156,o),
(674,-110,cs)
);
},
{
ref = O;
}
);
width = 742;
},
{
associatedMasterId = "D8D2F0D2-8948-448B-99CD-378CDFD0E0AE";
layerId = "1116F57D-1597-4A87-B0BE-48751E6518AE";
name = "18 juin 25 à 20:43";
shapes = (
{
closed = 1;
nodes = (
(663,-81,o),
(663,-64,o),
(648,-46,cs),
(543,83,l),
(499,48,l),
(605,-83,ls),
(619,-101,o),
(635,-105,o),
(649,-93,cs)
);
},
{
ref = O;
}
);
width = 744;
}
);
metricLeft = "=O";
metricRight = "=O";
unicode = 81;
},
{
glyphname = R;
lastChange = "2025-06-25 12:16:25 +0000";
layers = (
{
anchors = (
{
name = bottom;
pos = (347,0);
},
{
name = top;
pos = (347,700);
}
);
layerId = "D8D2F0D2-8948-448B-99CD-378CDFD0E0AE";
shapes = (
{
closed = 1;
nodes = (
(636,0,l),
(561,146,o),
(672,362,o),
(414,362,cs),
(149,362,l),
(149,324,l),
(401,324,ls),
(584,324,o),
(518,112,o),
(563,0,c)
);
},
{
closed = 1;
nodes = (
(178,0,l),
(178,700,l),
(114,700,l),
(114,0,l)
);
},
{
closed = 1;
nodes = (
(374,342,ls),
(545,342,o),
(633,397,o),
(633,519,cs),
(633,641,o),
(550,700,o),
(374,700,cs),
(145,700,l),
(145,642,l),
(374,642,ls),
(508,642,o),
(567,608,o),
(567,518,cs),
(567,427,o),
(508,382,o),
(374,382,cs),
(145,382,l),
(145,342,l)
);
}
);
width = 694;
},
{
anchors = (
{
name = bottom;
pos = (349,0);
},
{
name = top;
pos = (329,700);
}
);
layerId = "83B83716-1CD1-47ED-B715-8773FED73F88";
shapes = (
{
closed = 1;
nodes = (
(688,0,l),
(613,147,o),
(721,327,o),
(458,327,cs),
(241,327,l),
(241,212,l),
(328,212,ls),
(432,212,o),
(387,73,o),
(422,0,c)
);
},
{
closed = 1;
nodes = (
(266,0,l),
(266,700,l),
(30,700,l),
(30,0,l)
);
},
{
closed = 1;
nodes = (
(362,272,ls),
(556,272,o),
(672,324,o),
(672,472,cs),
(672,615,o),
(564,700,o),
(362,700,cs),
(178,700,l),
(178,500,l),
(339,500,ls),
(406,500,o),
(424,482,o),
(424,451,cs),
(424,419,o),
(402,402,o),
(339,402,cs),
(178,402,l),
(178,272,l)
);
}
);
width = 698;
},
{
associatedMasterId = "83B83716-1CD1-47ED-B715-8773FED73F88";
layerId = "26C53316-47A2-41AA-95D2-E88DA75F5DA6";
name = "13 juin 25 à 12:18";
shapes = (
{
closed = 1;
nodes = (
(681,-16,o),
(708,92,o),
(652,179,cs),
(553,335,l),
(292,310,l),
(405,93,ls),
(438,29,o),
(482,-16,o),
(558,-16,cs)
);
},
{
closed = 1;
nodes = (
(362,212,ls),
(556,212,o),
(672,294,o),
(672,452,cs),
(672,605,o),
(564,700,o),
(362,700,cs),
(178,700,l),
(178,510,l),
(325,510,ls),
(392,510,o),
(424,492,o),
(424,457,cs),
(424,419,o),
(388,402,o),
(325,402,cs),
(178,402,l),
(178,212,l)
);
},
{
closed = 1;
nodes = (
(266,0,l),
(266,700,l),
(30,700,l),
(30,0,l)
);
}
);
width = 696;
},
{
associatedMasterId = "D8D2F0D2-8948-448B-99CD-378CDFD0E0AE";
layerId = "F3DD9A56-9DCF-4FE3-A9DF-BA078B253229";
name = "14 juin 25 à 00:12";
shapes = (
{
closed = 1;
nodes = (
(629,0,o),
(634,20,o),
(620,49,cs),
(465,362,l),
(399,361,l),
(562,26,ls),
(570,9,o),
(582,0,o),
(601,0,cs)
);
},
{
closed = 1;
nodes = (
(363,325,ls),
(534,325,o),
(632,395,o),
(632,519,cs),
(632,641,o),
(537,700,o),
(363,700,cs),
(144,700,l),
(144,643,l),
(363,643,ls),
(497,643,o),
(566,608,o),
(566,518,cs),
(566,427,o),
(497,382,o),
(363,382,cs),
(144,382,l),
(144,325,l)
);
},
{
closed = 1;
nodes = (
(177,0,l),
(177,700,l),
(114,700,l),
(114,0,l)
);
}
);
width = 693;
},
{
associatedMasterId = "83B83716-1CD1-47ED-B715-8773FED73F88";
layerId = "A2193924-495D-4089-B16D-4BC6E52C8F25";
name = "18 juin 25 à 16:28";
shapes = (
{
closed = 1;
nodes = (
(712,0,l),
(519,335,l),
(272,310,l),
(433,0,l)
);
},
{
closed = 1;
nodes = (
(362,202,ls),
(556,202,o),
(672,304,o),
(672,462,cs),
(672,615,o),
(564,700,o),
(362,700,cs),
(178,700,l),
(178,500,l),
(335,500,ls),
(402,500,o),
(424,482,o),
(424,451,cs),
(424,419,o),
(398,402,o),
(335,402,cs),
(178,402,l),
(178,202,l)
);
},
{
closed = 1;
nodes = (
(266,0,l),
(266,700,l),
(30,700,l),
(30,0,l)
);
}
);
width = 722;
},
{
associatedMasterId = "D8D2F0D2-8948-448B-99CD-378CDFD0E0AE";
layerId = "14ACF93A-BFCE-4CBA-94DB-5168590F88CC";
name = "18 juin 25 à 19:59";
shapes = (
{
closed = 1;
nodes = (
(644,0,l),
(465,362,l),
(399,361,l),
(575,0,l)
);
},
{
closed = 1;
nodes = (
(374,325,ls),
(545,325,o),
(633,395,o),
(633,519,cs),
(633,641,o),
(548,700,o),
(374,700,cs),
(145,700,l),
(145,643,l),
(374,643,ls),
(508,643,o),
(567,608,o),
(567,518,cs),
(567,427,o),
(508,382,o),
(374,382,cs),
(145,382,l),
(145,325,l)
);
},
{
closed = 1;
nodes = (
(178,0,l),
(178,700,l),
(114,700,l),
(114,0,l)
);
}
);
width = 694;
}
);
metricLeft = "=H";
unicode = 82;
},
{
glyphname = S;
lastChange = "2025-07-01 11:11:54 +0000";
layers = (
{
anchors = (
{
name = bottom;
pos = (320,0);
},
{
name = top;
pos = (330,700);
}
);
layerId = "83B83716-1CD1-47ED-B715-8773FED73F88";
shapes = (
{
closed = 1;
nodes = (
(517,-12,o),
(614,90,o),
(614,231,cs),
(614,483,o),
(268,433,o),
(268,513,cs),
(268,527,o),
(279,538,o),
(304,538,cs),
(370,538,o),
(420,462,o),
(506,462,cs),
(569,462,o),
(604,504,o),
(604,560,cs),
(604,676,o),
(458,712,o),
(340,712,cs),
(138,712,o),
(26,616,o),
(26,469,cs),
(26,204,o),
(372,268,o),
(372,189,cs),
(372,171,o),
(354,164,o),
(322,164,cs),
(243,164,o),
(145,206,o),
(40,283,c),
(40,57,l),
(105,19,o),
(191,-12,o),
(309,-12,cs)
);
}
);
width = 640;
},
{
associatedMasterId = "D8D2F0D2-8948-448B-99CD-378CDFD0E0AE";
layerId = "9BF5987E-DBA8-4C28-99DD-D78EF1ED3B67";
name = "Aug 25 21, 21:55";
shapes = (
{
closed = 1;
nodes = (
(99,55,o),
(190,-10,o),
(330,-10,cs),
(485,-10,o),
(588,71,o),
(588,197,cs),
(588,458,o),
(154,384,o),
(154,588,cs),
(154,659,o),
(206,734,o),
(331,734,cs),
(454,734,o),
(501,661,o),
(521,586,c),
(583,606,l),
(549,723,o),
(463,790,o),
(331,790,cs),
(177,790,o),
(90,700,o),
(90,583,cs),
(90,322,o),
(524,396,o),
(524,192,cs),
(524,117,o),
(465,47,o),
(332,47,cs),
(222,47,o),
(156,97,o),
(123,194,c),
(62,174,l)
);
}
);
width = 666;
},
{
associatedMasterId = "D8D2F0D2-8948-448B-99CD-378CDFD0E0AE";
guides = (
{
angle = 219.8056;
pos = (557,855);
}
);
layerId = "EB3AAA4A-06AE-4173-BE5A-F964DF34B32D";
name = "Sep 11 21, 16:51";
shapes = (
{
closed = 1;
nodes = (
(133,31,o),
(221,-10,o),
(331,-10,cs),
(485,-10,o),
(588,71,o),
(588,197,cs),
(588,458,o),
(154,384,o),
(154,587,cs),
(154,657,o),
(206,732,o),
(331,732,cs),
(413,732,o),
(472,700,o),
(529,616,c),
(581,658,l),
(519,750,o),
(434,790,o),
(331,790,cs),
(176,790,o),
(90,700,o),
(90,583,cs),
(90,322,o),
(524,396,o),
(524,193,cs),
(524,118,o),
(465,48,o),
(333,48,cs),
(245,48,o),
(182,79,o),
(116,163,c),
(64,122,l)
);
}
);
width = 666;
},
{
.lastUpdate = 773061114.456;
anchors = (
{
name = bottom;
pos = (296,0);
},
{
name = top;
pos = (306,700);
}
);
guides = (
{
angle = 219.8056;
pos = (567,855);
}
);
layerId = "D8D2F0D2-8948-448B-99CD-378CDFD0E0AE";
shapes = (
{
closed = 1;
nodes = (
(452,-12,o),
(544,59,o),
(544,179,cs),
(544,437,o),
(123,326,o),
(123,521,cs),
(123,597,o),
(186,656,o),
(304,656,cs),
(436,656,o),
(452,583,o),
(492,583,cs),
(506,583,o),
(517,592,o),
(517,609,cs),
(517,647,o),
(462,712,o),
(312,712,cs),
(145,712,o),
(61,631,o),
(61,518,cs),
(61,267,o),
(482,373,o),
(482,176,cs),
(482,104,o),
(426,44,o),
(290,44,cs),
(213,44,o),
(134,63,o),
(56,110,c),
(56,50,l),
(114,11,o),
(200,-12,o),
(292,-12,cs)
);
}
);
width = 592;
},
{
associatedMasterId = "D8D2F0D2-8948-448B-99CD-378CDFD0E0AE";
guides = (
{
angle = 219.8056;
pos = (557,855);
}
);
layerId = "8BEF1A39-6AF8-4037-857F-BDD2B7F23ADE";
name = "12 juin 25 à 09:28";
shapes = (
{
closed = 1;
nodes = (
(119,27,o),
(206,-11,o),
(320,-11,cs),
(466,-11,o),
(566,55,o),
(566,178,cs),
(566,432,o),
(140,336,o),
(140,529,cs),
(140,595,o),
(191,657,o),
(311,657,cs),
(395,657,o),
(454,626,o),
(510,547,c),
(561,586,l),
(500,674,o),
(416,712,o),
(311,712,cs),
(161,712,o),
(79,636,o),
(79,525,cs),
(79,278,o),
(505,373,o),
(505,174,cs),
(505,100,o),
(447,44,o),
(322,44,cs),
(230,44,o),
(167,73,o),
(102,153,c),
(51,114,l)
);
}
);
visible = 1;
width = 632;
}
);
unicode = 83;
},
{
glyphname = T;
lastChange = "2025-06-25 12:16:51 +0000";
layers = (
{
anchors = (
{
name = bottom;
pos = (304,0);
},
{
name = center;
pos = (304,350);
},
{
name = top;
pos = (304,700);
}
);
layerId = "D8D2F0D2-8948-448B-99CD-378CDFD0E0AE";
shapes = (
{
closed = 1;
nodes = (
(336,0,l),
(336,700,l),
(272,700,l),
(272,0,l)
);
},
{
closed = 1;
nodes = (
(598,644,l),
(598,700,l),
(10,700,l),
(10,644,l)
);
}
);
width = 608;
},
{
anchors = (
{
name = bottom;
pos = (332,0);
},
{
name = center;
pos = (332,350);
},
{
name = top;
pos = (331,700);
}
);
layerId = "83B83716-1CD1-47ED-B715-8773FED73F88";
shapes = (
{
closed = 1;
nodes = (
(450,0,l),
(450,700,l),
(214,700,l),
(214,0,l)
);
},
{
closed = 1;
nodes = (
(654,490,l),
(654,700,l),
(10,700,l),
(10,490,l)
);
}
);
width = 664;
}
);
metricRight = "=|";
unicode = 84;
},
{
glyphname = U;
lastChange = "2025-06-25 14:53:28 +0000";
layers = (
{
anchors = (
{
name = bottom;
pos = (368,0);
},
{
name = ogonek;
pos = (418,0);
},
{
name = top;
pos = (368,700);
},
{
name = topright;
pos = (726,700);
}
);
layerId = "D8D2F0D2-8948-448B-99CD-378CDFD0E0AE";
shapes = (
{
closed = 1;
nodes = (
(104,90,o),
(198,-9,o),
(368,-9,cs),
(545,-9,o),
(632,99,o),
(632,272,cs),
(632,700,l),
(568,700,l),
(568,274,ls),
(568,141,o),
(509,49,o),
(368,49,cs),
(234,49,o),
(168,133,o),
(168,274,cs),
(168,700,l),
(104,700,l),
(104,272,ls)
);
}
);
width = 736;
},
{
anchors = (
{
name = bottom;
pos = (346,0);
},
{
name = ogonek;
pos = (415,0);
},
{
name = top;
pos = (346,700);
},
{
name = topright;
pos = (662,700);
}
);
layerId = "83B83716-1CD1-47ED-B715-8773FED73F88";
shapes = (
{
closed = 1;
nodes = (
(20,76,o),
(146,-10,o),
(346,-10,cs),
(554,-10,o),
(672,86,o),
(672,291,cs),
(672,700,l),
(436,700,l),
(436,297,ls),
(436,242,o),
(407,204,o),
(346,204,cs),
(287,204,o),
(256,239,o),
(256,297,cs),
(256,700,l),
(20,700,l),
(20,291,ls)
);
}
);
width = 692;
}
);
metricLeft = "=H-10";
metricRight = "=|";
unicode = 85;
},
{
glyphname = V;
lastChange = "2025-06-27 07:56:31 +0000";
layers = (
{
layerId = "D8D2F0D2-8948-448B-99CD-378CDFD0E0AE";
shapes = (
{
closed = 1;
nodes = (
(350,0,l),
(616,700,l),
(550,700,l),
(289,0,l)
);
},
{
closed = 1;
nodes = (
(345,0,l),
(85,700,l),
(18,700,l),
(284,0,l)
);
}
);
width = 634;
},
{
layerId = "83B83716-1CD1-47ED-B715-8773FED73F88";
shapes = (
{
closed = 1;
nodes = (
(528,0,l),
(786,700,l),
(533,700,l),
(317,0,l)
);
},
{
closed = 1;
nodes = (
(492,0,l),
(266,700,l),
(10,700,l),
(268,0,l)
);
}
);
width = 796;
}
);
metricLeft = "=A";
metricRight = "=A";
unicode = 86;
},
{
glyphname = W;
lastChange = "2025-06-27 07:56:52 +0000";
layers = (
{
anchors = (
{
name = bottom;
pos = (448,0);
},
{
name = top;
pos = (448,520);
}
);
layerId = "D8D2F0D2-8948-448B-99CD-378CDFD0E0AE";
shapes = (
{
closed = 1;
nodes = (
(258,0,l),
(448,447,l),
(638,0,l),
(699,0,l),
(692,22,l),
(501,476,ls),
(488,508,o),
(468,520,o),
(448,520,cs),
(428,520,o),
(408,508,o),
(395,476,cs),
(204,22,l),
(197,0,l)
);
},
{
closed = 1;
nodes = (
(252,0,l),
(106,700,l),
(40,700,l),
(192,0,l)
);
},
{
closed = 1;
nodes = (
(704,0,l),
(856,700,l),
(790,700,l),
(643,0,l)
);
}
);
width = 896;
},
{
anchors = (
{
name = bottom;
pos = (506,0);
},
{
name = top;
pos = (506,589);
}
);
layerId = "83B83716-1CD1-47ED-B715-8773FED73F88";
shapes = (
{
closed = 1;
nodes = (
(386,0,l),
(506,261,l),
(626,0,l),
(784,0,l),
(784,136,l),
(626,498,ls),
(597,565,o),
(553,589,o),
(506,589,cs),
(459,589,o),
(415,565,o),
(386,498,cs),
(228,136,l),
(228,0,l)
);
},
{
closed = 1;
nodes = (
(354,0,l),
(268,700,l),
(10,700,l),
(150,0,l)
);
},
{
closed = 1;
nodes = (
(862,0,l),
(1002,700,l),
(744,700,l),
(658,0,l)
);
}
);
width = 1012;
},
{
associatedMasterId = "D8D2F0D2-8948-448B-99CD-378CDFD0E0AE";
layerId = "4697C7CF-CB3F-4DA3-8F3E-379320C0A47F";
name = "Aug 15 21, 19:34";
shapes = (
{
closed = 1;
nodes = (
(100,780,l),
(30,780,l),
(320,0,l),
(384,0,l)
);
},
{
closed = 1;
nodes = (
(390,0,l),
(680,780,l),
(612,780,l),
(328,0,l)
);
},
{
closed = 1;
nodes = (
(402,780,l),
(334,780,l),
(624,0,l),
(686,0,l)
);
},
{
closed = 1;
nodes = (
(694,0,l),
(984,780,l),
(914,780,l),
(630,0,l)
);
}
);
width = 1014;
}
);
metricLeft = "=V+22";
metricRight = "=|";
unicode = 87;
},
{
glyphname = X;
lastChange = "2025-06-24 09:02:50 +0000";
layers = (
{
layerId = "D8D2F0D2-8948-448B-99CD-378CDFD0E0AE";
shapes = (
{
closed = 1;
nodes = (
(87,0,l),
(323,343,l),
(276,343,l),
(513,0,l),
(588,0,l),
(314,395,l),
(314,321,l),
(578,700,l),
(503,700,l),
(277,371,l),
(324,371,l),
(97,700,l),
(22,700,l),
(286,321,l),
(286,395,l),
(12,0,l)
);
}
);
width = 600;
},
{
associatedMasterId = "83B83716-1CD1-47ED-B715-8773FED73F88";
layerId = "EFB72A23-FCAC-4D95-BA0A-EC2BFA977888";
name = "23 juin 25 à 19:40";
shapes = (
{
closed = 1;
nodes = (
(757,0,l),
(279,700,l),
(-2,700,l),
(476,0,l)
);
},
{
closed = 1;
nodes = (
(268,0,l),
(428,278,l),
(240,390,l),
(-1,0,l)
);
},
{
closed = 1;
nodes = (
(758,700,l),
(489,700,l),
(329,422,l),
(517,310,l)
);
}
);
width = 756;
},
{
layerId = "83B83716-1CD1-47ED-B715-8773FED73F88";
name = Black;
shapes = (
{
closed = 1;
nodes = (
(279,0,l),
(452,316,l),
(312,316,l),
(485,0,l),
(757,0,l),
(530,389,l),
(530,311,l),
(758,700,l),
(485,700,l),
(312,383,l),
(452,383,l),
(279,700,l),
(6,700,l),
(234,311,l),
(234,389,l),
(7,0,l)
);
}
);
visible = 1;
width = 764;
}
);
metricRight = "=|";
unicode = 88;
},
{
glyphname = Y;
lastChange = "2025-06-27 08:59:13 +0000";
layers = (
{
anchors = (
{
name = bottom;
pos = (307,0);
},
{
name = top;
pos = (309,700);
},
{
name = topleft;
pos = (9,700);
}
);
layerId = "D8D2F0D2-8948-448B-99CD-378CDFD0E0AE";
shapes = (
{
closed = 1;
nodes = (
(606,700,l),
(531,700,l),
(281,356,l),
(334,328,l)
);
},
{
closed = 1;
nodes = (
(338,0,l),
(338,349,l),
(276,349,l),
(276,0,l)
);
},
{
closed = 1;
nodes = (
(333,356,l),
(83,700,l),
(8,700,l),
(279,328,l)
);
}
);
width = 614;
},
{
anchors = (
{
name = bottom;
pos = (394,0);
},
{
name = top;
pos = (394,700);
},
{
name = topleft;
pos = (20,700);
}
);
associatedMasterId = "83B83716-1CD1-47ED-B715-8773FED73F88";
layerId = "1A65666F-90FC-4E90-A390-5DE04AD51E3C";
name = "18 juin 25 à 17:48";
shapes = (
{
closed = 1;
nodes = (
(758,700,l),
(490,700,l),
(394,402,l),
(298,700,l),
(30,700,l),
(156,360,ls),
(185,282,o),
(227,218,o),
(330,218,cs),
(458,218,ls),
(561,218,o),
(603,282,o),
(632,360,cs)
);
},
{
closed = 1;
nodes = (
(512,0,l),
(512,314,l),
(276,314,l),
(276,0,l)
);
}
);
width = 788;
},
{
anchors = (
{
name = bottom;
pos = (384,0);
},
{
name = top;
pos = (384,700);
},
{
name = topleft;
pos = (10,700);
}
);
layerId = "83B83716-1CD1-47ED-B715-8773FED73F88";
name = Black;
shapes = (
{
closed = 1;
nodes = (
(768,700,l),
(500,700,l),
(300,300,l),
(480,208,l)
);
},
{
closed = 1;
nodes = (
(502,0,l),
(502,394,l),
(266,394,l),
(266,0,l)
);
},
{
closed = 1;
nodes = (
(468,300,l),
(268,700,l),
(0,700,l),
(288,208,l)
);
}
);
width = 768;
}
);
metricLeft = "=V-10";
metricRight = "=|";
unicode = 89;
},
{
glyphname = Z;
lastChange = "2025-06-25 12:17:07 +0000";
layers = (
{
anchors = (
{
name = bottom;
pos = (308,0);
},
{
name = center;
pos = (308,350);
},
{
name = top;
pos = (300,700);
}
);
layerId = "D8D2F0D2-8948-448B-99CD-378CDFD0E0AE";
shapes = (
{
closed = 1;
nodes = (
(566,0,l),
(566,56,l),
(74,56,l),
(92,26,l),
(556,654,l),
(495,673,l),
(59,82,ls),
(45,62,o),
(40,48,o),
(40,36,cs),
(40,14,o),
(57,0,o),
(84,0,cs)
);
},
{
closed = 1;
nodes = (
(494,644,l),
(556,654,l),
(557,700,l),
(46,700,l),
(46,644,l)
);
}
);
width = 616;
},
{
associatedMasterId = "83B83716-1CD1-47ED-B715-8773FED73F88";
layerId = "7295FBCC-36EF-4BA0-91CC-1A53775B7FD3";
name = "13 juin 25 à 12:37";
shapes = (
{
closed = 1;
nodes = (
(620,0,l),
(620,180,l),
(269,180,l),
(340,87,l),
(561,466,ls),
(635,593,o),
(588,700,o),
(450,700,cs),
(42,700,l),
(42,520,l),
(404,520,l),
(357,568,l),
(22,0,l)
);
}
);
width = 642;
},
{
associatedMasterId = "D8D2F0D2-8948-448B-99CD-378CDFD0E0AE";
layerId = "C56DC4C9-C929-48CB-B7AA-AF8358DA8E75";
name = "14 juin 25 à 00:06";
shapes = (
{
closed = 1;
nodes = (
(566,0,l),
(566,56,l),
(99,56,l),
(119,18,l),
(529,642,ls),
(549,673,o),
(533,700,o),
(494,700,cs),
(46,700,l),
(46,644,l),
(503,644,l),
(483,682,l),
(36,0,l)
);
}
);
width = 602;
},
{
associatedMasterId = "83B83716-1CD1-47ED-B715-8773FED73F88";
layerId = "C3D9C96F-E4FB-47CE-822A-62DC134B541C";
name = "18 juin 25 à 17:31";
shapes = (
{
closed = 1;
nodes = (
(595,522,l),
(350,578,l),
(20,178,l),
(265,122,l)
);
},
{
closed = 1;
nodes = (
(595,0,l),
(595,210,l),
(110,210,l),
(20,178,l),
(20,0,l)
);
},
{
closed = 1;
nodes = (
(501,490,l),
(595,522,l),
(595,700,l),
(20,700,l),
(20,490,l)
);
}
);
width = 615;
},
{
anchors = (
{
name = bottom;
pos = (315,0);
},
{
name = center;
pos = (315,350);
},
{
name = top;
pos = (315,700);
}
);
layerId = "83B83716-1CD1-47ED-B715-8773FED73F88";
name = Black;
shapes = (
{
closed = 1;
nodes = (
(605,0,l),
(605,210,l),
(293,210,l),
(299,195,l),
(595,522,l),
(350,568,l),
(67,257,ls),
(26,211,o),
(14,171,o),
(14,132,cs),
(14,37,o),
(84,0,o),
(170,0,cs)
);
},
{
closed = 1;
nodes = (
(501,490,l),
(595,522,l),
(595,700,l),
(20,700,l),
(20,490,l)
);
}
);
width = 629;
}
);
metricRight = "=|+10";
unicode = 90;
},
{
glyphname = a;
lastChange = "2025-07-01 11:20:34 +0000";
layers = (
{
anchors = (
{
name = bottom;
pos = (283,0);
},
{
name = ogonek;
pos = (497,10);
},
{
name = top;
pos = (283,500);
}
);
associatedMasterId = "D8D2F0D2-8948-448B-99CD-378CDFD0E0AE";
layerId = "177EFA5E-0B73-4A5D-89FF-252970CF8757";
name = "13 juin 25 à 16:09";
shapes = (
{
closed = 1;
nodes = (
(457,28,o),
(445,80,o),
(445,138,cs),
(445,346,ls),
(445,472,o),
(380,510,o),
(276,510,cs),
(166,510,o),
(82,468,o),
(82,421,cs),
(82,406,o),
(92,400,o),
(104,400,cs),
(140,400,o),
(157,456,o),
(271,456,cs),
(342,456,o),
(385,435,o),
(385,345,cs),
(385,127,l),
(392,108,l),
(392,67,o),
(401,21,o),
(410,0,c),
(470,-1,l)
);
},
{
closed = 1;
nodes = (
(290,-10,o),
(372,25,o),
(400,119,c),
(385,185,l),
(385,96,o),
(304,42,o),
(225,42,cs),
(156,42,o),
(130,83,o),
(130,129,cs),
(130,204,o),
(199,247,o),
(397,258,c),
(396,311,l),
(164,298,o),
(66,230,o),
(66,124,cs),
(66,44,o),
(122,-10,o),
(215,-10,cs)
);
}
);
width = 544;
},
{
anchors = (
{
name = bottom;
pos = (291,0);
},
{
name = ogonek;
pos = (524,10);
},
{
name = top;
pos = (291,500);
}
);
associatedMasterId = "83B83716-1CD1-47ED-B715-8773FED73F88";
layerId = "42E47233-3DFD-4EDD-878F-67CE829DBC6B";
name = "13 juin 25 à 16:10";
shapes = (
{
closed = 1;
nodes = (
(564,40,o),
(554,97,o),
(554,181,cs),
(554,326,ls),
(554,472,o),
(426,510,o),
(288,510,cs),
(167,510,o),
(8,493,o),
(8,382,cs),
(8,328,o),
(43,307,o),
(86,307,cs),
(150,306,o),
(214,350,o),
(298,350,cs),
(326,350,o),
(338,345,o),
(338,331,cs),
(338,143,l),
(342,101,l),
(343,47,o),
(344,15,o),
(353,-2,c),
(582,0,l)
);
},
{
closed = 1;
nodes = (
(258,-10,o),
(326,28,o),
(358,96,c),
(338,213,l),
(338,171,o),
(316,142,o),
(278,142,cs),
(257,142,o),
(246,151,o),
(246,167,cs),
(246,192,o),
(274,210,o),
(349,209,c),
(351,323,l),
(114,312,o),
(10,253,o),
(10,134,cs),
(10,45,o),
(68,-10,o),
(174,-10,cs)
);
}
);
width = 582;
},
{
anchors = (
{
name = bottom;
pos = (291,0);
},
{
name = ogonek;
pos = (524,10);
},
{
name = top;
pos = (291,500);
}
);
associatedMasterId = "83B83716-1CD1-47ED-B715-8773FED73F88";
layerId = "14742696-60DF-422A-892B-509B8AAEDF66";
name = "17 juin 25 à 11:41";
shapes = (
{
closed = 1;
nodes = (
(558,150,o),
(554,167,o),
(554,211,cs),
(554,326,ls),
(554,472,o),
(426,510,o),
(288,510,cs),
(167,510,o),
(4,493,o),
(4,382,cs),
(4,330,o),
(40,305,o),
(90,305,cs),
(157,305,o),
(218,352,o),
(299,352,cs),
(330,352,o),
(338,345,o),
(338,331,cs),
(338,143,l),
(342,101,l),
(361,0,o),
(448,-34,o),
(598,0,c),
(598,160,l)
);
},
{
closed = 1;
nodes = (
(258,-10,o),
(326,28,o),
(358,96,c),
(338,213,l),
(338,171,o),
(316,142,o),
(278,142,cs),
(257,142,o),
(246,151,o),
(246,167,cs),
(246,186,o),
(262,197,o),
(349,219,c),
(351,333,l),
(114,302,o),
(10,253,o),
(10,134,cs),
(10,45,o),
(68,-10,o),
(174,-10,cs)
);
}
);
width = 598;
},
{
anchors = (
{
name = bottom;
pos = (283,0);
},
{
name = ogonek;
pos = (497,10);
},
{
name = top;
pos = (273,500);
}
);
associatedMasterId = "D8D2F0D2-8948-448B-99CD-378CDFD0E0AE";
layerId = "83E6AF74-7B2B-45D8-AB3F-2EEE1643F50A";
name = "20 juin 25 à 16:07";
shapes = (
{
closed = 1;
nodes = (
(457,28,o),
(445,80,o),
(445,138,cs),
(445,346,ls),
(445,472,o),
(380,512,o),
(276,512,cs),
(163,512,o),
(82,464,o),
(82,418,cs),
(82,402,o),
(92,396,o),
(104,396,cs),
(143,396,o),
(157,458,o),
(272,458,cs),
(342,458,o),
(385,435,o),
(385,345,cs),
(385,127,l),
(392,108,l),
(392,67,o),
(401,21,o),
(410,0,c),
(470,-1,l)
);
},
{
closed = 1;
nodes = (
(290,-12,o),
(372,25,o),
(400,119,c),
(385,185,l),
(385,96,o),
(304,40,o),
(225,40,cs),
(156,40,o),
(130,83,o),
(130,132,cs),
(130,214,o),
(199,257,o),
(397,228,c),
(396,277,l),
(164,314,o),
(66,240,o),
(66,127,cs),
(66,44,o),
(122,-12,o),
(215,-12,cs)
);
}
);
width = 544;
},
{
anchors = (
{
name = bottom;
pos = (291,0);
},
{
name = ogonek;
pos = (524,10);
},
{
name = top;
pos = (291,500);
}
);
associatedMasterId = "83B83716-1CD1-47ED-B715-8773FED73F88";
layerId = "BE0849E2-C4FD-49F0-A020-FD847A20B1CB";
name = "20 juin 25 à 16:07";
shapes = (
{
closed = 1;
nodes = (
(564,40,o),
(554,97,o),
(554,181,cs),
(554,326,ls),
(554,472,o),
(426,510,o),
(272,510,cs),
(167,510,o),
(14,493,o),
(14,383,cs),
(14,330,o),
(50,305,o),
(100,305,cs),
(172,305,o),
(219,356,o),
(295,356,cs),
(330,356,o),
(338,345,o),
(338,331,cs),
(338,143,l),
(342,101,l),
(343,47,o),
(344,15,o),
(353,-2,c),
(582,0,l)
);
},
{
closed = 1;
nodes = (
(258,-10,o),
(326,28,o),
(358,96,c),
(338,211,l),
(338,171,o),
(314,142,o),
(276,142,cs),
(256,142,o),
(246,150,o),
(246,164,cs),
(246,191,o),
(284,201,o),
(349,182,c),
(351,307,l),
(104,336,o),
(10,263,o),
(10,140,cs),
(10,45,o),
(68,-10,o),
(174,-10,cs)
);
}
);
width = 582;
},
{
anchors = (
{
name = bottom;
pos = (283,0);
},
{
name = ogonek;
pos = (497,10);
},
{
name = top;
pos = (273,500);
}
);
associatedMasterId = "D8D2F0D2-8948-448B-99CD-378CDFD0E0AE";
layerId = "9D77A725-9378-49ED-8BB0-89B19C168C4C";
name = "23 juin 25 à 19:42";
shapes = (
{
closed = 1;
nodes = (
(457,28,o),
(445,80,o),
(445,138,cs),
(445,346,ls),
(445,472,o),
(380,512,o),
(276,512,cs),
(163,512,o),
(82,464,o),
(82,418,cs),
(82,402,o),
(92,396,o),
(104,396,cs),
(143,396,o),
(157,458,o),
(274,458,cs),
(342,458,o),
(385,435,o),
(385,345,cs),
(385,127,l),
(392,108,l),
(392,67,o),
(401,21,o),
(410,0,c),
(470,-1,l)
);
},
{
closed = 1;
nodes = (
(290,-12,o),
(372,25,o),
(400,119,c),
(385,185,l),
(385,96,o),
(304,40,o),
(225,40,cs),
(156,40,o),
(130,83,o),
(130,129,cs),
(130,204,o),
(199,237,o),
(397,278,c),
(396,327,l),
(164,284,o),
(66,230,o),
(66,124,cs),
(66,44,o),
(122,-12,o),
(215,-12,cs)
);
}
);
width = 544;
},
{
anchors = (
{
name = bottom;
pos = (291,0);
},
{
name = ogonek;
pos = (524,10);
},
{
name = top;
pos = (291,500);
}
);
associatedMasterId = "83B83716-1CD1-47ED-B715-8773FED73F88";
layerId = "D52D84FA-7551-468F-97CD-EF8456D5A80D";
name = "23 juin 25 à 19:42";
shapes = (
{
closed = 1;
nodes = (
(564,40,o),
(554,97,o),
(554,181,cs),
(554,326,ls),
(554,472,o),
(426,510,o),
(288,510,cs),
(167,510,o),
(4,493,o),
(4,382,cs),
(4,330,o),
(40,305,o),
(90,305,cs),
(162,305,o),
(219,356,o),
(295,356,cs),
(330,356,o),
(338,345,o),
(338,331,cs),
(338,143,l),
(342,101,l),
(343,47,o),
(344,15,o),
(353,-2,c),
(582,0,l)
);
},
{
closed = 1;
nodes = (
(258,-10,o),
(326,28,o),
(358,96,c),
(338,211,l),
(338,171,o),
(314,142,o),
(275,142,cs),
(255,142,o),
(246,150,o),
(246,163,cs),
(246,181,o),
(263,194,o),
(349,212,c),
(351,335,l),
(114,304,o),
(10,253,o),
(10,134,cs),
(10,45,o),
(68,-10,o),
(174,-10,cs)
);
}
);
width = 582;
},
{
anchors = (
{
name = bottom;
pos = (291,0);
},
{
name = ogonek;
pos = (524,10);
},
{
name = top;
pos = (291,500);
}
);
associatedMasterId = "83B83716-1CD1-47ED-B715-8773FED73F88";
layerId = "64BA9472-0B94-42B2-B3D1-BE3782544FF5";
name = "24 juin 25 à 12:18";
shapes = (
{
closed = 1;
nodes = (
(564,40,o),
(554,97,o),
(554,181,cs),
(554,313,ls),
(554,479,o),
(436,512,o),
(283,512,cs),
(167,512,o),
(17,493,o),
(17,385,cs),
(17,330,o),
(56,305,o),
(100,305,cs),
(164,305,o),
(215,358,o),
(294,358,cs),
(325,358,o),
(338,350,o),
(338,328,cs),
(338,143,l),
(342,101,l),
(343,47,o),
(344,15,o),
(353,-2,c),
(582,0,l)
);
},
{
closed = 1;
nodes = (
(258,-10,o),
(326,28,o),
(358,96,c),
(338,211,l),
(338,171,o),
(314,142,o),
(275,142,cs),
(255,142,o),
(246,150,o),
(246,163,cs),
(246,181,o),
(263,198,o),
(349,197,c),
(351,319,l),
(104,320,o),
(10,253,o),
(10,136,cs),
(10,45,o),
(68,-10,o),
(174,-10,cs)
);
}
);
width = 582;
},
{
anchors = (
{
name = bottom;
pos = (291,0);
},
{
name = ogonek;
pos = (474,0);
},
{
name = top;
pos = (291,500);
}
);
associatedMasterId = "83B83716-1CD1-47ED-B715-8773FED73F88";
layerId = "4A399760-EF02-41DB-9BE1-EDC9EEAF6677";
name = "25 juin 25 à 17:23";
shapes = (
{
closed = 1;
nodes = (
(564,40,o),
(554,97,o),
(554,181,cs),
(554,283,ls),
(554,479,o),
(426,512,o),
(273,512,cs),
(157,512,o),
(7,493,o),
(7,383,cs),
(7,330,o),
(42,299,o),
(92,299,cs),
(150,299,o),
(206,340,o),
(278,340,cs),
(323,340,o),
(338,324,o),
(338,298,cs),
(338,143,l),
(342,101,l),
(343,47,o),
(344,15,o),
(353,-2,c),
(582,0,l)
);
},
{
closed = 1;
nodes = (
(258,-10,o),
(326,28,o),
(358,96,c),
(338,211,l),
(338,171,o),
(314,142,o),
(275,142,cs),
(255,142,o),
(246,150,o),
(246,163,cs),
(246,181,o),
(263,198,o),
(349,197,c),
(351,301,l),
(104,312,o),
(10,253,o),
(10,136,cs),
(10,45,o),
(68,-10,o),
(174,-10,cs)
);
}
);
width = 582;
},
{
anchors = (
{
name = bottom;
pos = (283,0);
},
{
name = ogonek;
pos = (415,0);
},
{
name = top;
pos = (273,500);
}
);
associatedMasterId = "D8D2F0D2-8948-448B-99CD-378CDFD0E0AE";
layerId = "9C88C298-CC4A-4D08-A272-A8FF2D1EE471";
name = "25 juin 25 à 17:23";
shapes = (
{
closed = 1;
nodes = (
(457,28,o),
(445,80,o),
(445,138,cs),
(445,346,ls),
(445,472,o),
(375,512,o),
(271,512,cs),
(158,512,o),
(82,464,o),
(82,420,cs),
(82,402,o),
(94,395,o),
(107,395,cs),
(146,395,o),
(153,458,o),
(271,458,cs),
(342,458,o),
(385,435,o),
(385,345,cs),
(385,127,l),
(392,108,l),
(392,67,o),
(401,21,o),
(410,0,c),
(470,-1,l)
);
},
{
closed = 1;
nodes = (
(290,-12,o),
(372,25,o),
(400,119,c),
(385,185,l),
(385,96,o),
(304,40,o),
(225,40,cs),
(156,40,o),
(130,83,o),
(130,129,cs),
(130,204,o),
(199,250,o),
(397,249,c),
(396,299,l),
(160,300,o),
(66,230,o),
(66,124,cs),
(66,44,o),
(122,-12,o),
(215,-12,cs)
);
}
);
width = 544;
},
{
anchors = (
{
name = bottom;
pos = (283,0);
},
{
name = ogonek;
pos = (497,10);
},
{
name = top;
pos = (273,500);
}
);
associatedMasterId = "D8D2F0D2-8948-448B-99CD-378CDFD0E0AE";
layerId = "2E198DA7-26FD-4627-91F0-D1389A50E3A0";
name = "25 juin 25 à 17:31";
shapes = (
{
closed = 1;
nodes = (
(457,28,o),
(445,80,o),
(445,138,cs),
(445,366,ls),
(445,472,o),
(375,512,o),
(271,512,cs),
(158,512,o),
(82,464,o),
(82,420,cs),
(82,402,o),
(94,395,o),
(107,395,cs),
(146,395,o),
(153,458,o),
(271,458,cs),
(342,458,o),
(385,435,o),
(385,378,cs),
(385,127,l),
(392,108,l),
(392,67,o),
(401,21,o),
(410,0,c),
(470,-1,l)
);
},
{
closed = 1;
nodes = (
(297,-12,o),
(372,25,o),
(400,119,c),
(385,185,l),
(385,96,o),
(308,38,o),
(230,38,cs),
(170,38,o),
(130,73,o),
(130,127,cs),
(130,248,o),
(328,215,o),
(385,283,c),
(385,378,l),
(385,225,o),
(66,324,o),
(66,125,cs),
(66,38,o),
(126,-12,o),
(218,-12,cs)
);
}
);
width = 544;
},
{
anchors = (
{
name = bottom;
pos = (283,0);
},
{
name = ogonek;
pos = (415,0);
},
{
name = top;
pos = (273,500);
}
);
layerId = "D8D2F0D2-8948-448B-99CD-378CDFD0E0AE";
name = Thin;
shapes = (
{
closed = 1;
nodes = (
(457,28,o),
(445,80,o),
(445,138,cs),
(445,364,ls),
(445,472,o),
(375,512,o),
(271,512,cs),
(158,512,o),
(82,464,o),
(82,420,cs),
(82,402,o),
(94,395,o),
(107,395,cs),
(146,395,o),
(153,458,o),
(271,458,cs),
(342,458,o),
(385,435,o),
(385,364,cs),
(385,127,l),
(392,108,l),
(392,67,o),
(401,21,o),
(410,0,c),
(470,-1,l)
);
},
{
closed = 1;
nodes = (
(297,-12,o),
(374,25,o),
(402,119,c),
(385,195,l),
(385,96,o),
(308,38,o),
(230,38,cs),
(170,38,o),
(130,73,o),
(130,130,cs),
(130,187,o),
(169,215,o),
(227,227,cs),
(307,244,ls),
(354,254,o),
(374,264,o),
(385,276,c),
(385,364,l),
(385,318,o),
(370,305,o),
(296,289,cs),
(212,271,ls),
(114,250,o),
(66,205,o),
(66,128,cs),
(66,39,o),
(129,-12,o),
(220,-12,cs)
);
}
);
width = 544;
},
{
anchors = (
{
name = bottom;
pos = (291,0);
},
{
name = ogonek;
pos = (524,10);
},
{
name = top;
pos = (291,500);
}
);
associatedMasterId = "83B83716-1CD1-47ED-B715-8773FED73F88";
layerId = "196DED21-9AFF-4585-951A-3396B472A909";
name = "25 juin 25 à 17:33";
shapes = (
{
closed = 1;
nodes = (
(564,40,o),
(554,97,o),
(554,181,cs),
(554,283,ls),
(554,479,o),
(426,512,o),
(273,512,cs),
(157,512,o),
(18,493,o),
(18,384,cs),
(18,330,o),
(52,297,o),
(105,297,cs),
(165,297,o),
(220,340,o),
(292,340,cs),
(321,340,o),
(338,333,o),
(338,320,cs),
(338,137,l),
(342,101,l),
(343,47,o),
(344,15,o),
(353,-2,c),
(582,0,l)
);
},
{
closed = 1;
nodes = (
(258,-10,o),
(326,28,o),
(358,96,c),
(338,205,l),
(338,165,o),
(314,136,o),
(278,136,cs),
(256,136,o),
(246,147,o),
(246,164,cs),
(246,210,o),
(320,189,o),
(338,205,c),
(338,320,l),
(338,261,o),
(10,354,o),
(10,136,cs),
(10,45,o),
(68,-10,o),
(174,-10,cs)
);
}
);
width = 582;
},
{
.lastUpdate = 773061634.733;
anchors = (
{
name = bottom;
pos = (291,0);
},
{
name = ogonek;
pos = (474,0);
},
{
name = top;
pos = (291,500);
}
);
layerId = "83B83716-1CD1-47ED-B715-8773FED73F88";
name = Black;
shapes = (
{
closed = 1;
nodes = (
(564,40,o),
(554,97,o),
(554,181,cs),
(554,283,ls),
(554,479,o),
(426,512,o),
(273,512,cs),
(157,512,o),
(18,493,o),
(18,384,cs),
(18,330,o),
(52,297,o),
(105,297,cs),
(165,297,o),
(220,340,o),
(292,340,cs),
(321,340,o),
(338,333,o),
(338,318,cs),
(338,137,l),
(342,101,l),
(343,47,o),
(344,15,o),
(353,-2,c),
(582,0,l)
);
},
{
closed = 1;
nodes = (
(258,-12,o),
(326,28,o),
(358,96,c),
(338,204,l),
(338,165,o),
(316,136,o),
(280,136,cs),
(258,136,o),
(246,147,o),
(246,164,cs),
(246,182,o),
(260,190,o),
(280,193,cs),
(316,198,ls),
(329,200,o),
(334,202,o),
(338,205,c),
(338,318,l),
(338,307,o),
(329,302,o),
(305,299,cs),
(204,287,ls),
(91,274,o),
(10,245,o),
(10,136,cs),
(10,45,o),
(68,-12,o),
(173,-12,cs)
);
}
);
width = 582;
},
{
anchors = (
{
name = bottom;
pos = (283,0);
},
{
name = ogonek;
pos = (415,0);
},
{
name = top;
pos = (273,500);
}
);
associatedMasterId = "D8D2F0D2-8948-448B-99CD-378CDFD0E0AE";
layerId = "9AE96089-1D81-4E77-A21D-F0A1B32468B7";
name = "26 juin 25 à 11:52";
shapes = (
{
closed = 1;
nodes = (
(457,28,o),
(445,80,o),
(445,138,cs),
(445,364,ls),
(445,472,o),
(375,512,o),
(271,512,cs),
(158,512,o),
(82,464,o),
(82,420,cs),
(82,402,o),
(94,395,o),
(107,395,cs),
(146,395,o),
(153,458,o),
(271,458,cs),
(342,458,o),
(385,435,o),
(385,364,cs),
(385,127,l),
(392,108,l),
(392,67,o),
(401,21,o),
(410,0,c),
(470,-1,l)
);
},
{
closed = 1;
nodes = (
(297,-12,o),
(372,25,o),
(400,119,c),
(385,195,l),
(385,96,o),
(308,38,o),
(230,38,cs),
(170,38,o),
(130,73,o),
(130,130,cs),
(130,250,o),
(309,194,o),
(385,276,c),
(385,364,l),
(385,214,o),
(66,326,o),
(66,128,cs),
(66,39,o),
(129,-12,o),
(220,-12,cs)
);
}
);
width = 544;
},
{
anchors = (
{
name = bottom;
pos = (291,0);
},
{
name = ogonek;
pos = (474,0);
},
{
name = top;
pos = (291,500);
}
);
associatedMasterId = "83B83716-1CD1-47ED-B715-8773FED73F88";
layerId = "8D584B4D-1DC6-459F-B0B7-336973511AF3";
name = "26 juin 25 à 12:15";
shapes = (
{
closed = 1;
nodes = (
(564,40,o),
(554,97,o),
(554,181,cs),
(554,283,ls),
(554,479,o),
(426,512,o),
(273,512,cs),
(157,512,o),
(18,493,o),
(18,384,cs),
(18,330,o),
(52,297,o),
(105,297,cs),
(165,297,o),
(220,340,o),
(292,340,cs),
(321,340,o),
(338,333,o),
(338,318,cs),
(338,137,l),
(342,101,l),
(343,47,o),
(344,15,o),
(353,-2,c),
(582,0,l)
);
},
{
closed = 1;
nodes = (
(298,-10,o),
(356,28,o),
(388,96,c),
(338,204,l),
(338,165,o),
(316,136,o),
(280,136,cs),
(258,136,o),
(246,147,o),
(246,164,cs),
(246,182,o),
(260,190,o),
(280,193,cs),
(316,198,ls),
(329,200,o),
(334,202,o),
(338,205,c),
(338,318,l),
(338,307,o),
(329,302,o),
(305,299,cs),
(204,287,ls),
(91,274,o),
(10,245,o),
(10,136,cs),
(10,45,o),
(68,-10,o),
(194,-10,cs)
);
}
);
width = 582;
},
{
anchors = (
{
name = bottom;
pos = (283,0);
},
{
name = ogonek;
pos = (415,0);
},
{
name = top;
pos = (273,500);
}
);
associatedMasterId = "D8D2F0D2-8948-448B-99CD-378CDFD0E0AE";
layerId = "1B7C7BEF-54C8-4C2F-BF03-4853F99FCEE9";
name = "26 juin 25 à 12:15";
shapes = (
{
closed = 1;
nodes = (
(457,28,o),
(445,80,o),
(445,138,cs),
(445,364,ls),
(445,472,o),
(375,512,o),
(271,512,cs),
(158,512,o),
(82,464,o),
(82,420,cs),
(82,402,o),
(94,395,o),
(107,395,cs),
(146,395,o),
(153,458,o),
(271,458,cs),
(342,458,o),
(385,435,o),
(385,364,cs),
(385,127,l),
(392,108,l),
(392,67,o),
(401,21,o),
(410,0,c),
(470,-1,l)
);
},
{
closed = 1;
nodes = (
(307,-12,o),
(384,25,o),
(412,119,c),
(385,195,l),
(385,96,o),
(308,38,o),
(230,38,cs),
(170,38,o),
(130,73,o),
(130,130,cs),
(130,187,o),
(169,215,o),
(227,227,cs),
(307,244,ls),
(354,254,o),
(374,264,o),
(385,276,c),
(385,364,l),
(385,318,o),
(370,305,o),
(296,289,cs),
(212,271,ls),
(114,250,o),
(66,205,o),
(66,128,cs),
(66,39,o),
(129,-12,o),
(230,-12,cs)
);
}
);
width = 544;
}
);
unicode = 97;
},
{
glyphname = ae;
lastChange = "2025-07-01 11:20:41 +0000";
layers = (
{
.lastUpdate = 773061961.487;
layerId = "D8D2F0D2-8948-448B-99CD-378CDFD0E0AE";
shapes = (
{
pos = (320,0);
ref = e;
},
{
closed = 1;
nodes = (
(437,138,l),
(437,364,ls),
(437,472,o),
(375,512,o),
(271,512,cs),
(158,512,o),
(82,464,o),
(82,420,cs),
(82,402,o),
(94,395,o),
(107,395,cs),
(146,395,o),
(153,458,o),
(271,458,cs),
(342,458,o),
(385,435,o),
(385,364,cs),
(385,127,l),
(392,108,l)
);
},
{
closed = 1;
nodes = (
(297,-12,o),
(381,25,o),
(409,119,c),
(385,195,l),
(385,96,o),
(308,38,o),
(230,38,cs),
(170,38,o),
(130,73,o),
(130,130,cs),
(130,187,o),
(169,215,o),
(227,227,cs),
(307,244,ls),
(354,254,o),
(374,264,o),
(385,276,c),
(385,364,l),
(385,318,o),
(370,305,o),
(296,289,cs),
(212,271,ls),
(114,250,o),
(66,205,o),
(66,128,cs),
(66,39,o),
(129,-12,o),
(220,-12,cs)
);
}
);
width = 870;
},
{
.lastUpdate = 773073464.407;
layerId = "83B83716-1CD1-47ED-B715-8773FED73F88";
shapes = (
{
pos = (322,0);
ref = e;
},
{
closed = 1;
nodes = (
(524,181,l),
(524,283,ls),
(524,479,o),
(426,512,o),
(273,512,cs),
(157,512,o),
(18,493,o),
(18,384,cs),
(18,330,o),
(52,297,o),
(105,297,cs),
(165,297,o),
(220,340,o),
(292,340,cs),
(321,340,o),
(338,333,o),
(338,318,cs),
(338,137,l),
(342,101,l)
);
},
{
closed = 1;
nodes = (
(278,-12,o),
(361,33,o),
(400,110,c),
(338,204,l),
(338,165,o),
(316,136,o),
(280,136,cs),
(258,136,o),
(246,147,o),
(246,164,cs),
(246,182,o),
(260,190,o),
(280,193,cs),
(316,198,ls),
(329,200,o),
(334,202,o),
(338,205,c),
(338,318,l),
(338,307,o),
(329,302,o),
(305,299,cs),
(204,287,ls),
(91,274,o),
(10,245,o),
(10,136,cs),
(10,45,o),
(68,-12,o),
(180,-12,cs)
);
}
);
width = 896;
},
{
associatedMasterId = "D8D2F0D2-8948-448B-99CD-378CDFD0E0AE";
layerId = "E455E69D-BE6A-45A5-83DD-A3E80B1F1F08";
name = "24 juin 25 à 10:54";
shapes = (
{
closed = 1;
nodes = (
(445,138,l),
(445,346,ls),
(445,472,o),
(380,512,o),
(276,512,cs),
(163,512,o),
(82,464,o),
(82,418,cs),
(82,402,o),
(92,396,o),
(104,396,cs),
(143,396,o),
(157,458,o),
(274,458,cs),
(342,458,o),
(385,435,o),
(385,345,cs),
(385,127,l),
(392,108,l)
);
},
{
closed = 1;
nodes = (
(294,-12,o),
(374,25,o),
(412,121,c),
(385,185,l),
(385,96,o),
(304,42,o),
(225,42,cs),
(156,42,o),
(130,83,o),
(130,129,cs),
(130,204,o),
(199,237,o),
(397,278,c),
(396,327,l),
(164,284,o),
(66,230,o),
(66,124,cs),
(66,44,o),
(122,-12,o),
(217,-12,cs)
);
},
{
pos = (320,0);
ref = e;
}
);
width = 870;
},
{
associatedMasterId = "83B83716-1CD1-47ED-B715-8773FED73F88";
layerId = "1EE50057-B332-4157-BD42-F657E4ADA3BE";
name = "24 juin 25 à 10:54";
shapes = (
{
closed = 1;
nodes = (
(560,181,l),
(560,326,ls),
(560,472,o),
(432,510,o),
(294,510,cs),
(173,510,o),
(10,493,o),
(10,382,cs),
(10,330,o),
(46,305,o),
(96,305,cs),
(168,305,o),
(225,356,o),
(301,356,cs),
(336,356,o),
(344,345,o),
(344,331,cs),
(344,143,l),
(348,101,l)
);
},
{
closed = 1;
nodes = (
(293,-12,o),
(369,34,o),
(414,112,c),
(344,211,l),
(344,171,o),
(320,142,o),
(281,142,cs),
(261,142,o),
(252,150,o),
(252,163,cs),
(252,181,o),
(269,194,o),
(355,212,c),
(357,335,l),
(120,304,o),
(16,253,o),
(16,134,cs),
(16,45,o),
(74,-12,o),
(190,-12,cs)
);
},
{
pos = (332,0);
ref = e;
}
);
width = 906;
}
);
metricLeft = "=a";
metricRight = "=e";
unicode = 230;
},
{
glyphname = b;
lastChange = "2025-06-24 10:57:08 +0000";
layers = (
{
layerId = "D8D2F0D2-8948-448B-99CD-378CDFD0E0AE";
shapes = (
{
closed = 1;
nodes = (
(160,180,l),
(160,720,l),
(100,720,l),
(100,219,l)
);
},
{
closed = 1;
nodes = (
(160,295,l),
(160,406,o),
(239,454,o),
(316,454,cs),
(392,454,o),
(498,407,o),
(498,250,cs),
(498,114,o),
(418,44,o),
(326,44,cs),
(246,44,o),
(160,98,o),
(160,219,c),
(100,219,l),
(100,82,o),
(183,-12,o),
(325,-12,cs),
(481,-12,o),
(562,99,o),
(562,250,cs),
(562,438,o),
(438,510,o),
(333,510,cs),
(255,510,o),
(174,472,o),
(136,374,c)
);
}
);
width = 628;
},
{
layerId = "83B83716-1CD1-47ED-B715-8773FED73F88";
shapes = (
{
closed = 1;
nodes = (
(244,190,l),
(244,720,l),
(28,720,l),
(28,240,l)
);
},
{
closed = 1;
nodes = (
(244,254,l),
(244,306,o),
(271,323,o),
(297,323,cs),
(322,323,o),
(354,307,o),
(354,246,cs),
(354,189,o),
(326,167,o),
(296,167,cs),
(267,167,o),
(244,188,o),
(244,234,c),
(28,240,l),
(28,76,o),
(124,-12,o),
(295,-12,cs),
(492,-12,o),
(582,99,o),
(582,252,cs),
(582,416,o),
(485,508,o),
(378,508,cs),
(310,508,o),
(252,472,o),
(224,394,c)
);
}
);
width = 598;
},
{
associatedMasterId = "83B83716-1CD1-47ED-B715-8773FED73F88";
layerId = "DACD604C-917F-4D52-9F54-389FDE2B09F7";
name = "17 juin 25 à 11:25";
shapes = (
{
closed = 1;
nodes = (
(244,190,l),
(244,720,l),
(28,720,l),
(28,230,l)
);
},
{
closed = 1;
nodes = (
(244,264,l),
(244,306,o),
(271,323,o),
(297,323,cs),
(322,323,o),
(354,307,o),
(354,246,cs),
(354,189,o),
(326,167,o),
(296,167,cs),
(267,167,o),
(244,188,o),
(244,224,c),
(28,230,l),
(28,86,o),
(106,-12,o),
(296,-12,cs),
(488,-12,o),
(582,89,o),
(582,250,cs),
(582,416,o),
(485,508,o),
(378,508,cs),
(310,508,o),
(252,472,o),
(224,394,c)
);
}
);
width = 598;
},
{
associatedMasterId = "D8D2F0D2-8948-448B-99CD-378CDFD0E0AE";
layerId = "0650345C-DE5B-4670-877A-749626198E95";
name = "17 juin 25 à 11:27";
shapes = (
{
closed = 1;
nodes = (
(160,170,l),
(160,720,l),
(100,720,l),
(100,205,l)
);
},
{
closed = 1;
nodes = (
(160,315,l),
(160,406,o),
(239,454,o),
(316,454,cs),
(392,454,o),
(498,407,o),
(498,247,cs),
(498,107,o),
(418,44,o),
(323,44,cs),
(247,44,o),
(160,84,o),
(160,205,c),
(100,205,l),
(100,68,o),
(184,-12,o),
(323,-12,cs),
(482,-12,o),
(562,92,o),
(562,247,cs),
(562,438,o),
(438,510,o),
(333,510,cs),
(255,510,o),
(174,472,o),
(136,374,c)
);
}
);
width = 628;
},
{
associatedMasterId = "83B83716-1CD1-47ED-B715-8773FED73F88";
layerId = "97B92615-0F71-4DBF-8688-09A6A70E6BBA";
name = "18 juin 25 à 16:22";
shapes = (
{
closed = 1;
nodes = (
(244,0,l),
(244,720,l),
(28,720,l),
(28,0,l)
);
},
{
pos = (88,0);
ref = _panse;
}
);
width = 598;
},
{
associatedMasterId = "D8D2F0D2-8948-448B-99CD-378CDFD0E0AE";
layerId = "1B42DE2E-78BF-4683-AEBC-FCAE9E8D579C";
name = "18 juin 25 à 19:21";
shapes = (
{
closed = 1;
nodes = (
(160,0,l),
(160,720,l),
(100,720,l),
(100,0,l)
);
},
{
ref = _panse;
}
);
width = 628;
}
);
metricLeft = "=n";
metricRight = "=o";
unicode = 98;
},
{
glyphname = c;
lastChange = "2025-07-01 12:26:58 +0000";
layers = (
{
anchors = (
{
name = bottom;
pos = (324,0);
},
{
name = top;
pos = (294,500);
}
);
layerId = "D8D2F0D2-8948-448B-99CD-378CDFD0E0AE";
shapes = (
{
closed = 1;
nodes = (
(474,458,o),
(404,512,o),
(305,512,cs),
(164,512,o),
(66,404,o),
(66,244,cs),
(66,87,o),
(159,-12,o),
(310,-12,cs),
(383,-12,o),
(430,11,o),
(466,35,c),
(466,89,l),
(413,58,o),
(364,44,o),
(313,44,cs),
(198,44,o),
(130,118,o),
(130,248,cs),
(130,376,o),
(196,460,o),
(304,460,cs),
(408,460,o),
(409,381,o),
(449,381,cs),
(463,381,o),
(474,391,o),
(474,410,cs)
);
}
);
width = 508;
},
{
.lastUpdate = 773065618.243;
anchors = (
{
name = bottom;
pos = (266,0);
},
{
name = top;
pos = (301,500);
}
);
layerId = "83B83716-1CD1-47ED-B715-8773FED73F88";
shapes = (
{
closed = 1;
nodes = (
(530,476,o),
(423,512,o),
(315,512,cs),
(133,512,o),
(16,408,o),
(16,239,cs),
(16,79,o),
(123,-12,o),
(309,-12,cs),
(398,-12,o),
(459,9,o),
(504,35,c),
(504,205,l),
(449,185,o),
(402,176,o),
(362,176,cs),
(273,176,o),
(252,219,o),
(252,263,cs),
(252,308,o),
(274,334,o),
(303,334,cs),
(348,334,o),
(358,270,o),
(434,270,cs),
(490,270,o),
(530,303,o),
(530,367,cs)
);
}
);
width = 536;
},
{
associatedMasterId = "D8D2F0D2-8948-448B-99CD-378CDFD0E0AE";
layerId = "4F3882DD-CD2B-4CE6-8882-E1F2A09F659C";
name = "Sep 11 21, 15:52";
shapes = (
{
closed = 1;
nodes = (
(428,463,o),
(363,510,o),
(270,510,cs),
(121,510,o),
(46,388,o),
(46,237,cs),
(46,52,o),
(154,-10,o),
(265,-10,cs),
(376,-10,o),
(436,52,o),
(458,122,c),
(407,139,l),
(388,89,o),
(347,42,o),
(266,42,cs),
(188,42,o),
(106,85,o),
(106,243,cs),
(106,387,o),
(175,458,o),
(268,458,cs),
(322,458,o),
(380,433,o),
(399,349,c),
(454,368,l)
);
}
);
width = 518;
},
{
associatedMasterId = "83B83716-1CD1-47ED-B715-8773FED73F88";
layerId = "2CBB3263-9784-4C48-AE01-DCE386C751C9";
name = "5 juin 25 à 12:35";
shapes = (
{
closed = 1;
nodes = (
(550,470,o),
(433,510,o),
(314,510,cs),
(133,510,o),
(22,408,o),
(22,239,cs),
(22,79,o),
(123,-10,o),
(306,-10,cs),
(446,-10,o),
(552,38,o),
(552,129,cs),
(552,240,o),
(394,247,o),
(356,207,cs),
(338,188,o),
(326,176,o),
(304,176,cs),
(273,176,o),
(258,199,o),
(258,248,cs),
(258,298,o),
(274,324,o),
(305,324,cs),
(321,324,o),
(333,317,o),
(343,301,cs),
(391,224,o),
(550,246,o),
(550,368,cs)
);
}
);
width = 556;
},
{
associatedMasterId = "D8D2F0D2-8948-448B-99CD-378CDFD0E0AE";
layerId = "13DA5124-1501-4532-BF0D-AFA655CB172B";
name = "5 juin 25 à 12:40";
shapes = (
{
closed = 1;
nodes = (
(452,448,o),
(384,510,o),
(280,510,cs),
(144,510,o),
(56,404,o),
(56,240,cs),
(56,83,o),
(137,-10,o),
(273,-10,cs),
(391,-10,o),
(455,53,o),
(455,99,cs),
(455,128,o),
(429,133,o),
(405,100,cs),
(376,61,o),
(328,42,o),
(274,42,cs),
(174,42,o),
(116,114,o),
(116,242,cs),
(116,376,o),
(180,458,o),
(280,458,cs),
(331,458,o),
(377,436,o),
(402,384,cs),
(418,349,o),
(452,354,o),
(452,393,cs)
);
}
);
width = 528;
}
);
metricLeft = "=o";
unicode = 99;
},
{
glyphname = d;
lastChange = "2025-06-25 15:04:29 +0000";
layers = (
{
.lastUpdate = 773061708.214;
anchors = (
{
name = bottom;
pos = (314,0);
},
{
name = caron;
pos = (528,500);
},
{
name = center;
pos = (448,576);
},
{
name = top;
pos = (314,500);
}
);
layerId = "D8D2F0D2-8948-448B-99CD-378CDFD0E0AE";
shapes = (
{
closed = 1;
nodes = (
(468,720,l),
(468,0,l),
(528,0,l),
(528,720,l)
);
},
{
angle = 180;
pos = (628,500);
ref = _panse;
}
);
width = 628;
},
{
.lastUpdate = 773075730.721;
anchors = (
{
name = bottom;
pos = (299,0);
},
{
name = caron;
pos = (570,500);
},
{
name = center;
pos = (418,576);
},
{
name = top;
pos = (299,500);
}
);
layerId = "83B83716-1CD1-47ED-B715-8773FED73F88";
shapes = (
{
closed = 1;
nodes = (
(354,720,l),
(354,0,l),
(570,0,l),
(570,720,l)
);
},
{
angle = 180;
pos = (510,500);
ref = _panse;
}
);
width = 598;
}
);
metricLeft = "=o";
metricRight = "=|n";
unicode = 100;
},
{
glyphname = eth;
lastChange = "2025-06-25 15:20:27 +0000";
layers = (
{
layerId = "D8D2F0D2-8948-448B-99CD-378CDFD0E0AE";
shapes = (
{
closed = 1;
nodes = (
(66,77,o),
(165,-12,o),
(303,-12,cs),
(453,-12,o),
(546,87,o),
(546,257,c),
(479,375,l),
(441,436,o),
(370,460,o),
(302,460,cs),
(166,460,o),
(66,369,o),
(66,222,cs)
);
},
{
closed = 1;
nodes = (
(128,339,o),
(205,408,o),
(309,408,cs),
(410,408,o),
(484,342,o),
(484,227,cs),
(484,109,o),
(407,40,o),
(303,40,cs),
(202,40,o),
(128,106,o),
(128,221,cs)
);
},
{
closed = 1;
nodes = (
(376,607,o),
(488,441,o),
(488,277,c),
(546,257,l),
(546,461,o),
(414,632,o),
(226,720,c),
(124,720,l)
);
},
{
closed = 1;
nodes = (
(124,521,l),
(530,665,l),
(530,720,l),
(124,576,l)
);
}
);
width = 612;
},
{
layerId = "83B83716-1CD1-47ED-B715-8773FED73F88";
shapes = (
{
closed = 1;
nodes = (
(16,77,o),
(131,-12,o),
(306,-12,cs),
(490,-12,o),
(594,84,o),
(594,279,c),
(387,381,l),
(367,429,o),
(320,476,o),
(234,476,cs),
(101,476,o),
(16,387,o),
(16,244,cs)
);
},
{
closed = 1;
nodes = (
(244,276,o),
(270,300,o),
(306,300,cs),
(341,300,o),
(366,277,o),
(366,233,cs),
(366,187,o),
(340,164,o),
(304,164,cs),
(269,164,o),
(244,186,o),
(244,231,cs)
);
},
{
closed = 1;
nodes = (
(301,584,o),
(385,434,o),
(385,284,c),
(594,279,l),
(594,448,o),
(517,628,o),
(384,720,c),
(75,720,l)
);
},
{
closed = 1;
nodes = (
(75,477,l),
(571,597,l),
(571,720,l),
(75,600,l)
);
}
);
width = 610;
}
);
metricLeft = "=o";
metricRight = "=o";
unicode = 240;
},
{
glyphname = e;
lastChange = "2025-07-01 11:43:10 +0000";
layers = (
{
anchors = (
{
name = bottom;
pos = (285,0);
},
{
name = ogonek;
pos = (394,0);
},
{
name = top;
pos = (285,500);
}
);
layerId = "D8D2F0D2-8948-448B-99CD-378CDFD0E0AE";
shapes = (
{
closed = 1;
nodes = (
(386,-12,o),
(439,11,o),
(478,35,c),
(478,89,l),
(421,58,o),
(365,44,o),
(313,44,cs),
(194,44,o),
(128,118,o),
(128,245,cs),
(128,376,o),
(198,458,o),
(300,458,cs),
(388,458,o),
(442,397,o),
(442,302,c),
(99,302,l),
(99,250,l),
(445,250,ls),
(491,250,o),
(500,260,o),
(500,302,cs),
(500,422,o),
(429,510,o),
(303,510,cs),
(164,510,o),
(66,404,o),
(66,240,cs),
(66,83,o),
(157,-12,o),
(310,-12,cs)
);
}
);
width = 550;
},
{
associatedMasterId = "D8D2F0D2-8948-448B-99CD-378CDFD0E0AE";
layerId = "55CBF1DD-922D-4222-B261-0AAB4C75428E";
name = "Sep 11 21, 15:53";
shapes = (
{
closed = 1;
nodes = (
(384,89,o),
(343,42,o),
(262,42,cs),
(184,42,o),
(102,85,o),
(102,243,cs),
(102,387,o),
(171,458,o),
(264,458,cs),
(330,458,o),
(400,421,o),
(400,292,c),
(461,242,l),
(469,421,o),
(394,510,o),
(266,510,cs),
(117,510,o),
(42,388,o),
(42,237,cs),
(42,52,o),
(150,-10,o),
(261,-10,cs),
(372,-10,o),
(432,52,o),
(454,122,c),
(403,139,l)
);
},
{
closed = 1;
nodes = (
(75,242,l),
(461,242,l),
(421,292,l),
(75,292,l)
);
}
);
width = 516;
},
{
associatedMasterId = "D8D2F0D2-8948-448B-99CD-378CDFD0E0AE";
layerId = "1DD948A4-6013-4B0D-A909-9A51D4833915";
name = "5 juin 25 à 12:40";
shapes = (
{
closed = 1;
nodes = (
(398,-10,o),
(457,40,o),
(457,75,cs),
(457,97,o),
(434,101,o),
(413,83,cs),
(383,57,o),
(341,42,o),
(290,42,cs),
(180,42,o),
(116,114,o),
(116,245,cs),
(116,376,o),
(178,458,o),
(278,458,cs),
(364,458,o),
(414,397,o),
(414,302,c),
(475,252,l),
(483,414,o),
(412,510,o),
(281,510,cs),
(144,510,o),
(56,404,o),
(56,240,cs),
(56,83,o),
(140,-10,o),
(288,-10,cs)
);
},
{
closed = 1;
nodes = (
(475,252,l),
(435,302,l),
(89,302,l),
(89,252,l)
);
}
);
width = 530;
},
{
associatedMasterId = "83B83716-1CD1-47ED-B715-8773FED73F88";
layerId = "49AD3F3A-8E21-4B81-9D66-388C5530FD1E";
name = "5 juin 25 à 12:43";
shapes = (
{
closed = 1;
nodes = (
(448,-10,o),
(548,34,o),
(548,116,cs),
(548,171,o),
(503,194,o),
(430,169,cs),
(404,160,o),
(373,152,o),
(336,152,cs),
(258,152,o),
(242,186,o),
(242,260,cs),
(242,334,o),
(257,369,o),
(300,369,cs),
(327,369,o),
(343,355,o),
(349,324,c),
(95,324,l),
(95,198,l),
(563,198,l),
(584,379,o),
(497,510,o),
(296,510,cs),
(118,510,o),
(16,408,o),
(16,249,cs),
(16,79,o),
(130,-10,o),
(306,-10,cs)
);
}
);
width = 574;
},
{
.lastUpdate = 773062990.175;
anchors = (
{
name = bottom;
pos = (287,0);
},
{
name = ogonek;
pos = (483,0);
},
{
name = top;
pos = (297,500);
}
);
layerId = "83B83716-1CD1-47ED-B715-8773FED73F88";
name = Black;
shapes = (
{
closed = 1;
nodes = (
(409,-12,o),
(491,7,o),
(544,39,c),
(544,179,l),
(480,154,o),
(421,140,o),
(355,140,cs),
(248,140,o),
(228,176,o),
(228,254,cs),
(228,333,o),
(248,360,o),
(297,360,cs),
(333,360,o),
(348,345,o),
(350,318,c),
(95,318,l),
(95,176,l),
(373,176,ls),
(509,176,o),
(566,227,o),
(566,312,cs),
(566,416,o),
(478,512,o),
(302,512,cs),
(118,512,o),
(16,408,o),
(16,249,cs),
(16,79,o),
(130,-12,o),
(321,-12,cs)
);
}
);
width = 574;
},
{
associatedMasterId = "D8D2F0D2-8948-448B-99CD-378CDFD0E0AE";
layerId = "67D4B5DC-9AC5-4997-B9C7-8B15912EDE9E";
name = "6 juin 25 à 17:29";
shapes = (
{
closed = 1;
nodes = (
(366,-10,o),
(415,11,o),
(446,35,c),
(446,89,l),
(394,56,o),
(349,42,o),
(297,42,cs),
(180,42,o),
(116,114,o),
(116,245,cs),
(116,376,o),
(178,458,o),
(276,458,cs),
(335,458,o),
(374,429,o),
(374,384,cs),
(374,324,o),
(303,283,o),
(89,216,c),
(89,166,l),
(344,246,o),
(432,295,o),
(432,384,cs),
(432,455,o),
(376,510,o),
(279,510,cs),
(144,510,o),
(56,404,o),
(56,240,cs),
(56,83,o),
(140,-10,o),
(293,-10,cs)
);
}
);
width = 530;
},
{
associatedMasterId = "83B83716-1CD1-47ED-B715-8773FED73F88";
layerId = "6DBB2F8F-F205-421F-A736-5F2D25AE29CC";
name = "6 juin 25 à 17:32";
shapes = (
{
closed = 1;
nodes = (
(405,-10,o),
(484,7,o),
(537,41,c),
(537,189,l),
(474,160,o),
(413,152,o),
(361,152,cs),
(258,152,o),
(242,186,o),
(242,260,cs),
(242,334,o),
(264,369,o),
(310,369,cs),
(332,369,o),
(345,361,o),
(345,347,cs),
(345,311,o),
(257,305,o),
(95,286,c),
(95,158,l),
(242,168,o),
(566,172,o),
(566,340,cs),
(566,426,o),
(478,510,o),
(302,510,cs),
(118,510,o),
(16,408,o),
(16,249,cs),
(16,79,o),
(130,-10,o),
(321,-10,cs)
);
}
);
width = 574;
}
);
metricLeft = "=o";
unicode = 101;
},
{
glyphname = f;
lastChange = "2025-06-27 08:44:04 +0000";
layers = (
{
associatedMasterId = "83B83716-1CD1-47ED-B715-8773FED73F88";
layerId = "C93238E8-BFC3-43BE-BC26-8CE0D935A520";
name = "5 juin 25 à 12:51";
shapes = (
{
closed = 1;
nodes = (
(10,330,l),
(327,330,ls),
(414,330,o),
(414,500,o),
(327,500,cs),
(10,500,l)
);
},
{
closed = 1;
nodes = (
(278,0,l),
(278,516,ls),
(278,548,o),
(290,561,o),
(321,561,cs),
(375,561,o),
(392,587,o),
(392,632,cs),
(392,711,o),
(338,749,o),
(259,749,cs),
(153,749,o),
(62,679,o),
(62,520,cs),
(62,0,l)
);
}
);
width = 376;
},
{
associatedMasterId = "83B83716-1CD1-47ED-B715-8773FED73F88";
layerId = "CE1D1A3F-38DD-452B-B19F-4F4C40C3E7E5";
name = "10 juin 25 à 10:14";
shapes = (
{
closed = 1;
nodes = (
(10,330,l),
(376,330,l),
(376,500,l),
(10,500,l)
);
},
{
closed = 1;
nodes = (
(278,0,l),
(278,516,ls),
(278,548,o),
(290,561,o),
(321,561,cs),
(375,561,o),
(392,587,o),
(392,632,cs),
(392,711,o),
(338,749,o),
(259,749,cs),
(153,749,o),
(62,679,o),
(62,520,cs),
(62,0,l)
);
}
);
width = 386;
},
{
associatedMasterId = "D8D2F0D2-8948-448B-99CD-378CDFD0E0AE";
layerId = "F21B4E4C-ABEE-47C6-A5F7-38048B1CC6B5";
name = "13 juin 25 à 12:22";
shapes = (
{
closed = 1;
nodes = (
(180,0,l),
(180,600,ls),
(180,666,o),
(214,691,o),
(263,691,cs),
(289,691,o),
(312,684,o),
(327,684,cs),
(342,684,o),
(350,691,o),
(350,705,cs),
(350,731,o),
(321,746,o),
(272,746,cs),
(179,746,o),
(120,693,o),
(120,600,cs),
(120,0,l)
);
},
{
closed = 1;
nodes = (
(340,446,l),
(340,500,l),
(30,500,l),
(30,446,l)
);
}
);
width = 360;
},
{
layerId = "D8D2F0D2-8948-448B-99CD-378CDFD0E0AE";
name = Thin;
shapes = (
{
closed = 1;
nodes = (
(170,0,l),
(170,576,ls),
(170,652,o),
(214,680,o),
(260,680,cs),
(291,680,o),
(309,667,o),
(326,667,cs),
(341,667,o),
(350,677,o),
(350,691,cs),
(350,716,o),
(321,732,o),
(269,732,cs),
(176,732,o),
(110,679,o),
(110,576,cs),
(110,0,l)
);
},
{
closed = 1;
nodes = (
(110,446,l),
(110,512,l),
(61,498,ls),
(37,491,o),
(30,480,o),
(30,469,cs),
(30,457,o),
(38,446,o),
(61,446,cs)
);
},
{
closed = 1;
nodes = (
(340,446,l),
(340,500,l),
(120,500,l),
(120,446,l)
);
}
);
width = 362;
},
{
associatedMasterId = "83B83716-1CD1-47ED-B715-8773FED73F88";
layerId = "84E5B337-EF0C-4F8E-90AD-558E0DB4A194";
name = "13 juin 25 à 12:22";
shapes = (
{
closed = 1;
nodes = (
(294,0,l),
(294,522,ls),
(294,548,o),
(300,557,o),
(320,557,cs),
(325,557,o),
(330,557,o),
(335,557,cs),
(384,557,o),
(414,587,o),
(414,638,cs),
(414,711,o),
(354,752,o),
(276,752,cs),
(169,752,o),
(78,679,o),
(78,520,cs),
(78,0,l)
);
},
{
closed = 1;
nodes = (
(404,330,l),
(404,500,l),
(18,500,l),
(18,330,l)
);
}
);
width = 402;
},
{
layerId = "83B83716-1CD1-47ED-B715-8773FED73F88";
name = Black;
shapes = (
{
closed = 1;
nodes = (
(304,0,l),
(304,513,ls),
(304,533,o),
(310,542,o),
(325,542,cs),
(335,542,o),
(346,538,o),
(361,538,cs),
(402,538,o),
(428,568,o),
(428,619,cs),
(428,693,o),
(374,732,o),
(288,732,cs),
(179,732,o),
(88,669,o),
(88,522,cs),
(88,0,l)
);
},
{
closed = 1;
nodes = (
(88,310,l),
(88,507,l),
(83,505,ls),
(37,487,o),
(2,453,o),
(2,399,cs),
(2,340,o),
(42,310,o),
(86,310,cs)
);
},
{
closed = 1;
nodes = (
(414,310,l),
(414,500,l),
(128,500,l),
(128,310,l)
);
}
);
width = 434;
},
{
associatedMasterId = "83B83716-1CD1-47ED-B715-8773FED73F88";
layerId = "E765CCC4-2295-4A95-AD77-626EA7FF0B2B";
name = "24 juin 25 à 12:09";
shapes = (
{
closed = 1;
nodes = (
(304,0,l),
(304,513,ls),
(304,533,o),
(311,542,o),
(326,542,cs),
(336,542,o),
(349,538,o),
(364,538,cs),
(406,538,o),
(434,569,o),
(434,619,cs),
(434,693,o),
(374,732,o),
(288,732,cs),
(179,732,o),
(88,669,o),
(88,522,cs),
(88,0,l)
);
},
{
closed = 1;
nodes = (
(88,280,l),
(88,467,l),
(83,465,ls),
(37,447,o),
(6,413,o),
(6,364,cs),
(6,310,o),
(42,280,o),
(86,280,cs)
);
},
{
closed = 1;
nodes = (
(414,270,l),
(414,460,l),
(128,460,l),
(128,270,l)
);
}
);
width = 434;
}
);
unicode = 102;
},
{
glyphname = g;
lastChange = "2025-07-01 12:36:42 +0000";
layers = (
{
.lastUpdate = 773066109.728;
anchors = (
{
name = bottom;
pos = (334,-200);
},
{
name = top;
pos = (309,500);
}
);
background = {
shapes = (
{
closed = 1;
nodes = (
(359,500,l),
(359,-200,l),
(575,-200,l),
(575,500,l)
);
},
{
angle = 180;
pos = (515,500);
ref = _panse;
}
);
};
layerId = "83B83716-1CD1-47ED-B715-8773FED73F88";
shapes = (
{
closed = 1;
nodes = (
(540,-212,o),
(638,-148,o),
(638,-10,cs),
(638,112,o),
(562,172,o),
(397,172,cs),
(267,172,ls),
(240,172,o),
(224,176,o),
(224,187,cs),
(224,200,o),
(246,200,o),
(298,200,c),
(156,234,l),
(75,230,o),
(16,180,o),
(16,102,cs),
(16,24,o),
(72,-20,o),
(207,-20,cs),
(362,-20,ls),
(406,-20,o),
(416,-30,o),
(416,-42,cs),
(416,-57,o),
(400,-66,o),
(364,-66,cs),
(290,-66,o),
(191,-29,o),
(122,-29,cs),
(53,-29,o),
(34,-67,o),
(34,-104,cs),
(34,-179,o),
(113,-212,o),
(289,-212,cs)
);
},
{
closed = 1;
nodes = (
(492,200,o),
(576,238,o),
(576,335,cs),
(576,401,o),
(536,435,o),
(500,448,c),
(317,512,l),
(123,512,o),
(18,467,o),
(18,353,cs),
(18,244,o),
(113,200,o),
(298,200,cs)
);
},
{
closed = 1;
nodes = (
(281,308,o),
(266,326,o),
(266,356,cs),
(266,386,o),
(282,404,o),
(308,404,cs),
(334,404,o),
(348,386,o),
(348,357,cs),
(348,326,o),
(331,308,o),
(306,308,cs)
);
},
{
closed = 1;
nodes = (
(656,512,l),
(571,486,o),
(453,512,o),
(317,512,c),
(483,370,l),
(541,330,o),
(598,300,o),
(656,320,c)
);
}
);
width = 666;
},
{
associatedMasterId = "83B83716-1CD1-47ED-B715-8773FED73F88";
background = {
shapes = (
{
closed = 1;
nodes = (
(352,500,l),
(352,-200,l),
(568,-200,l),
(568,500,l)
);
},
{
angle = 180;
pos = (508,500);
ref = _panse;
}
);
};
layerId = "5B84672D-9521-4257-AB08-A6C31E28F3A9";
name = "13 juin 25 à 12:49";
shapes = (
{
closed = 1;
nodes = (
(148,-21,o),
(111,-21,cs),
(65,-21,o),
(37,-52,o),
(37,-99,cs),
(37,-170,o),
(102,-210,o),
(250,-210,cs),
(415,-210,o),
(568,-154,o),
(568,41,cs),
(568,480,l),
(352,500,l),
(352,51,ls),
(352,-11,o),
(313,-40,o),
(234,-40,cs),
(170,-40,o)
);
},
{
closed = 1;
nodes = (
(352,237,l),
(352,196,o),
(327,177,o),
(299,177,cs),
(267,177,o),
(244,201,o),
(244,243,cs),
(244,298,o),
(285,325,o),
(328,325,cs),
(354,325,o),
(382,316,o),
(410,297,c),
(568,480,l),
(490,498,o),
(409,508,o),
(338,508,cs),
(108,508,o),
(16,401,o),
(16,234,cs),
(16,64,o),
(123,-8,o),
(224,-8,cs),
(296,-8,o),
(344,28,o),
(372,106,c)
);
}
);
width = 592;
},
{
associatedMasterId = "D8D2F0D2-8948-448B-99CD-378CDFD0E0AE";
layerId = "910B8762-DF4F-41E2-B2FC-9F357CAFE1B9";
name = "13 juin 25 à 12:50";
shapes = (
{
closed = 1;
nodes = (
(155,-116,o),
(120,-116,cs),
(101,-116,o),
(95,-129,o),
(95,-140,cs),
(95,-176,o),
(160,-210,o),
(277,-210,cs),
(433,-210,o),
(520,-150,o),
(520,-5,cs),
(520,478,l),
(460,490,l),
(460,-5,ls),
(460,-125,o),
(370,-156,o),
(282,-156,cs),
(182,-156,o)
);
},
{
closed = 1;
nodes = (
(460,185,l),
(460,94,o),
(381,46,o),
(304,46,cs),
(228,46,o),
(130,93,o),
(130,240,cs),
(130,393,o),
(232,452,o),
(354,452,cs),
(393,452,o),
(454,445,o),
(504,424,c),
(520,478,l),
(455,500,o),
(386,504,o),
(353,504,cs),
(174,504,o),
(66,398,o),
(66,237,cs),
(66,62,o),
(182,-10,o),
(288,-10,cs),
(365,-10,o),
(446,28,o),
(484,136,c)
);
}
);
width = 620;
},
{
associatedMasterId = "83B83716-1CD1-47ED-B715-8773FED73F88";
background = {
shapes = (
{
closed = 1;
nodes = (
(354,500,l),
(354,-200,l),
(570,-200,l),
(570,500,l)
);
},
{
angle = 180;
pos = (510,500);
ref = _panse;
}
);
};
layerId = "73C72694-57B4-41CE-B044-847E56D562EA";
name = "18 juin 25 à 16:48";
shapes = (
{
closed = 1;
nodes = (
(172,-40,o),
(150,-21,o),
(113,-21,cs),
(67,-21,o),
(39,-52,o),
(39,-99,cs),
(39,-170,o),
(104,-210,o),
(266,-210,cs),
(457,-210,o),
(570,-154,o),
(570,41,cs),
(570,500,l),
(354,500,l),
(354,51,ls),
(354,-11,o),
(315,-40,o),
(236,-40,cs)
);
},
{
angle = 180;
pos = (510,500);
ref = _panse;
}
);
width = 598;
},
{
associatedMasterId = "83B83716-1CD1-47ED-B715-8773FED73F88";
background = {
shapes = (
{
closed = 1;
nodes = (
(357,500,l),
(357,-200,l),
(573,-200,l),
(573,500,l)
);
},
{
angle = 180;
pos = (513,500);
ref = _panse;
}
);
};
layerId = "178B8C16-04C1-4D2B-A2BD-252CDFF6AC85";
name = "18 juin 25 à 16:51";
shapes = (
{
closed = 1;
nodes = (
(19,249,o),
(114,212,o),
(299,212,cs),
(493,212,o),
(597,253,o),
(597,367,cs),
(597,477,o),
(503,512,o),
(318,512,cs),
(124,512,o),
(19,472,o),
(19,358,cs)
);
},
{
closed = 1;
nodes = (
(269,395,o),
(283,412,o),
(309,412,cs),
(335,412,o),
(347,396,o),
(347,363,cs),
(347,329,o),
(332,312,o),
(307,312,cs),
(282,312,o),
(269,328,o),
(269,362,cs)
);
},
{
closed = 1;
nodes = (
(463,451,l),
(463,506,o),
(465,540,o),
(488,540,cs),
(503,540,o),
(526,526,o),
(555,526,cs),
(588,526,o),
(621,544,o),
(621,598,cs),
(621,663,o),
(572,700,o),
(503,700,cs),
(411,700,o),
(332,636,o),
(342,468,c)
);
},
{
closed = 1;
nodes = (
(76,226,o),
(21,190,o),
(21,115,cs),
(21,41,o),
(73,-10,o),
(208,-10,cs),
(354,-10,ls),
(388,-10,o),
(397,-21,o),
(397,-31,cs),
(397,-48,o),
(372,-59,o),
(296,-59,cs),
(194,-59,o),
(192,-41,o),
(215,1,c),
(120,19,l),
(72,4,o),
(16,-35,o),
(16,-100,cs),
(16,-192,o),
(127,-212,o),
(269,-212,cs),
(531,-212,o),
(629,-138,o),
(629,6,cs),
(629,106,o),
(582,182,o),
(388,182,cs),
(268,182,ls),
(228,182,o),
(212,194,o),
(238,233,c),
(137,240,l)
);
}
);
width = 629;
},
{
associatedMasterId = "D8D2F0D2-8948-448B-99CD-378CDFD0E0AE";
layerId = "7BFDC844-DCC6-4E5B-B3C3-0C285F798DE9";
name = "18 juin 25 à 19:25";
shapes = (
{
closed = 1;
nodes = (
(190,-156,o),
(165,-114,o),
(128,-114,cs),
(109,-114,o),
(102,-126,o),
(102,-138,cs),
(102,-176,o),
(176,-212,o),
(295,-212,cs),
(449,-212,o),
(528,-150,o),
(528,-3,cs),
(528,500,l),
(468,500,l),
(468,-5,ls),
(468,-125,o),
(388,-156,o),
(295,-156,cs)
);
},
{
angle = 180;
pos = (628,500);
ref = _panse;
}
);
width = 628;
},
{
anchors = (
{
name = bottom;
pos = (289,-200);
},
{
name = top;
pos = (289,500);
}
);
associatedMasterId = "D8D2F0D2-8948-448B-99CD-378CDFD0E0AE";
layerId = "46587DE2-43D5-400B-97C6-C89C909D1D4E";
name = "27 juin 25 à 16:53";
shapes = (
{
closed = 1;
nodes = (
(461,-212,o),
(540,-158,o),
(540,-58,cs),
(540,31,o),
(476,68,o),
(377,68,cs),
(207,68,ls),
(146,68,o),
(123,81,o),
(123,116,cs),
(123,151,o),
(146,173,o),
(175,202,c),
(150,224,l),
(90,190,o),
(66,149,o),
(66,105,cs),
(66,59,o),
(91,12,o),
(193,12,cs),
(364,12,ls),
(455,12,o),
(482,-17,o),
(482,-60,cs),
(482,-131,o),
(406,-160,o),
(293,-160,cs),
(143,-160,o),
(137,-109,o),
(100,-109,cs),
(81,-109,o),
(73,-122,o),
(73,-136,cs),
(73,-182,o),
(161,-212,o),
(290,-212,cs)
);
},
{
closed = 1;
nodes = (
(395,182,o),
(480,248,o),
(480,348,cs),
(480,400,o),
(457,446,o),
(399,474,c),
(282,512,l),
(163,512,o),
(79,445,o),
(79,343,cs),
(79,243,o),
(159,182,o),
(274,182,cs)
);
},
{
closed = 1;
nodes = (
(194,234,o),
(137,272,o),
(137,345,cs),
(137,420,o),
(197,460,o),
(281,460,cs),
(364,460,o),
(421,422,o),
(421,349,cs),
(421,274,o),
(361,234,o),
(276,234,cs)
);
},
{
closed = 1;
nodes = (
(557,512,l),
(489,491,o),
(374,512,o),
(282,512,c),
(387,467,l),
(464,450,o),
(529,447,o),
(557,456,c)
);
}
);
width = 577;
},
{
.lastUpdate = 773066202.037;
anchors = (
{
name = bottom;
pos = (287,-200);
},
{
name = top;
pos = (287,500);
}
);
layerId = "D8D2F0D2-8948-448B-99CD-378CDFD0E0AE";
name = Thin;
shapes = (
{
closed = 1;
nodes = (
(452,-212,o),
(531,-158,o),
(531,-58,cs),
(531,31,o),
(467,68,o),
(368,68,cs),
(208,68,ls),
(147,68,o),
(123,81,o),
(123,113,cs),
(123,145,o),
(147,182,o),
(271,182,c),
(181,207,l),
(106,196,o),
(66,162,o),
(66,105,cs),
(66,59,o),
(92,12,o),
(194,12,cs),
(355,12,ls),
(446,12,o),
(473,-17,o),
(473,-60,cs),
(473,-131,o),
(397,-160,o),
(290,-160,cs),
(148,-160,o),
(142,-109,o),
(105,-109,cs),
(86,-109,o),
(78,-122,o),
(78,-136,cs),
(78,-182,o),
(166,-212,o),
(289,-212,cs)
);
},
{
closed = 1;
nodes = (
(392,182,o),
(477,248,o),
(477,348,cs),
(477,400,o),
(454,446,o),
(396,474,c),
(279,512,l),
(160,512,o),
(76,445,o),
(76,343,cs),
(76,243,o),
(156,182,o),
(271,182,cs)
);
},
{
closed = 1;
nodes = (
(191,234,o),
(134,272,o),
(134,345,cs),
(134,420,o),
(194,460,o),
(278,460,cs),
(361,460,o),
(418,422,o),
(418,349,cs),
(418,274,o),
(358,234,o),
(273,234,cs)
);
},
{
closed = 1;
nodes = (
(554,512,l),
(486,491,o),
(371,512,o),
(279,512,c),
(384,467,l),
(461,450,o),
(526,447,o),
(554,456,c)
);
}
);
width = 574;
}
);
metricLeft = "=o";
unicode = 103;
},
{
glyphname = h;
lastChange = "2025-07-01 12:34:38 +0000";
layers = (
{
anchors = (
{
name = bottom;
pos = (301,0);
},
{
name = center;
pos = (180,576);
},
{
name = top;
pos = (301,720);
}
);
layerId = "D8D2F0D2-8948-448B-99CD-378CDFD0E0AE";
shapes = (
{
closed = 1;
nodes = (
(512,0,l),
(512,310,ls),
(512,451,o),
(428,510,o),
(334,510,cs),
(259,510,o),
(174,472,o),
(136,374,c),
(160,295,l),
(160,406,o),
(237,454,o),
(315,454,cs),
(387,454,o),
(452,413,o),
(452,303,cs),
(452,0,l)
);
},
{
closed = 1;
nodes = (
(160,0,l),
(160,720,l),
(100,720,l),
(100,0,l)
);
}
);
width = 602;
},
{
.lastUpdate = 773066078.211;
anchors = (
{
name = bottom;
pos = (288,0);
},
{
name = center;
pos = (180,576);
},
{
name = top;
pos = (288,720);
}
);
layerId = "83B83716-1CD1-47ED-B715-8773FED73F88";
shapes = (
{
closed = 1;
nodes = (
(560,0,l),
(560,288,ls),
(560,453,o),
(482,512,o),
(387,512,cs),
(309,512,o),
(252,472,o),
(224,394,c),
(244,241,l),
(244,284,o),
(271,308,o),
(300,308,cs),
(324,308,o),
(344,291,o),
(344,253,cs),
(344,0,l)
);
},
{
closed = 1;
nodes = (
(244,0,l),
(244,720,l),
(28,720,l),
(28,0,l)
);
}
);
width = 580;
}
);
metricLeft = "=n";
metricRight = "=n";
unicode = 104;
},
{
glyphname = idotless;
lastChange = "2025-07-01 12:41:21 +0000";
layers = (
{
.lastUpdate = 773066481.247;
anchors = (
{
name = bottom;
pos = (130,0);
},
{
name = ogonek;
pos = (113,0);
},
{
name = top;
pos = (130,500);
}
);
layerId = "D8D2F0D2-8948-448B-99CD-378CDFD0E0AE";
shapes = (
{
closed = 1;
nodes = (
(160,0,l),
(160,500,l),
(140,498,o),
(120,498,o),
(100,500,c),
(100,0,l)
);
}
);
width = 260;
},
{
anchors = (
{
name = bottom;
pos = (146,0);
},
{
name = ogonek;
pos = (198,0);
},
{
name = top;
pos = (136,500);
}
);
layerId = "83B83716-1CD1-47ED-B715-8773FED73F88";
shapes = (
{
closed = 1;
nodes = (
(244,0,l),
(244,506,l),
(172,482,o),
(100,482,o),
(28,506,c),
(28,0,l)
);
}
);
width = 272;
}
);
metricLeft = "=n";
metricRight = "=|";
unicode = 305;
},
{
glyphname = jdotless;
lastChange = "2025-07-01 12:41:31 +0000";
layers = (
{
.lastUpdate = 773066491.262;
anchors = (
{
name = top;
pos = (130,500);
}
);
layerId = "D8D2F0D2-8948-448B-99CD-378CDFD0E0AE";
shapes = (
{
closed = 1;
nodes = (
(107,-212,o),
(160,-164,o),
(160,-71,cs),
(160,500,l),
(140,498,o),
(120,498,o),
(100,500,c),
(100,-69,ls),
(100,-135,o),
(67,-160,o),
(30,-160,cs),
(3,-160,o),
(-10,-147,o),
(-28,-147,cs),
(-45,-147,o),
(-52,-159,o),
(-52,-171,cs),
(-52,-197,o),
(-19,-212,o),
(26,-212,cs)
);
}
);
width = 260;
},
{
anchors = (
{
name = top;
pos = (132,500);
}
);
layerId = "83B83716-1CD1-47ED-B715-8773FED73F88";
shapes = (
{
closed = 1;
nodes = (
(149,-212,o),
(240,-149,o),
(240,-2,cs),
(240,506,l),
(168,482,o),
(96,482,o),
(24,506,c),
(24,7,ls),
(24,-13,o),
(17,-22,o),
(2,-22,cs),
(-8,-22,o),
(-21,-18,o),
(-36,-18,cs),
(-78,-18,o),
(-104,-49,o),
(-104,-99,cs),
(-104,-173,o),
(-46,-212,o),
(40,-212,cs)
);
}
);
width = 268;
}
);
metricRight = "=|n";
unicode = 567;
},
{
glyphname = k;
lastChange = "2025-06-26 09:59:18 +0000";
layers = (
{
anchors = (
{
name = bottom;
pos = (291,0);
},
{
name = top;
pos = (261,720);
}
);
layerId = "D8D2F0D2-8948-448B-99CD-378CDFD0E0AE";
shapes = (
{
closed = 1;
nodes = (
(160,0,l),
(160,720,l),
(100,720,l),
(100,0,l)
);
},
{
closed = 1;
nodes = (
(450,455,ls),
(462,466,o),
(468,477,o),
(468,488,cs),
(468,502,o),
(458,512,o),
(443,512,cs),
(429,512,o),
(417,503,o),
(403,490,cs),
(117,208,l),
(160,176,l)
);
},
{
closed = 1;
nodes = (
(202,272,l),
(348,28,o),
(410,-16,o),
(510,0,c),
(510,50,l),
(437,43,o),
(373,96,o),
(254,304,c)
);
}
);
width = 522;
},
{
anchors = (
{
name = bottom;
pos = (317,0);
},
{
name = top;
pos = (287,720);
}
);
layerId = "83B83716-1CD1-47ED-B715-8773FED73F88";
shapes = (
{
closed = 1;
nodes = (
(244,0,l),
(244,720,l),
(28,720,l),
(28,0,l)
);
},
{
closed = 1;
nodes = (
(493,305,ls),
(532,336,o),
(556,373,o),
(556,416,cs),
(556,468,o),
(521,512,o),
(454,512,cs),
(398,512,o),
(361,481,o),
(322,440,cs),
(103,208,l),
(224,86,l)
);
},
{
closed = 1;
nodes = (
(201,262,l),
(354,-15,o),
(420,-31,o),
(576,0,c),
(576,176,l),
(522,175,o),
(490,189,o),
(395,344,c)
);
}
);
width = 580;
},
{
associatedMasterId = "83B83716-1CD1-47ED-B715-8773FED73F88";
layerId = "F9955363-F8D9-47DB-A8A5-6FDD80476128";
name = "13 juin 25 à 12:10";
shapes = (
{
closed = 1;
nodes = (
(240,0,l),
(240,740,l),
(24,740,l),
(24,0,l)
);
},
{
closed = 1;
nodes = (
(586,500,l),
(334,500,l),
(107,208,l),
(229,86,l)
);
},
{
closed = 1;
nodes = (
(197,262,l),
(329,80,ls),
(381,8,o),
(418,-14,o),
(468,-14,cs),
(573,-14,o),
(604,86,o),
(532,177,cs),
(399,344,l)
);
}
);
width = 590;
},
{
associatedMasterId = "D8D2F0D2-8948-448B-99CD-378CDFD0E0AE";
layerId = "F414CA67-C7A4-4130-ADBE-AF8DB7DEFE88";
name = "13 juin 25 à 12:41";
shapes = (
{
closed = 1;
nodes = (
(160,0,l),
(160,740,l),
(100,740,l),
(100,0,l)
);
},
{
closed = 1;
nodes = (
(486,500,l),
(410,500,l),
(117,208,l),
(160,176,l)
);
},
{
closed = 1;
nodes = (
(201,272,l),
(425,17,ls),
(444,-4,o),
(456,-11,o),
(470,-11,cs),
(500,-11,o),
(498,24,o),
(475,51,cs),
(254,304,l)
);
}
);
width = 522;
},
{
associatedMasterId = "83B83716-1CD1-47ED-B715-8773FED73F88";
layerId = "4193ED1E-EB43-4E56-8372-5D62B9E8AA92";
name = "18 juin 25 à 09:58";
shapes = (
{
closed = 1;
nodes = (
(244,0,l),
(244,720,l),
(28,720,l),
(28,0,l)
);
},
{
closed = 1;
nodes = (
(390,280,o),
(438,302,o),
(547,288,c),
(547,500,l),
(390,527,o),
(312,477,o),
(101,208,c),
(223,86,l)
);
},
{
closed = 1;
nodes = (
(201,262,l),
(340,0,l),
(604,0,l),
(381,344,l)
);
}
);
width = 604;
},
{
associatedMasterId = "83B83716-1CD1-47ED-B715-8773FED73F88";
layerId = "FF16FA36-EE8A-4B5E-99FB-438EEE3C3AD4";
name = "18 juin 25 à 10:00";
shapes = (
{
closed = 1;
nodes = (
(244,0,l),
(244,720,l),
(28,720,l),
(28,0,l)
);
},
{
closed = 1;
nodes = (
(498,312,ls),
(569,373,o),
(560,512,o),
(443,512,cs),
(387,512,o),
(347,481,o),
(312,440,cs),
(111,208,l),
(233,86,l)
);
},
{
closed = 1;
nodes = (
(191,262,l),
(330,0,l),
(594,0,l),
(381,344,l)
);
}
);
width = 594;
},
{
associatedMasterId = "83B83716-1CD1-47ED-B715-8773FED73F88";
layerId = "7FDF2B3B-33E0-47BA-97D2-A4A4236CA5FF";
name = "18 juin 25 à 16:45";
shapes = (
{
closed = 1;
nodes = (
(244,0,l),
(244,720,l),
(28,720,l),
(28,0,l)
);
},
{
closed = 1;
nodes = (
(590,500,l),
(338,500,l),
(111,208,l),
(233,86,l)
);
},
{
closed = 1;
nodes = (
(201,262,l),
(340,0,l),
(604,0,l),
(381,344,l)
);
}
);
width = 604;
},
{
associatedMasterId = "D8D2F0D2-8948-448B-99CD-378CDFD0E0AE";
layerId = "CC0A56AD-B4D5-4762-864E-C76A9296D56A";
name = "18 juin 25 à 20:09";
shapes = (
{
closed = 1;
nodes = (
(160,0,l),
(160,720,l),
(100,720,l),
(100,0,l)
);
},
{
closed = 1;
nodes = (
(486,500,l),
(410,500,l),
(117,208,l),
(160,176,l)
);
},
{
closed = 1;
nodes = (
(202,272,l),
(431,0,l),
(510,0,l),
(254,304,l)
);
}
);
width = 522;
}
);
metricLeft = "=n";
unicode = 107;
},
{
glyphname = l;
lastChange = "2025-06-25 16:16:36 +0000";
layers = (
{
anchors = (
{
name = bottom;
pos = (185,0);
},
{
name = caron;
pos = (160,500);
},
{
name = center;
pos = (160,350);
},
{
name = top;
pos = (135,720);
}
);
layerId = "D8D2F0D2-8948-448B-99CD-378CDFD0E0AE";
shapes = (
{
closed = 1;
nodes = (
(100,720,l),
(100,112,ls),
(100,39,o),
(127,-12,o),
(199,-12,cs),
(219,-12,o),
(239,-8,o),
(260,2,c),
(260,52,l),
(243,47,o),
(229,44,o),
(213,44,cs),
(175,44,o),
(160,60,o),
(160,115,cs),
(160,720,l)
);
}
);
width = 270;
},
{
anchors = (
{
name = bottom;
pos = (179,0);
},
{
name = caron;
pos = (244,500);
},
{
name = center;
pos = (159,370);
},
{
name = top;
pos = (159,720);
}
);
layerId = "83B83716-1CD1-47ED-B715-8773FED73F88";
shapes = (
{
closed = 1;
nodes = (
(28,720,l),
(28,180,ls),
(28,59,o),
(77,-12,o),
(198,-12,cs),
(238,-12,o),
(280,-4,o),
(314,12,c),
(314,182,l),
(304,179,o),
(291,177,o),
(280,177,cs),
(254,177,o),
(244,188,o),
(244,226,cs),
(244,720,l)
);
}
);
width = 318;
},
{
associatedMasterId = "83B83716-1CD1-47ED-B715-8773FED73F88";
layerId = "6D3F560B-3F5A-40CB-8D8B-DE4C5B09AF18";
name = "5 juin 25 à 12:30";
shapes = (
{
closed = 1;
nodes = (
(240,310,l),
(240,740,l),
(24,740,l),
(24,310,l)
);
},
{
closed = 1;
nodes = (
(24,180,ls),
(24,58,o),
(82,-9,o),
(184,-9,cs),
(249,-9,o),
(320,19,o),
(320,107,cs),
(320,140,o),
(310,176,o),
(270,176,cs),
(254,176,o),
(240,182,o),
(240,222,cs),
(240,590,l),
(24,590,l)
);
}
);
width = 320;
},
{
associatedMasterId = "83B83716-1CD1-47ED-B715-8773FED73F88";
layerId = "F0D6D702-0A5F-4EBA-96C6-059C21C61BD7";
name = "18 juin 25 à 16:44";
shapes = (
{
closed = 1;
nodes = (
(244,0,l),
(244,720,l),
(28,720,l),
(28,0,l)
);
}
);
width = 272;
},
{
associatedMasterId = "D8D2F0D2-8948-448B-99CD-378CDFD0E0AE";
layerId = "4CCB720F-D95D-4299-ADF9-9AF417344601";
name = "18 juin 25 à 19:52";
shapes = (
{
closed = 1;
nodes = (
(160,0,l),
(160,720,l),
(100,720,l),
(100,0,l)
);
}
);
width = 260;
}
);
metricLeft = "=n";
unicode = 108;
},
{
glyphname = m;
lastChange = "2025-06-18 17:47:02 +0000";
layers = (
{
layerId = "D8D2F0D2-8948-448B-99CD-378CDFD0E0AE";
shapes = (
{
closed = 1;
nodes = (
(844,0,l),
(844,310,ls),
(844,451,o),
(770,510,o),
(676,510,cs),
(601,510,o),
(510,472,o),
(468,374,c),
(502,295,l),
(502,406,o),
(579,454,o),
(657,454,cs),
(729,454,o),
(784,413,o),
(784,303,cs),
(784,0,l)
);
},
{
closed = 1;
nodes = (
(160,0,l),
(160,500,l),
(100,500,l),
(100,0,l)
);
},
{
closed = 1;
nodes = (
(502,0,l),
(502,320,ls),
(502,451,o),
(428,510,o),
(334,510,cs),
(259,510,o),
(174,472,o),
(136,374,c),
(160,295,l),
(160,406,o),
(237,454,o),
(315,454,cs),
(387,454,o),
(442,413,o),
(442,303,cs),
(442,0,l)
);
}
);
width = 934;
},
{
layerId = "83B83716-1CD1-47ED-B715-8773FED73F88";
shapes = (
{
closed = 1;
nodes = (
(852,0,l),
(852,308,ls),
(852,453,o),
(782,512,o),
(687,512,cs),
(609,512,o),
(536,472,o),
(498,394,c),
(548,241,l),
(548,284,o),
(571,308,o),
(596,308,cs),
(617,308,o),
(636,291,o),
(636,253,cs),
(636,0,l)
);
},
{
closed = 1;
nodes = (
(244,0,l),
(244,500,l),
(28,500,l),
(28,0,l)
);
},
{
closed = 1;
nodes = (
(548,0,l),
(548,308,ls),
(548,453,o),
(478,512,o),
(383,512,cs),
(305,512,o),
(252,472,o),
(224,394,c),
(244,241,l),
(244,284,o),
(267,308,o),
(292,308,cs),
(313,308,o),
(332,291,o),
(332,253,cs),
(332,0,l)
);
}
);
width = 874;
},
{
associatedMasterId = "D8D2F0D2-8948-448B-99CD-378CDFD0E0AE";
layerId = "B58A1CFB-56A1-4CF5-8CAB-A58ADA8443C7";
name = "11 juin 25 à 15:21";
shapes = (
{
closed = 1;
nodes = (
(482,0,l),
(482,338,ls),
(482,453,o),
(412,510,o),
(325,510,cs),
(254,510,o),
(174,472,o),
(136,384,c),
(160,335,l),
(160,406,o),
(240,454,o),
(312,454,cs),
(377,454,o),
(422,415,o),
(422,325,cs),
(422,0,l)
);
},
{
closed = 1;
nodes = (
(160,0,l),
(160,500,l),
(100,500,l),
(100,0,l)
);
},
{
closed = 1;
nodes = (
(804,0,l),
(804,338,ls),
(804,453,o),
(734,510,o),
(647,510,cs),
(576,510,o),
(494,472,o),
(456,384,c),
(482,335,l),
(482,406,o),
(562,454,o),
(634,454,cs),
(699,454,o),
(744,415,o),
(744,325,cs),
(744,0,l)
);
}
);
visible = 1;
width = 894;
}
);
metricLeft = "=n";
metricRight = "=n";
unicode = 109;
},
{
glyphname = n;
lastChange = "2025-07-01 12:34:27 +0000";
layers = (
{
anchors = (
{
name = bottom;
pos = (311,0);
},
{
name = top;
pos = (321,500);
}
);
layerId = "D8D2F0D2-8948-448B-99CD-378CDFD0E0AE";
shapes = (
{
closed = 1;
nodes = (
(512,0,l),
(512,310,ls),
(512,451,o),
(428,510,o),
(334,510,cs),
(259,510,o),
(174,472,o),
(136,374,c),
(160,295,l),
(160,406,o),
(237,454,o),
(315,454,cs),
(387,454,o),
(452,413,o),
(452,303,cs),
(452,0,l)
);
},
{
closed = 1;
nodes = (
(160,0,l),
(160,500,l),
(100,500,l),
(100,0,l)
);
}
);
width = 602;
},
{
associatedMasterId = "D8D2F0D2-8948-448B-99CD-378CDFD0E0AE";
layerId = "30D0AD92-E07E-4A8A-AFE4-26D7A8370F62";
name = "Aug 11 21, 17:18";
shapes = (
{
closed = 1;
nodes = (
(472,0,l),
(472,348,ls),
(472,453,o),
(416,510,o),
(324,510,cs),
(249,510,o),
(180,472,o),
(132,394,c),
(160,374,l),
(201,428,o),
(257,454,o),
(312,454,cs),
(379,454,o),
(412,415,o),
(412,335,cs),
(412,0,l)
);
},
{
closed = 1;
nodes = (
(160,0,l),
(160,500,l),
(100,500,l),
(100,0,l)
);
}
);
width = 562;
},
{
.lastUpdate = 773066067.579;
anchors = (
{
name = bottom;
pos = (283,0);
},
{
name = top;
pos = (293,500);
}
);
layerId = "83B83716-1CD1-47ED-B715-8773FED73F88";
shapes = (
{
closed = 1;
nodes = (
(560,0,l),
(560,288,ls),
(560,453,o),
(482,512,o),
(387,512,cs),
(309,512,o),
(252,472,o),
(224,394,c),
(244,241,l),
(244,284,o),
(271,308,o),
(300,308,cs),
(324,308,o),
(344,291,o),
(344,253,cs),
(344,0,l)
);
},
{
closed = 1;
nodes = (
(244,0,l),
(244,500,l),
(28,500,l),
(28,0,l)
);
}
);
width = 580;
}
);
unicode = 110;
},
{
glyphname = o;
lastChange = "2025-06-19 15:50:58 +0000";
layers = (
{
anchors = (
{
name = bottom;
pos = (306,0);
},
{
name = center;
pos = (306,250);
},
{
name = ogonek;
pos = (527,10);
},
{
name = top;
pos = (306,500);
},
{
name = topright;
pos = (562,500);
}
);
layerId = "D8D2F0D2-8948-448B-99CD-378CDFD0E0AE";
shapes = (
{
closed = 1;
nodes = (
(66,87,o),
(165,-12,o),
(303,-12,cs),
(446,-12,o),
(546,95,o),
(546,256,cs),
(546,413,o),
(447,512,o),
(309,512,cs),
(166,512,o),
(66,405,o),
(66,244,cs)
);
},
{
closed = 1;
nodes = (
(128,378,o),
(205,460,o),
(309,460,cs),
(410,460,o),
(484,381,o),
(484,253,cs),
(484,122,o),
(407,40,o),
(303,40,cs),
(202,40,o),
(128,119,o),
(128,247,cs)
);
}
);
width = 612;
},
{
anchors = (
{
name = bottom;
pos = (305,0);
},
{
name = center;
pos = (305,250);
},
{
name = ogonek;
pos = (541,10);
},
{
name = top;
pos = (305,500);
},
{
name = topright;
pos = (580,500);
}
);
layerId = "83B83716-1CD1-47ED-B715-8773FED73F88";
shapes = (
{
closed = 1;
nodes = (
(16,86,o),
(131,-12,o),
(306,-12,cs),
(490,-12,o),
(594,94,o),
(594,250,cs),
(594,414,o),
(480,512,o),
(305,512,cs),
(121,512,o),
(16,406,o),
(16,249,cs)
);
},
{
closed = 1;
nodes = (
(244,299,o),
(270,326,o),
(306,326,cs),
(341,326,o),
(366,300,o),
(366,251,cs),
(366,201,o),
(340,174,o),
(304,174,cs),
(269,174,o),
(244,200,o),
(244,249,cs)
);
}
);
width = 610;
},
{
associatedMasterId = "D8D2F0D2-8948-448B-99CD-378CDFD0E0AE";
layerId = "0DCA402F-CCFE-40A6-8C45-36FD42F23271";
name = "Sep 11 21, 15:54";
shapes = (
{
closed = 1;
nodes = (
(46,83,o),
(133,-10,o),
(262,-10,cs),
(396,-10,o),
(486,92,o),
(486,257,cs),
(486,417,o),
(399,510,o),
(270,510,cs),
(136,510,o),
(46,408,o),
(46,243,cs)
);
},
{
closed = 1;
nodes = (
(108,381,o),
(172,458,o),
(269,458,cs),
(365,458,o),
(424,382,o),
(424,253,cs),
(424,119,o),
(360,42,o),
(263,42,cs),
(167,42,o),
(108,118,o),
(108,247,cs)
);
}
);
width = 532;
}
);
metricRight = "=|";
unicode = 111;
},
{
glyphname = oslash;
lastChange = "2025-06-27 08:35:29 +0000";
layers = (
{
.lastUpdate = 773061708.207;
layerId = "D8D2F0D2-8948-448B-99CD-378CDFD0E0AE";
shapes = (
{
closed = 1;
nodes = (
(134,0,l),
(193,72,l),
(195,75,l),
(484,425,l),
(485,426,l),
(546,500,l),
(478,500,l),
(417,426,l),
(416,425,l),
(127,75,l),
(125,72,l),
(66,0,l)
);
},
{
ref = o;
}
);
width = 612;
},
{
.lastUpdate = 773073464.279;
layerId = "83B83716-1CD1-47ED-B715-8773FED73F88";
shapes = (
{
closed = 1;
nodes = (
(167,0,l),
(244,93,l),
(270,136,l),
(484,393,l),
(516,420,l),
(583,500,l),
(443,500,l),
(376,420,l),
(364,393,l),
(150,136,l),
(104,93,l),
(27,0,l)
);
},
{
ref = o;
}
);
width = 610;
}
);
unicode = 248;
},
{
glyphname = p;
lastChange = "2025-06-26 10:13:31 +0000";
layers = (
{
.lastUpdate = 773070630.866;
background = {
shapes = (
{
closed = 1;
nodes = (
(84,-224,l),
(159,-224,l),
(159,99,l),
(203,24,o),
(274,-11,o),
(357,-11,cs),
(508,-11,o),
(605,106,o),
(605,249,cs),
(605,392,o),
(508,509,o),
(357,509,cs),
(274,509,o),
(203,474,o),
(159,399,c),
(159,498,l),
(84,498,l)
);
},
{
closed = 1;
nodes = (
(530,142,o),
(463,56,o),
(350,56,cs),
(244,56,o),
(158,133,o),
(158,249,cs),
(158,365,o),
(244,442,o),
(350,442,cs),
(463,442,o),
(530,354,o),
(530,249,cs)
);
}
);
};
layerId = "D8D2F0D2-8948-448B-99CD-378CDFD0E0AE";
shapes = (
{
closed = 1;
nodes = (
(160,-200,l),
(160,500,l),
(100,500,l),
(100,-200,l)
);
},
{
ref = _panse;
}
);
width = 628;
},
{
associatedMasterId = "D8D2F0D2-8948-448B-99CD-378CDFD0E0AE";
layerId = "B4172C5F-8A79-465F-B86A-A08CD5C862AE";
name = "11 juin 25 à 15:12";
shapes = (
{
closed = 1;
nodes = (
(81,-224,l),
(156,-224,l),
(156,99,l),
(200,24,o),
(271,-11,o),
(354,-11,cs),
(505,-11,o),
(602,106,o),
(602,249,cs),
(602,392,o),
(505,509,o),
(354,509,cs),
(271,509,o),
(200,474,o),
(156,399,c),
(156,498,l),
(81,498,l)
);
},
{
closed = 1;
nodes = (
(527,142,o),
(460,56,o),
(347,56,cs),
(241,56,o),
(155,133,o),
(155,249,cs),
(155,365,o),
(241,442,o),
(347,442,cs),
(460,442,o),
(527,354,o),
(527,249,cs)
);
}
);
width = 610;
},
{
associatedMasterId = "D8D2F0D2-8948-448B-99CD-378CDFD0E0AE";
background = {
shapes = (
{
closed = 1;
nodes = (
(84,-224,l),
(159,-224,l),
(159,99,l),
(203,24,o),
(274,-11,o),
(357,-11,cs),
(508,-11,o),
(605,106,o),
(605,249,cs),
(605,392,o),
(508,509,o),
(357,509,cs),
(274,509,o),
(203,474,o),
(159,399,c),
(159,498,l),
(84,498,l)
);
},
{
closed = 1;
nodes = (
(530,142,o),
(463,56,o),
(350,56,cs),
(244,56,o),
(158,133,o),
(158,249,cs),
(158,365,o),
(244,442,o),
(350,442,cs),
(463,442,o),
(530,354,o),
(530,249,cs)
);
}
);
};
layerId = "AEC433F0-6DD1-496F-B21E-F10069AA1E37";
name = "26 juin 25 à 12:12";
shapes = (
{
closed = 1;
nodes = (
(160,-200,l),
(160,500,l),
(100,500,l),
(100,-200,l)
);
},
{
closed = 1;
nodes = (
(160,295,l),
(160,406,o),
(239,454,o),
(316,454,cs),
(392,454,o),
(498,407,o),
(498,252,cs),
(498,107,o),
(402,44,o),
(319,44,cs),
(238,44,o),
(160,104,o),
(160,205,c),
(138,112,l),
(164,27,o),
(241,-10,o),
(322,-10,cs),
(457,-10,o),
(562,92,o),
(562,252,cs),
(562,438,o),
(428,510,o),
(323,510,cs),
(245,510,o),
(164,472,o),
(126,374,c)
);
}
);
width = 628;
},
{
associatedMasterId = "83B83716-1CD1-47ED-B715-8773FED73F88";
layerId = "3F3A09A6-C179-49ED-8D20-34A44FEC3E44";
name = "26 juin 25 à 12:13";
shapes = (
{
closed = 1;
nodes = (
(244,-200,l),
(244,500,l),
(28,500,l),
(28,-200,l)
);
},
{
closed = 1;
nodes = (
(244,254,l),
(244,306,o),
(271,323,o),
(297,323,cs),
(322,323,o),
(354,307,o),
(354,246,cs),
(354,189,o),
(326,167,o),
(296,167,cs),
(267,167,o),
(244,188,o),
(244,234,c),
(198,92,l),
(216,27,o),
(283,-8,o),
(358,-8,cs),
(480,-8,o),
(582,89,o),
(582,250,cs),
(582,416,o),
(475,508,o),
(368,508,cs),
(300,508,o),
(222,472,o),
(194,394,c)
);
}
);
width = 598;
},
{
.lastUpdate = 773073464.279;
layerId = "83B83716-1CD1-47ED-B715-8773FED73F88";
name = Black;
shapes = (
{
closed = 1;
nodes = (
(244,-200,l),
(244,500,l),
(28,500,l),
(28,-200,l)
);
},
{
pos = (88,0);
ref = _panse;
}
);
width = 598;
}
);
metricLeft = "=n";
metricRight = "=o";
unicode = 112;
},
{
glyphname = thorn;
lastChange = "2025-06-25 15:00:00 +0000";
layers = (
{
.lastUpdate = 773061708.206;
layerId = "D8D2F0D2-8948-448B-99CD-378CDFD0E0AE";
shapes = (
{
closed = 1;
nodes = (
(160,-200,l),
(160,720,l),
(100,720,l),
(100,-200,l)
);
},
{
ref = _panse;
}
);
width = 628;
},
{
.lastUpdate = 773073464.279;
layerId = "83B83716-1CD1-47ED-B715-8773FED73F88";
shapes = (
{
closed = 1;
nodes = (
(244,-200,l),
(244,720,l),
(28,720,l),
(28,-200,l)
);
},
{
pos = (88,0);
ref = _panse;
}
);
width = 598;
}
);
metricLeft = "=p";
metricRight = "=p";
unicode = 254;
},
{
glyphname = q;
lastChange = "2025-06-19 16:48:05 +0000";
layers = (
{
.lastUpdate = 773061708.206;
layerId = "D8D2F0D2-8948-448B-99CD-378CDFD0E0AE";
shapes = (
{
closed = 1;
nodes = (
(468,500,l),
(468,-200,l),
(528,-200,l),
(528,500,l)
);
},
{
angle = 180;
pos = (628,500);
ref = _panse;
}
);
width = 628;
},
{
.lastUpdate = 773073464.278;
layerId = "83B83716-1CD1-47ED-B715-8773FED73F88";
shapes = (
{
closed = 1;
nodes = (
(354,500,l),
(354,-200,l),
(570,-200,l),
(570,500,l)
);
},
{
angle = 180;
pos = (510,500);
ref = _panse;
}
);
width = 598;
}
);
metricLeft = "=o";
metricRight = "=|n";
unicode = 113;
},
{
glyphname = r;
lastChange = "2025-06-27 15:20:43 +0000";
layers = (
{
anchors = (
{
name = bottom;
pos = (185,0);
},
{
name = top;
pos = (215,500);
}
);
layerId = "D8D2F0D2-8948-448B-99CD-378CDFD0E0AE";
shapes = (
{
closed = 1;
nodes = (
(160,0,l),
(160,500,l),
(100,500,l),
(100,0,l)
);
},
{
closed = 1;
nodes = (
(160,383,o),
(200,450,o),
(266,450,cs),
(289,450,o),
(302,442,o),
(318,442,cs),
(337,442,o),
(346,454,o),
(346,470,cs),
(346,499,o),
(317,512,o),
(285,512,cs),
(229,512,o),
(174,472,o),
(136,374,c),
(160,295,l)
);
}
);
width = 370;
},
{
associatedMasterId = "83B83716-1CD1-47ED-B715-8773FED73F88";
layerId = "043E60FE-68E1-4F2D-8105-14838EA22F61";
name = "17 juin 25 à 11:33";
shapes = (
{
closed = 1;
nodes = (
(244,0,l),
(244,500,l),
(28,500,l),
(28,0,l)
);
},
{
closed = 1;
nodes = (
(244,269,o),
(280,275,o),
(326,275,cs),
(374,275,o),
(432,292,o),
(432,389,cs),
(432,475,o),
(383,510,o),
(337,510,cs),
(282,510,o),
(248,461,o),
(234,394,c),
(244,175,l)
);
}
);
width = 448;
},
{
associatedMasterId = "D8D2F0D2-8948-448B-99CD-378CDFD0E0AE";
layerId = "973305A6-CB09-4D92-8EB1-B39FAB9D1BE7";
name = "17 juin 25 à 11:33";
shapes = (
{
closed = 1;
nodes = (
(160,0,l),
(160,500,l),
(100,500,l),
(100,0,l)
);
},
{
closed = 1;
nodes = (
(160,393,o),
(217,443,o),
(303,443,cs),
(340,443,o),
(352,455,o),
(352,474,cs),
(352,495,o),
(337,510,o),
(303,510,cs),
(249,510,o),
(174,472,o),
(136,374,c),
(160,315,l)
);
}
);
width = 370;
},
{
anchors = (
{
name = bottom;
pos = (234,0);
},
{
name = top;
pos = (234,500);
}
);
associatedMasterId = "83B83716-1CD1-47ED-B715-8773FED73F88";
layerId = "23369E5A-21F9-43ED-B06B-EBC858EF1AEB";
name = "26 juin 25 à 12:30";
shapes = (
{
closed = 1;
nodes = (
(244,0,l),
(244,500,l),
(28,500,l),
(28,0,l)
);
},
{
closed = 1;
nodes = (
(244,247,o),
(261,275,o),
(292,275,cs),
(315,275,o),
(333,260,o),
(364,260,c),
(366,512,l),
(296,512,o),
(248,461,o),
(234,394,c),
(244,175,l)
);
}
);
width = 408;
},
{
.lastUpdate = 772730443.541;
anchors = (
{
name = bottom;
pos = (234,0);
},
{
name = top;
pos = (234,500);
}
);
layerId = "83B83716-1CD1-47ED-B715-8773FED73F88";
name = Black;
shapes = (
{
closed = 1;
nodes = (
(244,0,l),
(244,500,l),
(28,500,l),
(28,0,l)
);
},
{
closed = 1;
nodes = (
(244,247,o),
(261,275,o),
(290,275,cs),
(311,275,o),
(331,260,o),
(365,260,cs),
(419,260,o),
(468,298,o),
(468,383,cs),
(468,475,o),
(411,512,o),
(356,512,cs),
(291,512,o),
(248,461,o),
(234,394,c),
(244,175,l)
);
}
);
width = 468;
}
);
metricLeft = "=n";
unicode = 114;
},
{
glyphname = s;
lastChange = "2025-07-01 12:36:29 +0000";
layers = (
{
.lastUpdate = 773066189.153;
anchors = (
{
name = bottom;
pos = (234,0);
},
{
name = top;
pos = (244,500);
}
);
guides = (
{
angle = 220.9144;
pos = (264,375);
}
);
layerId = "D8D2F0D2-8948-448B-99CD-378CDFD0E0AE";
shapes = (
{
closed = 1;
nodes = (
(363,-10,o),
(416,52,o),
(416,129,cs),
(416,312,o),
(126,246,o),
(126,376,cs),
(126,419,o),
(158,460,o),
(237,460,cs),
(331,460,o),
(343,401,o),
(376,401,cs),
(389,401,o),
(400,410,o),
(400,426,cs),
(400,459,o),
(353,510,o),
(246,510,cs),
(128,510,o),
(68,446,o),
(68,368,cs),
(68,194,o),
(358,258,o),
(358,125,cs),
(358,78,o),
(322,40,o),
(238,40,cs),
(177,40,o),
(119,58,o),
(64,101,c),
(64,40,l),
(97,12,o),
(152,-10,o),
(237,-10,cs)
);
}
);
width = 468;
},
{
associatedMasterId = "D8D2F0D2-8948-448B-99CD-378CDFD0E0AE";
layerId = "C761C3B0-11A6-42B5-A1D5-C1338B683BD5";
name = "Aug 25 21, 16:11";
shapes = (
{
closed = 1;
nodes = (
(65,34,o),
(123,-10,o),
(215,-10,cs),
(323,-10,o),
(386,50,o),
(386,129,cs),
(386,294,o),
(116,256,o),
(116,377,cs),
(116,419,o),
(148,460,o),
(217,460,cs),
(281,460,o),
(310,425,o),
(327,373,c),
(382,392,l),
(357,466,o),
(302,510,o),
(218,510,cs),
(118,510,o),
(58,448,o),
(58,371,cs),
(58,206,o),
(328,244,o),
(328,123,cs),
(328,78,o),
(292,40,o),
(217,40,cs),
(145,40,o),
(112,75,o),
(95,127,c),
(40,108,l)
);
}
);
width = 426;
},
{
associatedMasterId = "83B83716-1CD1-47ED-B715-8773FED73F88";
guides = (
{
angle = 220.9144;
pos = (463,389);
}
);
layerId = "11B09AE7-D3D8-49B7-BBD7-E88E6F8FA016";
name = "5 juin 25 à 12:52";
shapes = (
{
closed = 1;
nodes = (
(401,-10,o),
(494,60,o),
(494,164,cs),
(494,336,o),
(237,318,o),
(237,365,cs),
(237,375,o),
(248,382,o),
(267,382,cs),
(322,382,o),
(365,328,o),
(422,328,cs),
(460,328,o),
(487,351,o),
(487,392,cs),
(487,465,o),
(405,510,o),
(273,510,cs),
(105,510,o),
(9,438,o),
(9,333,cs),
(9,164,o),
(266,182,o),
(266,134,cs),
(266,124,o),
(255,118,o),
(235,118,cs),
(173,118,o),
(130,172,o),
(73,172,cs),
(35,172,o),
(8,149,o),
(8,108,cs),
(8,35,o),
(90,-10,o),
(228,-10,cs)
);
}
);
width = 500;
},
{
associatedMasterId = "83B83716-1CD1-47ED-B715-8773FED73F88";
guides = (
{
angle = 220.9144;
pos = (463,389);
}
);
layerId = "88938173-060D-4E2F-B5C0-039E3FC8004A";
name = "16 juin 25 à 17:20";
shapes = (
{
closed = 1;
nodes = (
(411,-10,o),
(494,60,o),
(494,160,cs),
(494,336,o),
(237,318,o),
(237,365,cs),
(237,375,o),
(248,382,o),
(267,382,cs),
(322,382,o),
(365,328,o),
(422,328,cs),
(460,328,o),
(487,351,o),
(487,392,cs),
(487,465,o),
(405,510,o),
(271,510,cs),
(95,510,o),
(9,438,o),
(9,337,cs),
(9,164,o),
(266,182,o),
(266,134,cs),
(266,124,o),
(255,118,o),
(231,118,cs),
(183,118,o),
(120,142,o),
(23,202,c),
(23,34,l),
(81,2,o),
(157,-10,o),
(231,-10,cs)
);
}
);
width = 500;
},
{
.lastUpdate = 773065975.426;
anchors = (
{
name = bottom;
pos = (258,0);
},
{
name = top;
pos = (258,500);
}
);
guides = (
{
angle = 220.9144;
pos = (463,389);
}
);
layerId = "83B83716-1CD1-47ED-B715-8773FED73F88";
name = Black;
shapes = (
{
closed = 1;
nodes = (
(402,-12,o),
(506,56,o),
(506,167,cs),
(506,343,o),
(248,310,o),
(248,363,cs),
(248,374,o),
(258,381,o),
(275,381,cs),
(324,381,o),
(366,318,o),
(427,318,cs),
(471,318,o),
(500,349,o),
(500,391,cs),
(500,463,o),
(417,512,o),
(278,512,cs),
(108,512,o),
(10,438,o),
(10,330,cs),
(10,154,o),
(268,184,o),
(268,135,cs),
(268,125,o),
(257,119,o),
(237,119,cs),
(196,119,o),
(121,142,o),
(24,202,c),
(24,28,l),
(92,2,o),
(158,-12,o),
(234,-12,cs)
);
}
);
width = 516;
}
);
unicode = 115;
},
{
glyphname = t;
lastChange = "2025-06-26 10:08:03 +0000";
layers = (
{
associatedMasterId = "D8D2F0D2-8948-448B-99CD-378CDFD0E0AE";
layerId = "C4D97CF4-8414-424B-A938-E08ED0A07615";
name = "10 juin 25 à 19:15";
shapes = (
{
closed = 1;
nodes = (
(50,446,l),
(320,446,l),
(320,500,l),
(50,500,l)
);
},
{
closed = 1;
nodes = (
(130,130,ls),
(130,37,o),
(174,-6,o),
(245,-6,cs),
(288,-6,o),
(320,8,o),
(320,34,cs),
(320,60,o),
(289,48,o),
(254,48,cs),
(208,48,o),
(190,78,o),
(190,152,cs),
(190,600,l),
(130,600,l)
);
}
);
width = 352;
},
{
associatedMasterId = "83B83716-1CD1-47ED-B715-8773FED73F88";
layerId = "6762EB0D-5A66-4F4C-A710-F0A4C601C8D3";
name = "10 juin 25 à 19:15";
shapes = (
{
closed = 1;
nodes = (
(10,330,l),
(374,330,l),
(374,500,l),
(10,500,l)
);
},
{
closed = 1;
nodes = (
(68,180,ls),
(68,58,o),
(136,-9,o),
(234,-9,cs),
(303,-9,o),
(374,24,o),
(374,103,cs),
(374,145,o),
(354,176,o),
(314,176,cs),
(298,176,o),
(284,182,o),
(284,222,cs),
(284,590,l),
(68,590,l)
);
}
);
width = 384;
},
{
associatedMasterId = "83B83716-1CD1-47ED-B715-8773FED73F88";
layerId = "B115177B-F7FA-4CF3-9E1C-AF66368EBD56";
name = "13 juin 25 à 12:11";
shapes = (
{
closed = 1;
nodes = (
(382,186,l),
(306,176,o),
(282,192,o),
(282,232,cs),
(282,500,ls),
(282,642,o),
(66,642,o),
(66,500,cs),
(66,180,ls),
(66,38,o),
(154,-29,o),
(382,11,c)
);
},
{
closed = 1;
nodes = (
(392,330,l),
(392,500,l),
(6,500,l),
(6,330,l)
);
}
);
width = 422;
},
{
anchors = (
{
name = bottom;
pos = (257,0);
},
{
name = caron;
pos = (304,500);
},
{
name = center;
pos = (217,250);
},
{
name = top;
pos = (217,602);
}
);
layerId = "83B83716-1CD1-47ED-B715-8773FED73F88";
name = Black;
shapes = (
{
closed = 1;
nodes = (
(404,180,l),
(388,176,o),
(369,173,o),
(352,173,cs),
(319,173,o),
(304,184,o),
(304,222,cs),
(304,310,l),
(414,310,l),
(414,500,l),
(304,500,l),
(304,602,l),
(88,508,ls),
(37,486,o),
(2,453,o),
(2,398,cs),
(2,340,o),
(42,310,o),
(86,310,cs),
(88,310,l),
(88,180,ls),
(88,65,o),
(139,-12,o),
(274,-12,cs),
(320,-12,o),
(367,-3,o),
(404,10,c)
);
}
);
width = 434;
},
{
associatedMasterId = "D8D2F0D2-8948-448B-99CD-378CDFD0E0AE";
layerId = "116341B4-761B-4FAD-ACAF-BCCD19EFCF22";
name = "13 juin 25 à 12:11";
shapes = (
{
closed = 1;
nodes = (
(340,50,l),
(213,32,o),
(180,60,o),
(180,155,cs),
(180,564,ls),
(180,614,o),
(120,614,o),
(120,564,cs),
(120,150,ls),
(120,36,o),
(167,-26,o),
(340,0,c)
);
},
{
closed = 1;
nodes = (
(340,446,l),
(340,500,l),
(30,500,l),
(30,446,l)
);
}
);
width = 360;
},
{
anchors = (
{
name = bottom;
pos = (236,0);
},
{
name = caron;
pos = (170,500);
},
{
name = center;
pos = (196,250);
},
{
name = top;
pos = (196,578);
}
);
layerId = "D8D2F0D2-8948-448B-99CD-378CDFD0E0AE";
name = Thin;
shapes = (
{
closed = 1;
nodes = (
(330,62,l),
(306,51,o),
(279,44,o),
(252,44,cs),
(192,44,o),
(170,78,o),
(170,155,cs),
(170,446,l),
(340,446,l),
(340,500,l),
(170,500,l),
(170,578,l),
(60,506,ls),
(40,493,o),
(30,482,o),
(30,469,cs),
(30,457,o),
(38,446,o),
(61,446,cs),
(110,446,l),
(110,150,ls),
(110,53,o),
(144,-12,o),
(243,-12,cs),
(277,-12,o),
(306,-4,o),
(330,8,c)
);
}
);
width = 372;
},
{
associatedMasterId = "83B83716-1CD1-47ED-B715-8773FED73F88";
layerId = "3E45FD6F-3379-4E67-BEBD-F22775ECED28";
name = "13 juin 25 à 12:13";
shapes = (
{
closed = 1;
nodes = (
(394,186,l),
(318,176,o),
(294,192,o),
(294,232,cs),
(294,507,ls),
(294,585,o),
(245,615,o),
(176,580,cs),
(18,500,l),
(78,472,l),
(78,180,ls),
(78,38,o),
(166,-29,o),
(394,11,c)
);
},
{
closed = 1;
nodes = (
(394,330,l),
(394,500,l),
(18,500,l),
(18,330,l)
);
}
);
width = 404;
}
);
metricLeft = "=f";
unicode = 116;
},
{
glyphname = u;
lastChange = "2025-06-25 14:52:09 +0000";
layers = (
{
anchors = (
{
name = bottom;
pos = (254,0);
},
{
name = ogonek;
pos = (306,0);
},
{
name = top;
pos = (294,500);
},
{
name = topright;
pos = (512,500);
}
);
layerId = "D8D2F0D2-8948-448B-99CD-378CDFD0E0AE";
shapes = (
{
closed = 1;
nodes = (
(414,-10,o),
(494,49,o),
(494,190,cs),
(494,500,l),
(434,500,l),
(434,197,ls),
(434,87,o),
(373,46,o),
(292,46,cs),
(211,46,o),
(150,87,o),
(150,197,cs),
(150,500,l),
(90,500,l),
(90,190,ls),
(90,49,o),
(170,-10,o),
(292,-10,cs)
);
}
);
width = 584;
},
{
anchors = (
{
name = bottom;
pos = (282,0);
},
{
name = ogonek;
pos = (363,0);
},
{
name = top;
pos = (282,500);
},
{
name = topright;
pos = (538,500);
}
);
layerId = "83B83716-1CD1-47ED-B715-8773FED73F88";
shapes = (
{
closed = 1;
nodes = (
(466,-12,o),
(544,79,o),
(544,234,cs),
(544,500,l),
(328,500,l),
(328,231,ls),
(328,193,o),
(311,174,o),
(283,174,cs),
(255,174,o),
(238,193,o),
(238,231,cs),
(238,500,l),
(22,500,l),
(22,234,ls),
(22,79,o),
(100,-12,o),
(283,-12,cs)
);
}
);
width = 566;
},
{
anchors = (
{
name = bottom;
pos = (292,0);
},
{
name = ogonek;
pos = (513,10);
},
{
name = top;
pos = (292,500);
},
{
name = topright;
pos = (548,500);
}
);
associatedMasterId = "83B83716-1CD1-47ED-B715-8773FED73F88";
layerId = "59EC44B9-26A3-486F-B741-2CA1DE9D1710";
name = "18 juin 25 à 16:29";
shapes = (
{
closed = 1;
nodes = (
(269,-12,o),
(320,28,o),
(348,106,c),
(328,259,l),
(328,216,o),
(303,192,o),
(277,192,cs),
(255,192,o),
(238,209,o),
(238,247,cs),
(238,500,l),
(22,500,l),
(22,212,ls),
(22,47,o),
(96,-12,o),
(191,-12,cs)
);
},
{
closed = 1;
nodes = (
(544,0,l),
(544,500,l),
(328,500,l),
(328,0,l)
);
}
);
width = 572;
},
{
anchors = (
{
name = bottom;
pos = (258,0);
},
{
name = ogonek;
pos = (480,10);
},
{
name = top;
pos = (298,500);
},
{
name = topright;
pos = (516,500);
}
);
associatedMasterId = "D8D2F0D2-8948-448B-99CD-378CDFD0E0AE";
layerId = "1A0E6A28-C5D5-4C53-BAA0-49A02FCFCB4A";
name = "18 juin 25 à 19:53";
shapes = (
{
closed = 1;
nodes = (
(343,-10,o),
(428,28,o),
(466,126,c),
(442,205,l),
(442,94,o),
(365,46,o),
(287,46,cs),
(215,46,o),
(150,87,o),
(150,197,cs),
(150,500,l),
(90,500,l),
(90,190,ls),
(90,49,o),
(174,-10,o),
(268,-10,cs)
);
},
{
closed = 1;
nodes = (
(502,0,l),
(502,500,l),
(442,500,l),
(442,0,l)
);
}
);
width = 602;
}
);
metricLeft = "=|n";
metricRight = "=|";
unicode = 117;
},
{
glyphname = v;
lastChange = "2025-06-18 15:58:53 +0000";
layers = (
{
layerId = "D8D2F0D2-8948-448B-99CD-378CDFD0E0AE";
shapes = (
{
closed = 1;
nodes = (
(298,0,l),
(95,500,l),
(30,500,l),
(240,0,l)
);
},
{
closed = 1;
nodes = (
(510,500,l),
(445,500,l),
(242,0,l),
(300,0,l)
);
}
);
width = 540;
},
{
layerId = "83B83716-1CD1-47ED-B715-8773FED73F88";
shapes = (
{
closed = 1;
nodes = (
(384,0,l),
(256,500,l),
(8,500,l),
(198,0,l)
);
},
{
closed = 1;
nodes = (
(632,500,l),
(388,500,l),
(276,0,l),
(442,0,l)
);
}
);
width = 640;
}
);
metricRight = "=|";
unicode = 118;
},
{
glyphname = w;
lastChange = "2025-07-01 12:30:43 +0000";
layers = (
{
anchors = (
{
name = bottom;
pos = (382,0);
}
);
layerId = "D8D2F0D2-8948-448B-99CD-378CDFD0E0AE";
shapes = (
{
closed = 1;
nodes = (
(234,0,l),
(395,478,l),
(359,478,l),
(520,0,l),
(576,0,l),
(423,465,ls),
(413,497,o),
(398,512,o),
(377,512,cs),
(356,512,o),
(341,497,o),
(331,465,cs),
(178,0,l)
);
},
{
closed = 1;
nodes = (
(230,0,l),
(89,500,l),
(24,500,l),
(174,0,l)
);
},
{
closed = 1;
nodes = (
(580,0,l),
(730,500,l),
(665,500,l),
(524,0,l)
);
}
);
width = 754;
},
{
.lastUpdate = 773065843.086;
anchors = (
{
name = bottom;
pos = (443,0);
}
);
layerId = "83B83716-1CD1-47ED-B715-8773FED73F88";
shapes = (
{
closed = 1;
nodes = (
(386,0,l),
(457,261,l),
(429,261,l),
(500,0,l),
(680,0,l),
(562,410,ls),
(541,481,o),
(507,512,o),
(444,512,cs),
(381,512,o),
(345,481,o),
(324,410,cs),
(206,0,l)
);
},
{
closed = 1;
nodes = (
(322,0,l),
(242,500,l),
(8,500,l),
(154,0,l)
);
},
{
closed = 1;
nodes = (
(732,0,l),
(878,500,l),
(644,500,l),
(564,0,l)
);
}
);
width = 886;
},
{
associatedMasterId = "83B83716-1CD1-47ED-B715-8773FED73F88";
layerId = "4D1645BF-BEDF-4181-8641-6FB18604B64F";
name = "Aug 25 21, 12:44";
shapes = (
{
closed = 1;
nodes = (
(264,0,l),
(214,500,l),
(30,500,l),
(126,0,l)
);
},
{
closed = 1;
nodes = (
(449,250,l),
(395,450,l),
(162,0,l),
(318,0,l)
);
},
{
closed = 1;
nodes = (
(628,0,l),
(395,450,l),
(341,250,l),
(472,0,l)
);
},
{
closed = 1;
nodes = (
(760,500,l),
(576,500,l),
(526,0,l),
(664,0,l)
);
}
);
width = 790;
},
{
associatedMasterId = "83B83716-1CD1-47ED-B715-8773FED73F88";
layerId = "D91F7936-0397-450B-B781-141D864B0339";
name = "19 juin 25 à 10:04";
shapes = (
{
closed = 1;
nodes = (
(319,0,l),
(239,500,l),
(5,500,l),
(151,0,l)
);
},
{
closed = 1;
nodes = (
(544,500,l),
(357,500,l),
(217,0,l),
(383,0,l)
);
},
{
closed = 1;
nodes = (
(683,0,l),
(543,500,l),
(356,500,l),
(517,0,l)
);
},
{
closed = 1;
nodes = (
(895,500,l),
(661,500,l),
(581,0,l),
(749,0,l)
);
}
);
width = 900;
}
);
metricLeft = "=v";
metricRight = "=|";
unicode = 119;
},
{
glyphname = x;
lastChange = "2025-06-24 09:29:01 +0000";
layers = (
{
layerId = "D8D2F0D2-8948-448B-99CD-378CDFD0E0AE";
shapes = (
{
closed = 1;
nodes = (
(234,212,l),
(230,284,l),
(25,0,l),
(95,0,l),
(257,224,l),
(233,224,l),
(395,0,l),
(463,0,l),
(257,285,l),
(255,211,l),
(462,500,l),
(392,500,l),
(228,271,l),
(259,271,l),
(94,500,l),
(26,500,l)
);
}
);
width = 488;
},
{
layerId = "83B83716-1CD1-47ED-B715-8773FED73F88";
shapes = (
{
closed = 1;
nodes = (
(163,209,l),
(163,287,l),
(3,0,l),
(229,0,l),
(308,155,l),
(258,155,l),
(337,0,l),
(573,0,l),
(414,287,l),
(414,209,l),
(576,500,l),
(350,500,l),
(268,341,l),
(318,341,l),
(236,500,l),
(0,500,l)
);
}
);
width = 576;
}
);
metricRight = "=|";
unicode = 120;
},
{
glyphname = y;
lastChange = "2025-06-26 12:27:41 +0000";
layers = (
{
.lastUpdate = 773073464.283;
anchors = (
{
name = bottom;
pos = (299,0);
},
{
name = top;
pos = (323,500);
}
);
layerId = "83B83716-1CD1-47ED-B715-8773FED73F88";
shapes = (
{
closed = 1;
nodes = (
(306,-212,o),
(381,-159,o),
(435,-18,cs),
(632,500,l),
(198,0,l),
(194,-14,o),
(184,-22,o),
(167,-22,cs),
(152,-22,o),
(138,-16,o),
(121,-16,cs),
(80,-16,o),
(53,-49,o),
(53,-100,cs),
(53,-178,o),
(116,-212,o),
(200,-212,cs)
);
},
{
ref = v;
}
);
width = 640;
},
{
associatedMasterId = "D8D2F0D2-8948-448B-99CD-378CDFD0E0AE";
layerId = "A968634C-B40A-4952-AF67-6C361F76089D";
name = "5 juin 25 à 12:15";
shapes = (
{
closed = 1;
nodes = (
(45,-185,o),
(71,-206,o),
(113,-206,cs),
(175,-206,o),
(218,-161,o),
(259,-54,cs),
(470,500,l),
(220,0,l),
(165,-135,o),
(144,-175,o),
(38,-145,c)
);
},
{
ref = v;
}
);
width = 500;
},
{
.lastUpdate = 773066531.87;
anchors = (
{
name = bottom;
pos = (250,0);
},
{
name = top;
pos = (273,500);
}
);
layerId = "D8D2F0D2-8948-448B-99CD-378CDFD0E0AE";
name = Thin;
shapes = (
{
closed = 1;
nodes = (
(183,-212,o),
(233,-159,o),
(288,-28,cs),
(510,500,l),
(240,0,l),
(183,-132,o),
(143,-160,o),
(113,-160,cs),
(95,-160,o),
(79,-150,o),
(62,-150,cs),
(48,-150,o),
(36,-157,o),
(36,-173,cs),
(36,-201,o),
(72,-212,o),
(107,-212,cs)
);
},
{
ref = v;
}
);
width = 540;
},
{
anchors = (
{
name = bottom;
pos = (250,0);
},
{
name = top;
pos = (250,500);
}
);
associatedMasterId = "D8D2F0D2-8948-448B-99CD-378CDFD0E0AE";
layerId = "2ADEC5B5-31A1-4C7F-A76B-B160F1400AF6";
name = "24 juin 25 à 12:06";
shapes = (
{
closed = 1;
nodes = (
(272,0,l),
(65,500,l),
(0,500,l),
(200,25,ls),
(207,8,o),
(219,0,o),
(237,0,cs)
);
},
{
closed = 1;
nodes = (
(510,500,l),
(445,500,l),
(158,-200,l),
(216,-200,l)
);
}
);
width = 540;
},
{
anchors = (
{
name = bottom;
pos = (359,0);
},
{
name = top;
pos = (359,500);
}
);
associatedMasterId = "83B83716-1CD1-47ED-B715-8773FED73F88";
layerId = "F2B1C41A-B2A1-422F-829D-7BEE17241F47";
name = "24 juin 25 à 12:07";
shapes = (
{
closed = 1;
nodes = (
(394,0,l),
(256,500,l),
(8,500,l),
(142,95,ls),
(163,30,o),
(191,0,o),
(260,0,cs)
);
},
{
closed = 1;
nodes = (
(662,500,l),
(418,500,l),
(183,-200,l),
(426,-200,l)
);
}
);
width = 670;
}
);
metricLeft = "=v";
metricRight = "=v";
unicode = 121;
},
{
glyphname = z;
lastChange = "2025-07-01 12:28:42 +0000";
layers = (
{
anchors = (
{
name = bottom;
pos = (260,0);
},
{
name = center;
pos = (260,250);
},
{
name = top;
pos = (269,500);
}
);
layerId = "D8D2F0D2-8948-448B-99CD-378CDFD0E0AE";
shapes = (
{
closed = 1;
nodes = (
(470,0,l),
(470,54,l),
(99,54,l),
(117,28,l),
(460,460,l),
(386,460,l),
(76,70,ls),
(64,55,o),
(60,44,o),
(60,32,cs),
(60,11,o),
(75,0,o),
(104,0,cs)
);
},
{
closed = 1;
nodes = (
(420,446,l),
(460,460,l),
(460,500,l),
(70,500,l),
(70,446,l)
);
}
);
width = 520;
},
{
.lastUpdate = 773065722.642;
anchors = (
{
name = bottom;
pos = (244,0);
},
{
name = center;
pos = (244,250);
},
{
name = top;
pos = (251,500);
}
);
layerId = "83B83716-1CD1-47ED-B715-8773FED73F88";
shapes = (
{
closed = 1;
nodes = (
(490,0,l),
(490,180,l),
(250,180,l),
(253,142,l),
(484,356,l),
(246,386,l),
(69,210,ls),
(27,168,o),
(10,136,o),
(10,97,cs),
(10,36,o),
(52,0,o),
(137,0,cs)
);
},
{
closed = 1;
nodes = (
(424,320,l),
(484,356,l),
(484,500,l),
(16,500,l),
(16,320,l)
);
}
);
width = 498;
},
{
associatedMasterId = "83B83716-1CD1-47ED-B715-8773FED73F88";
layerId = "59D2CD70-73B8-4FF6-A310-BF56C0FC62DE";
name = "18 juin 25 à 17:31";
shapes = (
{
closed = 1;
nodes = (
(20,320,l),
(414,320,l),
(474,356,l),
(474,500,l),
(20,500,l)
);
},
{
closed = 1;
nodes = (
(20,0,l),
(474,0,l),
(474,180,l),
(77,180,l),
(20,144,l)
);
},
{
closed = 1;
nodes = (
(228,114,l),
(474,356,l),
(236,376,l),
(20,144,l)
);
}
);
width = 494;
}
);
unicode = 122;
},
{
color = 4;
glyphname = a.ss01;
lastChange = "2025-06-24 08:02:19 +0000";
layers = (
{
.lastUpdate = 773070630.866;
layerId = "D8D2F0D2-8948-448B-99CD-378CDFD0E0AE";
shapes = (
{
closed = 1;
nodes = (
(468,500,l),
(468,0,l),
(528,0,l),
(528,500,l)
);
},
{
angle = 180;
pos = (628,500);
ref = _panse;
}
);
width = 628;
},
{
.lastUpdate = 773073464.285;
layerId = "83B83716-1CD1-47ED-B715-8773FED73F88";
shapes = (
{
closed = 1;
nodes = (
(354,500,l),
(354,0,l),
(570,0,l),
(570,500,l)
);
},
{
angle = 180;
pos = (510,500);
ref = _panse;
}
);
width = 598;
},
{
associatedMasterId = "D8D2F0D2-8948-448B-99CD-378CDFD0E0AE";
layerId = "5B5FDD4F-8925-42FD-8AFD-09FA15FE006E";
name = "24 juin 25 à 10:00";
shapes = (
{
closed = 1;
nodes = (
(528,239,l),
(528,500,l),
(468,500,l),
(468,239,l)
);
},
{
closed = 1;
nodes = (
(468,319,l),
(468,127,l),
(475,108,l),
(475,67,o),
(484,21,o),
(493,0,c),
(553,-1,l),
(540,28,o),
(528,80,o),
(528,138,cs),
(528,319,l)
);
},
{
angle = 180;
pos = (628,500);
ref = _panse;
}
);
width = 628;
},
{
associatedMasterId = "83B83716-1CD1-47ED-B715-8773FED73F88";
layerId = "A2EAFE89-84B0-4683-969D-9F18295F9C9A";
name = "24 juin 25 à 10:01";
shapes = (
{
closed = 1;
nodes = (
(570,261,l),
(570,500,l),
(354,500,l),
(354,261,l)
);
},
{
closed = 1;
nodes = (
(354,352,l),
(354,143,l),
(358,101,l),
(359,47,o),
(360,15,o),
(369,-2,c),
(598,0,l),
(580,40,o),
(570,97,o),
(570,181,cs),
(570,352,l)
);
},
{
angle = 180;
pos = (510,500);
ref = _panse;
}
);
width = 626;
}
);
metricLeft = "=q";
metricRight = "=q";
},
{
color = 4;
glyphname = g.ss01;
lastChange = "2025-06-24 08:00:32 +0000";
layers = (
{
.lastUpdate = 773061985.695;
layerId = "D8D2F0D2-8948-448B-99CD-378CDFD0E0AE";
shapes = (
{
closed = 1;
nodes = (
(190,-160,o),
(168,-114,o),
(130,-114,cs),
(111,-114,o),
(102,-125,o),
(102,-138,cs),
(102,-176,o),
(176,-212,o),
(295,-212,cs),
(449,-212,o),
(528,-150,o),
(528,-3,cs),
(528,500,l),
(468,500,l),
(468,-5,ls),
(468,-108,o),
(410,-160,o),
(297,-160,cs)
);
},
{
angle = 180;
pos = (628,500);
ref = _panse;
}
);
width = 628;
},
{
.lastUpdate = 773073464.285;
layerId = "83B83716-1CD1-47ED-B715-8773FED73F88";
shapes = (
{
closed = 1;
nodes = (
(172,-40,o),
(150,-21,o),
(113,-21,cs),
(67,-21,o),
(39,-52,o),
(39,-99,cs),
(39,-170,o),
(104,-210,o),
(252,-210,cs),
(417,-210,o),
(570,-154,o),
(570,41,cs),
(570,500,l),
(354,500,l),
(354,51,ls),
(354,-11,o),
(315,-40,o),
(236,-40,cs)
);
},
{
angle = 180;
pos = (510,500);
ref = _panse;
}
);
width = 598;
}
);
metricLeft = "=q";
metricRight = "=q";
},
{
color = 9;
glyphname = f_f;
lastChange = "2025-06-27 08:45:20 +0000";
layers = (
{
.lastUpdate = 773061985.758;
layerId = "D8D2F0D2-8948-448B-99CD-378CDFD0E0AE";
shapes = (
{
closed = 1;
nodes = (
(170,556,ls),
(170,632,o),
(214,660,o),
(260,660,cs),
(291,660,o),
(309,647,o),
(326,647,cs),
(341,647,o),
(350,657,o),
(350,671,cs),
(350,696,o),
(321,712,o),
(269,712,cs),
(176,712,o),
(110,659,o),
(110,556,cs),
(110,-80,ls),
(112,-146,o),
(80,-172,o),
(43,-173,cs),
(16,-174,o),
(3,-162,o),
(-15,-162,cs),
(-32,-163,o),
(-39,-175,o),
(-39,-187,cs),
(-38,-213,o),
(-4,-227,o),
(41,-225,cs),
(122,-223,o),
(173,-173,o),
(170,-80,c)
);
},
{
closed = 1;
nodes = (
(110,446,l),
(110,512,l),
(61,498,ls),
(37,491,o),
(30,480,o),
(30,469,cs),
(30,457,o),
(38,446,o),
(61,446,cs)
);
},
{
closed = 1;
nodes = (
(420,446,l),
(420,500,l),
(120,500,l),
(120,446,l)
);
},
{
pos = (312,0);
ref = f;
}
);
width = 674;
},
{
.lastUpdate = 773073464.239;
layerId = "83B83716-1CD1-47ED-B715-8773FED73F88";
shapes = (
{
ref = f;
},
{
pos = (434,0);
ref = f;
}
);
width = 868;
}
);
metricLeft = f;
metricRight = f;
},
{
glyphname = zero;
lastChange = "2025-06-27 15:57:48 +0000";
layers = (
{
.lastUpdate = 772732668.919;
layerId = "D8D2F0D2-8948-448B-99CD-378CDFD0E0AE";
shapes = (
{
closed = 1;
nodes = (
(472,-12,o),
(576,127,o),
(576,351,cs),
(576,572,o),
(476,712,o),
(302,712,cs),
(128,712,o),
(24,573,o),
(24,349,cs),
(24,128,o),
(124,-12,o),
(298,-12,cs)
);
},
{
closed = 1;
nodes = (
(166,44,o),
(90,167,o),
(90,350,cs),
(90,539,o),
(171,656,o),
(301,656,cs),
(434,656,o),
(510,533,o),
(510,350,cs),
(510,161,o),
(429,44,o),
(299,44,cs)
);
}
);
width = 600;
},
{
layerId = "83B83716-1CD1-47ED-B715-8773FED73F88";
shapes = (
{
closed = 1;
nodes = (
(543,-12,o),
(656,116,o),
(656,351,cs),
(656,584,o),
(543,712,o),
(337,712,cs),
(126,712,o),
(4,579,o),
(4,349,cs),
(4,119,o),
(125,-12,o),
(335,-12,cs)
);
},
{
closed = 1;
nodes = (
(280,202,o),
(250,247,o),
(250,344,cs),
(250,452,o),
(282,498,o),
(331,498,cs),
(380,498,o),
(410,453,o),
(410,356,cs),
(410,248,o),
(378,202,o),
(329,202,cs)
);
}
);
width = 660;
}
);
metricRight = "=|";
unicode = 48;
},
{
glyphname = one;
lastChange = "2025-07-01 12:39:37 +0000";
layers = (
{
.lastUpdate = 773066291.002;
layerId = "D8D2F0D2-8948-448B-99CD-378CDFD0E0AE";
shapes = (
{
closed = 1;
nodes = (
(314,0,l),
(314,700,l),
(250,660,l),
(250,0,l)
);
},
{
closed = 1;
nodes = (
(284,652,l),
(314,700,l),
(250,700,l),
(102,628,ls),
(38,597,o),
(69,538,o),
(127,569,cs)
);
}
);
width = 440;
},
{
associatedMasterId = "83B83716-1CD1-47ED-B715-8773FED73F88";
layerId = "33F37872-CD9F-4A22-B42C-8D096CD9FEB9";
name = "18 juin 25 à 15:18";
shapes = (
{
closed = 1;
nodes = (
(496,0,l),
(496,700,l),
(260,700,l),
(260,0,l)
);
},
{
closed = 1;
nodes = (
(347,524,l),
(260,700,l),
(96,608,ls),
(-54,524,o),
(81,319,o),
(217,424,cs)
);
}
);
width = 540;
},
{
associatedMasterId = "83B83716-1CD1-47ED-B715-8773FED73F88";
layerId = "DC2D5E3A-78FC-4774-9298-ED9D57133AF4";
name = "18 juin 25 à 15:20";
shapes = (
{
closed = 1;
nodes = (
(516,0,l),
(516,547,ls),
(516,758,o),
(403,765,o),
(116,684,c),
(116,459,l),
(280,492,l),
(280,0,l)
);
}
);
width = 600;
},
{
.lastUpdate = 773066377.291;
layerId = "83B83716-1CD1-47ED-B715-8773FED73F88";
name = Black;
shapes = (
{
closed = 1;
nodes = (
(468,0,l),
(468,712,l),
(232,557,l),
(232,0,l)
);
},
{
closed = 1;
nodes = (
(399,580,l),
(468,712,l),
(232,712,l),
(84,631,ls),
(-86,538,o),
(45,306,o),
(210,433,cs)
);
}
);
width = 560;
}
);
unicode = 49;
},
{
glyphname = two;
lastChange = "2025-06-25 17:36:15 +0000";
layers = (
{
layerId = "D8D2F0D2-8948-448B-99CD-378CDFD0E0AE";
shapes = (
{
closed = 1;
nodes = (
(556,0,l),
(556,60,l),
(131,60,l),
(123,337,o),
(544,252,o),
(544,515,cs),
(544,633,o),
(459,712,o),
(318,712,cs),
(192,712,o),
(89,648,o),
(89,588,cs),
(89,569,o),
(100,561,o),
(114,561,cs),
(161,561,o),
(179,656,o),
(315,656,cs),
(429,656,o),
(480,586,o),
(480,515,cs),
(480,311,o),
(67,371,o),
(67,61,cs),
(67,14,o),
(78,0,o),
(123,0,cs)
);
}
);
width = 600;
},
{
layerId = "83B83716-1CD1-47ED-B715-8773FED73F88";
shapes = (
{
closed = 1;
nodes = (
(606,0,l),
(606,210,l),
(292,210,l),
(292,238,o),
(604,234,o),
(604,484,cs),
(604,638,o),
(493,712,o),
(323,712,cs),
(209,712,o),
(30,677,o),
(30,545,cs),
(30,484,o),
(69,443,o),
(134,443,cs),
(221,443,o),
(248,516,o),
(316,516,cs),
(348,516,o),
(358,500,o),
(358,485,cs),
(358,399,o),
(30,390,o),
(30,171,cs),
(30,82,o),
(85,0,o),
(228,0,cs)
);
}
);
width = 640;
},
{
associatedMasterId = "D8D2F0D2-8948-448B-99CD-378CDFD0E0AE";
layerId = "24E6C80F-32C1-47B8-AF2C-0071E576D8FD";
name = "Sep 10 21, 23:45";
shapes = (
{
closed = 1;
nodes = (
(172,678,o),
(243,730,o),
(329,730,cs),
(426,730,o),
(481,664,o),
(481,574,cs),
(481,334,o),
(64,387,o),
(64,0,c),
(125,0,l),
(124,357,o),
(543,287,o),
(543,574,cs),
(543,700,o),
(463,790,o),
(331,790,cs),
(217,790,o),
(126,724,o),
(76,613,c),
(133,588,l)
);
},
{
closed = 1;
nodes = (
(94,0,l),
(556,0,l),
(556,60,l),
(94,60,l)
);
}
);
width = 600;
},
{
associatedMasterId = "83B83716-1CD1-47ED-B715-8773FED73F88";
layerId = "11449E8C-1221-4C3E-BFFD-AC7C675972DB";
name = "18 juin 25 à 18:05";
shapes = (
{
closed = 1;
nodes = (
(306,149,l),
(306,332,o),
(624,232,o),
(624,490,cs),
(624,638,o),
(513,712,o),
(343,712,cs),
(229,712,o),
(49,677,o),
(49,545,cs),
(49,484,o),
(88,443,o),
(153,443,cs),
(240,443,o),
(262,516,o),
(330,516,cs),
(362,516,o),
(378,500,o),
(378,480,cs),
(378,390,o),
(44,430,o),
(44,0,c)
);
},
{
closed = 1;
nodes = (
(626,0,l),
(626,190,l),
(94,190,l),
(44,0,l)
);
}
);
width = 660;
}
);
unicode = 50;
},
{
glyphname = three;
lastChange = "2025-06-25 11:38:55 +0000";
layers = (
{
layerId = "D8D2F0D2-8948-448B-99CD-378CDFD0E0AE";
shapes = (
{
closed = 1;
nodes = (
(442,-12,o),
(558,47,o),
(558,181,cs),
(558,360,o),
(357,383,o),
(255,383,c),
(255,336,l),
(382,336,o),
(494,288,o),
(494,180,cs),
(494,95,o),
(423,46,o),
(304,46,cs),
(227,46,o),
(157,67,o),
(94,97,c),
(94,39,l),
(149,8,o),
(218,-12,o),
(301,-12,cs)
);
},
{
closed = 1;
nodes = (
(255,336,l),
(255,394,l),
(185,394,l),
(185,336,l)
);
},
{
closed = 1;
nodes = (
(414,350,o),
(539,393,o),
(539,525,cs),
(539,633,o),
(455,712,o),
(314,712,cs),
(188,712,o),
(85,648,o),
(85,588,cs),
(85,569,o),
(96,561,o),
(110,561,cs),
(157,561,o),
(175,656,o),
(311,656,cs),
(408,656,o),
(475,600,o),
(475,522,cs),
(475,427,o),
(376,394,o),
(255,394,c),
(255,350,l)
);
}
);
width = 600;
},
{
layerId = "83B83716-1CD1-47ED-B715-8773FED73F88";
shapes = (
{
closed = 1;
nodes = (
(491,-12,o),
(616,68,o),
(616,209,cs),
(616,317,o),
(544,415,o),
(218,387,c),
(218,243,l),
(311,243,o),
(360,240,o),
(360,218,cs),
(360,198,o),
(319,184,o),
(253,184,cs),
(192,184,o),
(131,196,o),
(52,219,c),
(52,19,l),
(107,2,o),
(186,-12,o),
(277,-12,cs)
);
},
{
closed = 1;
nodes = (
(218,243,l),
(218,429,l),
(173,429,l),
(173,243,l)
);
},
{
closed = 1;
nodes = (
(512,312,o),
(596,391,o),
(596,505,cs),
(596,638,o),
(485,712,o),
(315,712,cs),
(201,712,o),
(22,677,o),
(22,545,cs),
(22,484,o),
(61,443,o),
(126,443,cs),
(213,443,o),
(240,516,o),
(308,516,cs),
(340,516,o),
(350,500,o),
(350,484,cs),
(350,447,o),
(294,429,o),
(217,429,c),
(217,307,l)
);
}
);
width = 640;
},
{
associatedMasterId = "D8D2F0D2-8948-448B-99CD-378CDFD0E0AE";
layerId = "FFA630A1-16CC-4EE5-8BC8-5692722E01EF";
name = "30 mai 25 à 17:26";
shapes = (
{
closed = 1;
nodes = (
(414,390,o),
(539,443,o),
(539,585,cs),
(539,700,o),
(457,790,o),
(325,790,cs),
(211,790,o),
(120,724,o),
(70,643,c),
(121,607,l),
(168,682,o),
(237,732,o),
(322,732,cs),
(420,732,o),
(475,664,o),
(475,580,cs),
(475,467,o),
(376,434,o),
(255,434,c),
(255,390,l)
);
},
{
closed = 1;
nodes = (
(484,115,o),
(417,48,o),
(296,48,cs),
(215,48,o),
(157,79,o),
(103,163,c),
(48,122,l),
(102,31,o),
(190,-10,o),
(293,-10,cs),
(436,-10,o),
(548,67,o),
(548,208,cs),
(548,396,o),
(357,425,o),
(255,425,c),
(255,376,l),
(382,376,o),
(484,324,o),
(484,207,cs)
);
},
{
closed = 1;
nodes = (
(185,376,l),
(255,376,l),
(255,434,l),
(185,434,l)
);
}
);
width = 600;
}
);
unicode = 51;
},
{
glyphname = four;
lastChange = "2025-06-25 17:38:19 +0000";
layers = (
{
layerId = "D8D2F0D2-8948-448B-99CD-378CDFD0E0AE";
shapes = (
{
closed = 1;
nodes = (
(574,184,l),
(574,242,l),
(33,242,l),
(49,209,l),
(456,700,l),
(392,700,l),
(38,276,ls),
(18,253,o),
(14,238,o),
(14,224,cs),
(14,198,o),
(32,184,o),
(68,184,cs)
);
},
{
closed = 1;
nodes = (
(456,0,l),
(456,700,l),
(392,700,l),
(392,0,l)
);
}
);
width = 600;
},
{
layerId = "83B83716-1CD1-47ED-B715-8773FED73F88";
shapes = (
{
closed = 1;
nodes = (
(630,98,l),
(630,308,l),
(175,308,l),
(200,273,l),
(556,700,l),
(326,700,l),
(73,399,ls),
(24,341,o),
(4,293,o),
(4,243,cs),
(4,159,o),
(61,98,o),
(174,98,cs)
);
},
{
closed = 1;
nodes = (
(562,0,l),
(562,700,l),
(326,700,l),
(326,0,l)
);
}
);
width = 640;
}
);
unicode = 52;
},
{
glyphname = five;
lastChange = "2025-06-25 17:41:54 +0000";
layers = (
{
layerId = "D8D2F0D2-8948-448B-99CD-378CDFD0E0AE";
shapes = (
{
closed = 1;
nodes = (
(424,-12,o),
(542,62,o),
(542,206,cs),
(542,345,o),
(433,470,o),
(116,399,c),
(147,364,l),
(185,700,l),
(127,700,l),
(94,410,ls),
(89,368,o),
(104,350,o),
(142,350,cs),
(172,350,o),
(210,361,o),
(269,361,cs),
(431,361,o),
(478,279,o),
(478,206,cs),
(478,111,o),
(399,46,o),
(278,46,cs),
(209,46,o),
(139,67,o),
(76,97,c),
(76,39,l),
(131,8,o),
(204,-12,o),
(279,-12,cs)
);
},
{
closed = 1;
nodes = (
(513,642,l),
(513,700,l),
(127,700,l),
(127,642,l)
);
}
);
width = 600;
},
{
layerId = "83B83716-1CD1-47ED-B715-8773FED73F88";
shapes = (
{
closed = 1;
nodes = (
(473,-12,o),
(598,68,o),
(598,231,cs),
(598,362,o),
(516,477,o),
(232,449,c),
(259,416,l),
(290,700,l),
(80,700,l),
(50,430,ls),
(36,304,o),
(74,245,o),
(194,245,cs),
(215,245,o),
(246,246,o),
(269,246,cs),
(317,246,o),
(342,241,o),
(342,222,cs),
(342,198,o),
(301,186,o),
(235,186,cs),
(174,186,o),
(113,196,o),
(34,219,c),
(34,19,l),
(89,2,o),
(168,-12,o),
(259,-12,cs)
);
},
{
closed = 1;
nodes = (
(566,490,l),
(566,700,l),
(80,700,l),
(80,490,l)
);
}
);
width = 640;
},
{
associatedMasterId = "83B83716-1CD1-47ED-B715-8773FED73F88";
layerId = "38CEFED5-5DBA-4C43-8E68-7406393EA72B";
name = "18 juin 25 à 15:14";
shapes = (
{
closed = 1;
nodes = (
(362,192,o),
(314,176,o),
(234,176,cs),
(178,176,o),
(121,184,o),
(64,199,c),
(64,19,l),
(119,2,o),
(198,-12,o),
(276,-12,cs),
(483,-12,o),
(608,82,o),
(608,240,cs),
(608,396,o),
(485,489,o),
(136,422,c),
(71,250,l),
(284,276,o),
(362,258,o),
(362,221,cs)
);
},
{
closed = 1;
nodes = (
(110,490,l),
(576,490,l),
(576,700,l),
(110,700,l)
);
},
{
closed = 1;
nodes = (
(71,250,l),
(304,386,l),
(333,700,l),
(110,700,l)
);
}
);
width = 660;
},
{
associatedMasterId = "D8D2F0D2-8948-448B-99CD-378CDFD0E0AE";
layerId = "D5492EE8-4C95-4716-8D8F-FA40D71A2829";
name = "18 juin 25 à 15:23";
shapes = (
{
closed = 1;
nodes = (
(495,115,o),
(417,48,o),
(296,48,cs),
(227,48,o),
(157,70,o),
(94,109,c),
(94,41,l),
(149,10,o),
(222,-10,o),
(297,-10,cs),
(440,-10,o),
(565,67,o),
(565,217,cs),
(565,352,o),
(460,482,o),
(163,428,c),
(105,363,l),
(423,426,o),
(495,312,o),
(495,215,cs)
);
},
{
closed = 1;
nodes = (
(145,682,l),
(531,682,l),
(531,740,l),
(145,740,l)
);
},
{
closed = 1;
nodes = (
(105,363,l),
(168,406,l),
(203,740,l),
(145,740,l)
);
}
);
width = 600;
}
);
unicode = 53;
},
{
glyphname = six;
lastChange = "2025-06-25 17:36:36 +0000";
layers = (
{
layerId = "D8D2F0D2-8948-448B-99CD-378CDFD0E0AE";
shapes = (
{
closed = 1;
nodes = (
(460,-12,o),
(560,83,o),
(560,219,cs),
(560,349,o),
(473,424,o),
(343,424,cs),
(259,424,o),
(168,393,o),
(99,334,c),
(102,278,l),
(181,340,o),
(258,366,o),
(331,366,cs),
(436,366,o),
(496,313,o),
(496,219,cs),
(496,115,o),
(423,46,o),
(317,46,cs),
(188,46,o),
(114,147,o),
(116,345,cs),
(118,517,o),
(174,652,o),
(330,652,cs),
(435,652,o),
(459,592,o),
(495,592,cs),
(510,592,o),
(520,602,o),
(520,618,cs),
(520,660,o),
(454,712,o),
(337,712,cs),
(129,712,o),
(54,547,o),
(54,343,cs),
(54,111,o),
(146,-12,o),
(314,-12,cs)
);
}
);
width = 600;
},
{
layerId = "83B83716-1CD1-47ED-B715-8773FED73F88";
shapes = (
{
closed = 1;
nodes = (
(520,-12,o),
(630,76,o),
(630,230,cs),
(630,367,o),
(541,455,o),
(407,455,cs),
(346,455,o),
(287,437,o),
(239,395,c),
(256,243,l),
(280,262,o),
(306,271,o),
(330,271,cs),
(366,271,o),
(386,251,o),
(386,219,cs),
(386,189,o),
(368,170,o),
(332,170,cs),
(285,170,o),
(256,203,o),
(256,335,cs),
(256,492,o),
(298,520,o),
(350,520,cs),
(420,520,o),
(433,470,o),
(509,470,cs),
(563,470,o),
(611,496,o),
(611,562,cs),
(611,667,o),
(495,712,o),
(356,712,cs),
(104,712,o),
(12,557,o),
(12,343,cs),
(12,109,o),
(121,-12,o),
(335,-12,cs)
);
}
);
width = 640;
},
{
associatedMasterId = "D8D2F0D2-8948-448B-99CD-378CDFD0E0AE";
layerId = "D28698A3-FBA8-4D76-95A0-9273F026368D";
name = "Sep 11 21, 15:19";
shapes = (
{
closed = 1;
nodes = (
(496,108,o),
(406,50,o),
(316,50,cs),
(188,50,o),
(106,167,o),
(108,387,cs),
(110,595,o),
(184,730,o),
(324,730,cs),
(407,730,o),
(471,682,o),
(497,591,c),
(560,612,l),
(516,736,o),
(430,790,o),
(327,790,cs),
(149,790,o),
(44,625,o),
(44,375,cs),
(44,131,o),
(146,-10,o),
(313,-10,cs),
(432,-10,o),
(560,62,o),
(560,235,cs),
(560,373,o),
(479,468,o),
(326,468,cs),
(241,468,o),
(169,439,o),
(89,386,c),
(92,322,l),
(167,379,o),
(243,406,o),
(317,406,cs),
(427,406,o),
(496,346,o),
(496,234,cs)
);
}
);
width = 600;
}
);
unicode = 54;
},
{
glyphname = seven;
lastChange = "2025-07-01 12:39:54 +0000";
layers = (
{
.lastUpdate = 773066389.778;
layerId = "D8D2F0D2-8948-448B-99CD-378CDFD0E0AE";
shapes = (
{
closed = 1;
nodes = (
(297,1,l),
(281,493,o),
(554,580,o),
(554,666,cs),
(554,688,o),
(536,700,o),
(506,700,cs),
(52,700,l),
(52,642,l),
(530,642,l),
(511,666,l),
(315,482,o),
(231,320,o),
(231,0,c)
);
}
);
width = 600;
},
{
.lastUpdate = 773066394.991;
layerId = "83B83716-1CD1-47ED-B715-8773FED73F88";
shapes = (
{
closed = 1;
nodes = (
(397,0,l),
(397,401,o),
(618,401,o),
(618,567,cs),
(618,660,o),
(548,700,o),
(462,700,cs),
(36,700,l),
(36,490,l),
(409,490,l),
(383,515,l),
(218,393,o),
(153,231,o),
(153,0,c)
);
}
);
width = 640;
},
{
associatedMasterId = "83B83716-1CD1-47ED-B715-8773FED73F88";
layerId = "02731102-84C4-48AF-8877-F7D64D06C195";
name = "18 juin 25 à 18:00";
shapes = (
{
closed = 1;
nodes = (
(197,370,o),
(167,241,o),
(167,125,cs),
(167,28,o),
(212,-12,o),
(288,-12,cs),
(364,-12,o),
(403,28,o),
(403,126,cs),
(403,245,o),
(425,341,o),
(598,510,c),
(343,510,l)
);
},
{
closed = 1;
nodes = (
(26,510,l),
(598,510,l),
(598,720,l),
(26,720,l)
);
}
);
width = 660;
},
{
associatedMasterId = "D8D2F0D2-8948-448B-99CD-378CDFD0E0AE";
layerId = "5C317E4A-5FA3-45F3-B3B0-2D9A4A897634";
name = "19 juin 25 à 18:28";
shapes = (
{
closed = 1;
nodes = (
(295,421,o),
(251,318,o),
(251,35,cs),
(251,10,o),
(264,-4,o),
(284,-4,cs),
(305,-4,o),
(317,11,o),
(317,36,cs),
(317,318,o),
(364,422,o),
(564,642,c),
(495,642,l)
);
},
{
closed = 1;
nodes = (
(52,642,l),
(564,642,l),
(564,700,l),
(52,700,l)
);
}
);
width = 600;
}
);
unicode = 55;
},
{
glyphname = eight;
lastChange = "2025-06-25 17:36:43 +0000";
layers = (
{
layerId = "D8D2F0D2-8948-448B-99CD-378CDFD0E0AE";
shapes = (
{
closed = 1;
nodes = (
(40,64,o),
(139,-12,o),
(297,-12,cs),
(460,-12,o),
(560,70,o),
(560,194,cs),
(560,316,o),
(461,389,o),
(303,389,cs),
(140,389,o),
(40,310,o),
(40,186,cs)
);
},
{
closed = 1;
nodes = (
(104,278,o),
(179,336,o),
(303,336,cs),
(424,336,o),
(496,280,o),
(496,191,cs),
(496,101,o),
(421,46,o),
(297,46,cs),
(176,46,o),
(104,99,o),
(104,187,cs)
);
},
{
closed = 1;
nodes = (
(60,409,o),
(151,343,o),
(297,343,cs),
(448,343,o),
(540,415,o),
(540,530,cs),
(540,641,o),
(449,712,o),
(303,712,cs),
(152,712,o),
(60,635,o),
(60,522,cs)
);
},
{
closed = 1;
nodes = (
(124,603,o),
(192,654,o),
(303,654,cs),
(411,654,o),
(476,604,o),
(476,527,cs),
(476,445,o),
(408,396,o),
(297,396,cs),
(189,396,o),
(124,444,o),
(124,523,cs)
);
}
);
width = 600;
},
{
layerId = "83B83716-1CD1-47ED-B715-8773FED73F88";
shapes = (
{
closed = 1;
nodes = (
(10,53,o),
(127,-12,o),
(321,-12,cs),
(523,-12,o),
(630,60,o),
(630,188,cs),
(630,323,o),
(514,389,o),
(320,389,cs),
(118,389,o),
(10,317,o),
(10,187,cs)
);
},
{
closed = 1;
nodes = (
(270,246,o),
(291,263,o),
(320,263,cs),
(349,263,o),
(370,247,o),
(370,210,cs),
(370,173,o),
(349,158,o),
(320,158,cs),
(291,158,o),
(270,173,o),
(270,209,cs)
);
},
{
closed = 1;
nodes = (
(24,368,o),
(135,296,o),
(321,296,cs),
(516,296,o),
(616,374,o),
(616,505,cs),
(616,641,o),
(506,712,o),
(320,712,cs),
(125,712,o),
(24,634,o),
(24,503,cs)
);
},
{
closed = 1;
nodes = (
(270,525,o),
(292,542,o),
(321,542,cs),
(349,542,o),
(370,526,o),
(370,490,cs),
(370,452,o),
(348,437,o),
(319,437,cs),
(291,437,o),
(270,452,o),
(270,488,cs)
);
}
);
width = 640;
}
);
unicode = 56;
},
{
glyphname = period;
lastChange = "2025-06-24 12:07:44 +0000";
layers = (
{
layerId = "D8D2F0D2-8948-448B-99CD-378CDFD0E0AE";
shapes = (
{
closed = 1;
nodes = (
(163,-12,o),
(180,10,o),
(180,36,cs),
(180,62,o),
(163,84,o),
(130,84,cs),
(97,84,o),
(80,62,o),
(80,36,cs),
(80,10,o),
(97,-12,o),
(130,-12,cs)
);
}
);
width = 260;
},
{
layerId = "83B83716-1CD1-47ED-B715-8773FED73F88";
shapes = (
{
closed = 1;
nodes = (
(211,-10,o),
(256,29,o),
(256,95,cs),
(256,162,o),
(211,200,o),
(142,200,cs),
(73,200,o),
(28,162,o),
(28,95,cs),
(28,29,o),
(73,-10,o),
(142,-10,cs)
);
}
);
width = 284;
}
);
metricRight = "=|";
unicode = 46;
},
{
glyphname = comma;
lastChange = "2025-06-25 14:33:14 +0000";
layers = (
{
layerId = "D8D2F0D2-8948-448B-99CD-378CDFD0E0AE";
shapes = (
{
closed = 1;
nodes = (
(168,-2,ls),
(192,46,o),
(178,84,o),
(143,84,cs),
(117,84,o),
(99,64,o),
(92,24,cs),
(66,-128,l),
(106,-128,l)
);
}
);
width = 260;
},
{
associatedMasterId = "D8D2F0D2-8948-448B-99CD-378CDFD0E0AE";
layerId = "2C36ACF3-8FFA-4AE6-9B89-C81ED3FEC674";
name = "24 juin 25 à 10:18";
shapes = (
{
closed = 1;
nodes = (
(149,-81,o),
(166,-23,o),
(166,18,cs),
(166,52,o),
(154,70,o),
(128,70,cs),
(102,70,o),
(90,52,o),
(90,22,cs),
(90,-17,o),
(110,-58,o),
(90,-140,c),
(120,-140,l)
);
}
);
width = 256;
},
{
associatedMasterId = "83B83716-1CD1-47ED-B715-8773FED73F88";
layerId = "ACCCF698-C6DE-463F-AC63-889BFE5C3189";
name = "24 juin 25 à 14:07";
shapes = (
{
closed = 1;
nodes = (
(88,-150,o),
(246,-94,o),
(246,70,cs),
(246,167,o),
(190,200,o),
(125,200,cs),
(48,200,o),
(22,154,o),
(22,91,cs),
(22,30,o),
(44,-14,o),
(-22,-13,c),
(-23,-150,l)
);
}
);
width = 278;
},
{
layerId = "83B83716-1CD1-47ED-B715-8773FED73F88";
name = Black;
shapes = (
{
closed = 1;
nodes = (
(213,7,ls),
(276,120,o),
(236,200,o),
(145,200,cs),
(82,200,o),
(38,162,o),
(30,79,cs),
(12,-120,l),
(142,-120,l)
);
}
);
width = 272;
}
);
metricRight = "=period";
unicode = 44;
},
{
glyphname = exclam;
lastChange = "2025-07-01 12:41:11 +0000";
layers = (
{
.lastUpdate = 773066830.459;
layerId = "D8D2F0D2-8948-448B-99CD-378CDFD0E0AE";
shapes = (
{
closed = 1;
nodes = (
(121,162,o),
(139,162,o),
(158,160,c),
(166,673,ls),
(167,724,o),
(93,724,o),
(94,673,cs),
(102,160,l)
);
},
{
ref = period;
}
);
width = 260;
},
{
.lastUpdate = 773073465.84;
layerId = "83B83716-1CD1-47ED-B715-8773FED73F88";
shapes = (
{
closed = 1;
nodes = (
(112,248,o),
(184,248,o),
(246,220,c),
(272,573,ls),
(286,762,o),
(10,762,o),
(24,573,cs),
(50,220,l)
);
},
{
ref = period;
}
);
width = 286;
}
);
unicode = 33;
},
{
glyphname = question;
lastChange = "2025-07-01 12:41:15 +0000";
layers = (
{
.lastUpdate = 773066830.46;
layerId = "D8D2F0D2-8948-448B-99CD-378CDFD0E0AE";
shapes = (
{
closed = 1;
nodes = (
(206,162,o),
(226,162,o),
(245,160,c),
(238,334,o),
(464,318,o),
(464,515,cs),
(464,633,o),
(383,712,o),
(242,712,cs),
(116,712,o),
(10,648,o),
(10,586,cs),
(10,569,o),
(19,559,o),
(33,559,cs),
(75,559,o),
(96,654,o),
(235,654,cs),
(349,654,o),
(400,586,o),
(400,515,cs),
(400,367,o),
(178,363,o),
(187,160,c)
);
},
{
pos = (86,0);
ref = period;
}
);
width = 490;
},
{
.lastUpdate = 773073465.839;
layerId = "83B83716-1CD1-47ED-B715-8773FED73F88";
shapes = (
{
closed = 1;
nodes = (
(242,248,o),
(314,248,o),
(376,220,c),
(369,363,o),
(576,310,o),
(576,502,cs),
(576,648,o),
(466,712,o),
(299,712,cs),
(180,712,o),
(20,679,o),
(20,556,cs),
(20,498,o),
(58,461,o),
(116,461,cs),
(197,461,o),
(226,532,o),
(301,532,cs),
(332,532,o),
(340,519,o),
(340,506,cs),
(340,441,o),
(127,450,o),
(180,220,c)
);
},
{
pos = (135,0);
ref = period;
}
);
width = 596;
}
);
unicode = 63;
},
{
glyphname = numbersign;
lastChange = "2025-07-01 14:37:25 +0000";
layers = (
{
.lastUpdate = 773073445.295;
layerId = "D8D2F0D2-8948-448B-99CD-378CDFD0E0AE";
shapes = (
{
closed = 1;
nodes = (
(176,0,l),
(276,700,l),
(225,700,l),
(125,0,l)
);
},
{
closed = 1;
nodes = (
(375,0,l),
(475,700,l),
(424,700,l),
(324,0,l)
);
},
{
closed = 1;
nodes = (
(46,450,l),
(584,450,l),
(584,500,l),
(46,500,l)
);
},
{
closed = 1;
nodes = (
(16,200,l),
(554,200,l),
(554,250,l),
(16,250,l)
);
}
);
width = 600;
},
{
layerId = "83B83716-1CD1-47ED-B715-8773FED73F88";
shapes = (
{
closed = 1;
nodes = (
(225,0,l),
(325,700,l),
(165,700,l),
(65,0,l)
);
},
{
closed = 1;
nodes = (
(436,0,l),
(536,700,l),
(376,700,l),
(276,0,l)
);
},
{
closed = 1;
nodes = (
(30,402,l),
(590,402,l),
(590,560,l),
(30,560,l)
);
},
{
closed = 1;
nodes = (
(10,140,l),
(570,140,l),
(570,298,l),
(10,298,l)
);
}
);
width = 600;
}
);
unicode = 35;
},
{
glyphname = slash;
lastChange = "2025-06-27 08:17:51 +0000";
layers = (
{
layerId = "D8D2F0D2-8948-448B-99CD-378CDFD0E0AE";
shapes = (
{
closed = 1;
nodes = (
(327,700,l),
(30,-100,l),
(85,-100,l),
(382,700,l)
);
}
);
width = 412;
},
{
layerId = "83B83716-1CD1-47ED-B715-8773FED73F88";
shapes = (
{
closed = 1;
nodes = (
(248,-100,l),
(546,700,l),
(318,700,l),
(20,-100,l)
);
}
);
width = 566;
}
);
metricRight = "=|";
unicode = 47;
},
{
glyphname = hyphen;
lastChange = "2025-06-25 08:53:46 +0000";
layers = (
{
layerId = "D8D2F0D2-8948-448B-99CD-378CDFD0E0AE";
shapes = (
{
closed = 1;
nodes = (
(64,233,l),
(356,233,l),
(356,289,l),
(64,289,l)
);
}
);
width = 420;
},
{
layerId = "83B83716-1CD1-47ED-B715-8773FED73F88";
shapes = (
{
closed = 1;
nodes = (
(34,159,l),
(362,159,l),
(362,355,l),
(34,355,l)
);
}
);
width = 396;
}
);
metricRight = "=|";
unicode = 45;
},
{
glyphname = endash;
lastChange = "2025-06-27 08:29:17 +0000";
layers = (
{
layerId = "D8D2F0D2-8948-448B-99CD-378CDFD0E0AE";
shapes = (
{
closed = 1;
nodes = (
(64,226,l),
(536,226,l),
(536,274,l),
(64,274,l)
);
}
);
width = 600;
},
{
layerId = "83B83716-1CD1-47ED-B715-8773FED73F88";
shapes = (
{
closed = 1;
nodes = (
(74,172,l),
(586,172,l),
(586,330,l),
(74,330,l)
);
}
);
width = 660;
}
);
unicode = 8211;
},
{
glyphname = emdash;
lastChange = "2025-06-27 08:29:12 +0000";
layers = (
{
layerId = "D8D2F0D2-8948-448B-99CD-378CDFD0E0AE";
shapes = (
{
closed = 1;
nodes = (
(64,225,l),
(836,225,l),
(836,275,l),
(64,275,l)
);
}
);
width = 900;
},
{
layerId = "83B83716-1CD1-47ED-B715-8773FED73F88";
shapes = (
{
closed = 1;
nodes = (
(74,172,l),
(916,172,l),
(916,330,l),
(74,330,l)
);
}
);
width = 990;
}
);
unicode = 8212;
},
{
glyphname = parenleft;
lastChange = "2025-06-24 17:26:07 +0000";
layers = (
{
layerId = "D8D2F0D2-8948-448B-99CD-378CDFD0E0AE";
shapes = (
{
closed = 1;
nodes = (
(260,-100,l),
(155,16,o),
(108,150,o),
(108,300,cs),
(108,450,o),
(156,586,o),
(260,700,c),
(203,700,l),
(97,594,o),
(44,460,o),
(44,296,cs),
(44,133,o),
(96,3,o),
(203,-100,c)
);
}
);
width = 280;
},
{
layerId = "83B83716-1CD1-47ED-B715-8773FED73F88";
shapes = (
{
closed = 1;
nodes = (
(348,-100,l),
(283,33,o),
(252,146,o),
(252,300,cs),
(252,454,o),
(283,568,o),
(348,700,c),
(192,700,l),
(74,598,o),
(16,474,o),
(16,296,cs),
(16,118,o),
(74,-1,o),
(192,-100,c)
);
}
);
width = 358;
}
);
unicode = 40;
},
{
glyphname = braceleft;
lastChange = "2025-06-25 11:40:06 +0000";
layers = (
{
layerId = "D8D2F0D2-8948-448B-99CD-378CDFD0E0AE";
shapes = (
{
closed = 1;
nodes = (
(20,290,l),
(392,290,o),
(-19,702,o),
(284,652,c),
(284,700,l),
(-89,740,o),
(306,324,o),
(20,324,c)
);
},
{
closed = 1;
nodes = (
(306,276,o),
(-89,-140,o),
(284,-100,c),
(284,-52,l),
(-19,-102,o),
(392,310,o),
(20,310,c),
(20,276,l)
);
}
);
width = 304;
},
{
layerId = "83B83716-1CD1-47ED-B715-8773FED73F88";
shapes = (
{
closed = 1;
nodes = (
(20,274,l),
(492,274,o),
(141,544,o),
(364,524,c),
(364,700,l),
(-129,740,o),
(222,388,o),
(20,388,c)
);
},
{
closed = 1;
nodes = (
(222,212,o),
(-129,-140,o),
(364,-100,c),
(364,76,l),
(141,56,o),
(492,326,o),
(20,326,c),
(20,212,l)
);
}
);
width = 374;
}
);
unicode = 123;
},
{
glyphname = bracketleft;
lastChange = "2025-06-25 08:53:06 +0000";
layers = (
{
layerId = "D8D2F0D2-8948-448B-99CD-378CDFD0E0AE";
shapes = (
{
closed = 1;
nodes = (
(114,-100,l),
(174,-100,l),
(174,700,l),
(114,700,l)
);
},
{
closed = 1;
nodes = (
(114,652,l),
(324,652,l),
(324,700,l),
(114,700,l)
);
},
{
closed = 1;
nodes = (
(114,-100,l),
(324,-100,l),
(324,-52,l),
(114,-52,l)
);
}
);
width = 356;
},
{
layerId = "83B83716-1CD1-47ED-B715-8773FED73F88";
shapes = (
{
closed = 1;
nodes = (
(30,-100,l),
(244,-100,l),
(244,700,l),
(30,700,l)
);
},
{
closed = 1;
nodes = (
(130,538,l),
(340,538,l),
(340,700,l),
(130,700,l)
);
},
{
closed = 1;
nodes = (
(130,-100,l),
(340,-100,l),
(340,62,l),
(130,62,l)
);
}
);
width = 376;
}
);
metricLeft = "=H";
unicode = 91;
},
{
glyphname = guilsinglleft;
lastChange = "2025-06-25 11:41:21 +0000";
layers = (
{
layerId = "D8D2F0D2-8948-448B-99CD-378CDFD0E0AE";
shapes = (
{
closed = 1;
nodes = (
(82,330,ls),
(46,289,o),
(46,271,o),
(82,230,cs),
(231,60,l),
(280,60,l),
(126,280,l),
(280,500,l),
(231,500,l)
);
}
);
width = 320;
},
{
layerId = "83B83716-1CD1-47ED-B715-8773FED73F88";
shapes = (
{
closed = 1;
nodes = (
(66,375,ls),
(-3,306,o),
(-3,234,o),
(66,165,cs),
(190,40,l),
(330,40,l),
(195,270,l),
(330,500,l),
(190,500,l)
);
}
);
width = 340;
}
);
unicode = 8249;
},
{
glyphname = quotesingle;
lastChange = "2025-07-01 12:40:36 +0000";
layers = (
{
.lastUpdate = 773066436.624;
layerId = "D8D2F0D2-8948-448B-99CD-378CDFD0E0AE";
shapes = (
{
closed = 1;
nodes = (
(136,500,l),
(161,648,ls),
(169,694,o),
(145,712,o),
(119,712,cs),
(93,712,o),
(69,694,o),
(77,648,cs),
(102,500,l)
);
}
);
width = 238;
},
{
.lastUpdate = 773066416.721;
layerId = "83B83716-1CD1-47ED-B715-8773FED73F88";
shapes = (
{
closed = 1;
nodes = (
(197,412,l),
(240,580,ls),
(265,679,o),
(207,732,o),
(138,732,cs),
(69,732,o),
(11,679,o),
(36,580,cs),
(79,412,l)
);
}
);
width = 276;
}
);
metricLeft = "=period";
metricRight = "=period";
unicode = 39;
},
{
glyphname = at;
lastChange = "2025-07-01 15:16:34 +0000";
layers = (
{
.lastUpdate = 773071462.516;
layerId = "D8D2F0D2-8948-448B-99CD-378CDFD0E0AE";
shapes = (
{
closed = 1;
nodes = (
(670,490,l),
(670,100,ls),
(670,36,o),
(708,10,o),
(764,10,cs),
(864,10,o),
(966,89,o),
(966,295,cs),
(966,553,o),
(799,712,o),
(534,712,cs),
(231,712,o),
(66,505,o),
(66,242,cs),
(66,-23,o),
(231,-212,o),
(541,-212,cs),
(653,-212,o),
(736,-187,o),
(817,-132,c),
(817,-80,l),
(735,-133,o),
(643,-156,o),
(541,-156,cs),
(265,-156,o),
(126,17,o),
(126,242,cs),
(126,468,o),
(264,656,o),
(534,656,cs),
(753,656,o),
(908,532,o),
(908,295,cs),
(908,123,o),
(829,60,o),
(766,60,cs),
(731,60,o),
(728,79,o),
(728,129,c),
(728,490,l)
);
},
{
closed = 1;
nodes = (
(670,207,l),
(670,100,o),
(598,52,o),
(521,52,cs),
(446,52,o),
(346,99,o),
(346,247,cs),
(346,388,o),
(439,448,o),
(519,448,cs),
(596,448,o),
(670,390,o),
(670,293,c),
(682,383,l),
(657,464,o),
(586,500,o),
(508,500,cs),
(378,500,o),
(286,402,o),
(286,247,cs),
(286,69,o),
(404,0,o),
(505,0,cs),
(580,0,o),
(657,37,o),
(694,131,c)
);
}
);
width = 1032;
},
{
.lastUpdate = 773075794.917;
layerId = "83B83716-1CD1-47ED-B715-8773FED73F88";
shapes = (
{
closed = 1;
nodes = (
(574,458,l),
(574,111,l),
(594,53,o),
(648,22,o),
(738,22,cs),
(917,22,o),
(1012,133,o),
(1012,312,cs),
(1012,580,o),
(810,712,o),
(541,712,cs),
(169,712,o),
(16,486,o),
(16,241,cs),
(16,-16,o),
(184,-212,o),
(543,-212,cs),
(665,-212,o),
(772,-189,o),
(847,-157,c),
(847,9,l),
(761,-20,o),
(656,-38,o),
(552,-38,cs),
(307,-38,o),
(214,62,o),
(214,242,cs),
(214,412,o),
(299,538,o),
(540,538,cs),
(727,538,o),
(820,461,o),
(820,291,cs),
(820,214,o),
(800,174,o),
(776,174,cs),
(763,174,o),
(756,186,o),
(756,210,cs),
(756,458,l)
);
},
{
closed = 1;
nodes = (
(574,243,l),
(574,197,o),
(550,182,o),
(527,182,cs),
(505,182,o),
(478,196,o),
(478,251,cs),
(478,301,o),
(501,321,o),
(528,321,cs),
(554,321,o),
(574,302,o),
(574,261,c),
(588,387,l),
(572,445,o),
(529,476,o),
(464,476,cs),
(356,476,o),
(276,390,o),
(276,247,cs),
(276,100,o),
(360,18,o),
(461,18,cs),
(524,18,o),
(577,50,o),
(592,119,c)
);
}
);
width = 1028;
},
{
.lastUpdate = 773067899.151;
associatedMasterId = "83B83716-1CD1-47ED-B715-8773FED73F88";
layerId = "CE0100F3-7AED-41E5-B60D-C5AF28C98FB6";
name = "1 juil. 25 à 15:03";
shapes = (
{
closed = 1;
nodes = (
(572,442,l),
(572,58,l),
(764,58,l),
(764,442,l)
);
},
{
closed = 1;
nodes = (
(572,267,l),
(572,221,o),
(548,206,o),
(525,206,cs),
(503,206,o),
(476,220,o),
(476,275,cs),
(476,325,o),
(499,345,o),
(526,345,cs),
(552,345,o),
(572,326,o),
(572,285,c),
(586,411,l),
(570,469,o),
(529,500,o),
(462,500,cs),
(354,500,o),
(274,414,o),
(274,271,cs),
(274,124,o),
(358,42,o),
(453,42,cs),
(514,42,o),
(565,74,o),
(590,143,c)
);
},
{
closed = 1;
nodes = (
(603,-166,o),
(690,-145,o),
(764,-119,c),
(764,31,l),
(679,4,o),
(589,-10,o),
(509,-10,cs),
(307,-10,o),
(218,86,o),
(218,266,cs),
(218,436,o),
(299,556,o),
(444,556,cs),
(522,556,o),
(572,522,o),
(572,442,c),
(764,442,l),
(764,614,o),
(648,712,o),
(450,712,cs),
(167,712,o),
(16,510,o),
(16,265,cs),
(16,8,o),
(182,-166,o),
(494,-166,cs)
);
}
);
width = 796;
}
);
metricLeft = "=C+10";
metricRight = "=|";
unicode = 64;
},
{
glyphname = ampersand;
lastChange = "2025-07-01 15:27:25 +0000";
layers = (
{
layerId = "D8D2F0D2-8948-448B-99CD-378CDFD0E0AE";
width = 600;
},
{
.lastUpdate = 773076445.904;
layerId = "83B83716-1CD1-47ED-B715-8773FED73F88";
shapes = (
{
closed = 1;
nodes = (
(561,-15,o),
(650,-31,o),
(766,0,c),
(766,186,l),
(712,175,o),
(682,169,o),
(618,222,cs),
(320,466,ls),
(299,484,o),
(291,499,o),
(291,513,cs),
(291,531,o),
(304,544,o),
(327,544,cs),
(350,544,o),
(363,531,o),
(363,511,cs),
(363,484,o),
(339,462,o),
(288,436,c),
(363,319,l),
(519,367,o),
(579,430,o),
(579,525,cs),
(579,656,o),
(468,712,o),
(333,712,cs),
(160,712,o),
(73,620,o),
(73,509,cs),
(73,438,o),
(109,383,o),
(161,337,cs),
(486,51,ls)
);
},
{
closed = 1;
nodes = (
(455,231,l),
(407,194,o),
(352,168,o),
(304,168,cs),
(264,168,o),
(238,186,o),
(238,222,cs),
(238,260,o),
(266,290,o),
(338,308,c),
(277,418,l),
(102,381,o),
(16,310,o),
(16,190,cs),
(16,67,o),
(109,-12,o),
(282,-12,cs),
(402,-12,o),
(507,25,o),
(574,96,c)
);
},
{
closed = 1;
nodes = (
(747,242,o),
(800,314,o),
(800,392,cs),
(800,458,o),
(762,501,o),
(692,501,cs),
(571,501,o),
(589,373,o),
(470,247,c),
(589,113,l)
);
}
);
width = 810;
},
{
associatedMasterId = "83B83716-1CD1-47ED-B715-8773FED73F88";
layerId = "0EB11DDA-F294-4D40-9187-D5DC5A7F9DF5";
name = "1 juil. 25 à 16:57";
shapes = (
{
closed = 1;
nodes = (
(827,0,l),
(386,454,ls),
(368,473,o),
(359,488,o),
(359,504,cs),
(359,522,o),
(370,538,o),
(397,538,cs),
(455,538,o),
(471,462,o),
(557,462,cs),
(620,462,o),
(655,504,o),
(655,561,cs),
(655,676,o),
(537,712,o),
(413,712,cs),
(209,712,o),
(117,616,o),
(117,509,cs),
(117,441,o),
(154,388,o),
(201,337,cs),
(515,0,l)
);
},
{
closed = 1;
nodes = (
(407,231,l),
(365,186,o),
(328,174,o),
(297,174,cs),
(262,174,o),
(240,190,o),
(240,221,cs),
(240,262,o),
(278,288,o),
(328,294,c),
(247,438,l),
(115,398,o),
(16,336,o),
(16,197,cs),
(16,49,o),
(129,-12,o),
(270,-12,cs),
(368,-12,o),
(460,18,o),
(524,106,c)
);
},
{
closed = 1;
nodes = (
(773,305,ls),
(813,337,o),
(834,373,o),
(834,414,cs),
(834,470,o),
(794,512,o),
(732,512,cs),
(679,512,o),
(640,481,o),
(602,440,cs),
(420,243,l),
(542,118,l)
);
}
);
width = 831;
}
);
metricLeft = "=o";
unicode = 38;
changeCount = 65;
},
{
glyphname = bar;
lastChange = "2025-06-27 08:16:30 +0000";
layers = (
{
layerId = "D8D2F0D2-8948-448B-99CD-378CDFD0E0AE";
shapes = (
{
closed = 1;
nodes = (
(164,-200,l),
(164,700,l),
(114,700,l),
(114,-200,l)
);
}
);
width = 278;
},
{
layerId = "83B83716-1CD1-47ED-B715-8773FED73F88";
shapes = (
{
closed = 1;
nodes = (
(190,-200,l),
(190,700,l),
(30,700,l),
(30,-200,l)
);
}
);
width = 220;
}
);
metricLeft = "=H";
metricRight = "=H";
unicode = 124;
},
{
glyphname = brokenbar;
lastChange = "2025-06-27 08:16:38 +0000";
layers = (
{
layerId = "D8D2F0D2-8948-448B-99CD-378CDFD0E0AE";
shapes = (
{
closed = 1;
nodes = (
(164,340,l),
(164,700,l),
(114,700,l),
(114,340,l)
);
},
{
closed = 1;
nodes = (
(164,-200,l),
(164,160,l),
(114,160,l),
(114,-200,l)
);
}
);
width = 278;
},
{
layerId = "83B83716-1CD1-47ED-B715-8773FED73F88";
shapes = (
{
closed = 1;
nodes = (
(190,360,l),
(190,700,l),
(30,700,l),
(30,360,l)
);
},
{
closed = 1;
nodes = (
(190,-200,l),
(190,140,l),
(30,140,l),
(30,-200,l)
);
}
);
width = 220;
}
);
metricLeft = "=H";
metricRight = "=H";
unicode = 166;
},
{
glyphname = dagger;
lastChange = "2025-06-27 08:20:39 +0000";
layers = (
{
layerId = "D8D2F0D2-8948-448B-99CD-378CDFD0E0AE";
shapes = (
{
closed = 1;
nodes = (
(190,300,l),
(190,700,l),
(140,700,l),
(140,300,l)
);
},
{
closed = 1;
nodes = (
(20,552,l),
(310,552,l),
(310,600,l),
(20,600,l)
);
}
);
width = 330;
},
{
layerId = "83B83716-1CD1-47ED-B715-8773FED73F88";
shapes = (
{
closed = 1;
nodes = (
(264,300,l),
(264,700,l),
(104,700,l),
(104,300,l)
);
},
{
closed = 1;
nodes = (
(10,488,l),
(358,488,l),
(358,646,l),
(10,646,l)
);
}
);
width = 368;
}
);
metricRight = "=|";
unicode = 8224;
},
{
glyphname = daggerdbl;
lastChange = "2025-06-27 08:20:45 +0000";
layers = (
{
layerId = "D8D2F0D2-8948-448B-99CD-378CDFD0E0AE";
shapes = (
{
closed = 1;
nodes = (
(190,300,l),
(190,700,l),
(140,700,l),
(140,300,l)
);
},
{
closed = 1;
nodes = (
(20,552,l),
(310,552,l),
(310,600,l),
(20,600,l)
);
},
{
closed = 1;
nodes = (
(20,400,l),
(310,400,l),
(310,448,l),
(20,448,l)
);
}
);
width = 330;
},
{
layerId = "83B83716-1CD1-47ED-B715-8773FED73F88";
shapes = (
{
closed = 1;
nodes = (
(264,300,l),
(264,700,l),
(104,700,l),
(104,300,l)
);
},
{
closed = 1;
nodes = (
(10,518,l),
(358,518,l),
(358,646,l),
(10,646,l)
);
},
{
closed = 1;
nodes = (
(10,354,l),
(358,354,l),
(358,482,l),
(10,482,l)
);
}
);
width = 368;
}
);
metricLeft = "=dagger";
metricRight = "=|";
unicode = 8225;
},
{
glyphname = cent;
lastChange = "2025-06-25 09:59:35 +0000";
layers = (
{
layerId = "D8D2F0D2-8948-448B-99CD-378CDFD0E0AE";
shapes = (
{
closed = 1;
nodes = (
(326,500,l),
(326,635,l),
(268,635,l),
(268,500,l)
);
},
{
closed = 1;
nodes = (
(326,-135,l),
(326,0,l),
(268,0,l),
(268,-135,l)
);
},
{
ref = c;
}
);
width = 508;
},
{
.lastUpdate = 773073466.44;
layerId = "83B83716-1CD1-47ED-B715-8773FED73F88";
shapes = (
{
closed = 1;
nodes = (
(353,500,l),
(353,635,l),
(223,635,l),
(223,500,l)
);
},
{
closed = 1;
nodes = (
(353,-135,l),
(353,0,l),
(223,0,l),
(223,-135,l)
);
},
{
ref = c;
}
);
width = 530;
}
);
unicode = 162;
},
{
glyphname = dollar;
lastChange = "2025-07-01 12:46:15 +0000";
layers = (
{
.lastUpdate = 773066830.461;
layerId = "D8D2F0D2-8948-448B-99CD-378CDFD0E0AE";
shapes = (
{
closed = 1;
nodes = (
(326,350,l),
(326,835,l),
(268,835,l),
(268,350,l)
);
},
{
closed = 1;
nodes = (
(326,-135,l),
(326,350,l),
(268,350,l),
(268,-135,l)
);
},
{
ref = S;
}
);
width = 592;
},
{
.lastUpdate = 773073466.44;
layerId = "83B83716-1CD1-47ED-B715-8773FED73F88";
shapes = (
{
closed = 1;
nodes = (
(383,700,l),
(383,835,l),
(253,835,l),
(253,700,l)
);
},
{
closed = 1;
nodes = (
(383,-135,l),
(383,0,l),
(253,0,l),
(253,-135,l)
);
},
{
ref = S;
}
);
width = 640;
}
);
unicode = 36;
},
{
glyphname = euro;
lastChange = "2025-06-25 08:51:00 +0000";
layers = (
{
anchors = (
{
name = bottom;
pos = (473,0);
},
{
name = top;
pos = (453,700);
}
);
layerId = "D8D2F0D2-8948-448B-99CD-378CDFD0E0AE";
shapes = (
{
closed = 1;
nodes = (
(30,390,l),
(496,390,l),
(496,442,l),
(30,442,l)
);
},
{
closed = 1;
nodes = (
(30,260,l),
(496,260,l),
(496,312,l),
(30,312,l)
);
},
{
closed = 1;
nodes = (
(550,-12,o),
(629,14,o),
(676,45,c),
(676,103,l),
(612,66,o),
(537,44,o),
(461,44,cs),
(277,44,o),
(184,170,o),
(184,346,cs),
(184,525,o),
(278,656,o),
(453,656,cs),
(608,656,o),
(627,557,o),
(670,557,cs),
(685,557,o),
(695,569,o),
(695,588,cs),
(695,654,o),
(584,712,o),
(455,712,cs),
(242,712,o),
(116,557,o),
(116,340,cs),
(116,128,o),
(237,-12,o),
(454,-12,cs)
);
}
);
width = 728;
},
{
anchors = (
{
name = bottom;
pos = (390,0);
},
{
name = top;
pos = (390,700);
}
);
layerId = "83B83716-1CD1-47ED-B715-8773FED73F88";
shapes = (
{
closed = 1;
nodes = (
(20,366,l),
(486,366,l),
(486,486,l),
(20,486,l)
);
},
{
closed = 1;
nodes = (
(20,216,l),
(486,216,l),
(486,336,l),
(20,336,l)
);
},
{
closed = 1;
nodes = (
(552,-12,o),
(624,13,o),
(686,44,c),
(686,226,l),
(618,199,o),
(557,182,o),
(487,182,cs),
(362,182,o),
(330,236,o),
(330,352,cs),
(330,462,o),
(357,518,o),
(433,518,cs),
(529,518,o),
(522,427,o),
(616,427,cs),
(669,427,o),
(722,456,o),
(722,534,cs),
(722,659,o),
(581,712,o),
(447,712,cs),
(209,711,o),
(84,545,o),
(84,340,cs),
(84,131,o),
(213,-12,o),
(451,-12,cs)
);
}
);
width = 722;
}
);
metricRight = "=C";
unicode = 8364;
},
{
glyphname = sterling;
lastChange = "2025-07-01 12:44:31 +0000";
layers = (
{
.lastUpdate = 773066550.27;
layerId = "D8D2F0D2-8948-448B-99CD-378CDFD0E0AE";
shapes = (
{
closed = 1;
nodes = (
(106,28,l),
(391,28,o),
(173,321,o),
(173,504,cs),
(173,601,o),
(235,656,o),
(338,656,cs),
(456,656,o),
(472,583,o),
(512,583,cs),
(526,583,o),
(537,592,o),
(537,609,cs),
(537,647,o),
(482,712,o),
(346,712,cs),
(200,712,o),
(111,636,o),
(111,505,cs),
(111,316,o),
(291,60,o),
(106,60,c)
);
},
{
closed = 1;
nodes = (
(53,0,l),
(566,0,l),
(566,60,l),
(53,60,l)
);
},
{
closed = 1;
nodes = (
(20,326,l),
(426,326,l),
(426,378,l),
(20,378,l)
);
}
);
width = 600;
},
{
.lastUpdate = 773066671.679;
layerId = "83B83716-1CD1-47ED-B715-8773FED73F88";
shapes = (
{
closed = 1;
nodes = (
(88,142,l),
(520,182,o),
(316,359,o),
(316,469,cs),
(316,502,o),
(334,520,o),
(363,520,cs),
(415,520,o),
(438,462,o),
(514,462,cs),
(577,462,o),
(612,504,o),
(612,564,cs),
(612,676,o),
(492,712,o),
(365,712,cs),
(168,712,o),
(74,626,o),
(74,495,cs),
(74,348,o),
(196,210,o),
(88,210,c)
);
},
{
closed = 1;
nodes = (
(38,0,l),
(616,0,l),
(616,210,l),
(38,210,l)
);
},
{
closed = 1;
nodes = (
(20,292,l),
(486,292,l),
(486,412,l),
(20,412,l)
);
}
);
width = 640;
}
);
unicode = 163;
},
{
glyphname = yen;
lastChange = "2025-07-01 12:45:18 +0000";
layers = (
{
.lastUpdate = 773066647.74;
anchors = (
{
name = bottom;
pos = (307,0);
},
{
name = top;
pos = (309,700);
},
{
name = topleft;
pos = (9,700);
}
);
layerId = "D8D2F0D2-8948-448B-99CD-378CDFD0E0AE";
shapes = (
{
closed = 1;
nodes = (
(85,390,l),
(299,390,l),
(299,442,l),
(85,442,l)
);
},
{
closed = 1;
nodes = (
(85,260,l),
(551,260,l),
(551,312,l),
(85,312,l)
);
},
{
closed = 1;
nodes = (
(317,390,l),
(551,390,l),
(551,442,l),
(317,442,l)
);
},
{
closed = 1;
nodes = (
(586,700,l),
(508,700,l),
(289,441,l),
(334,408,l)
);
},
{
closed = 1;
nodes = (
(338,0,l),
(338,459,l),
(276,459,l),
(276,0,l)
);
},
{
closed = 1;
nodes = (
(325,441,l),
(106,700,l),
(28,700,l),
(279,408,l)
);
}
);
width = 636;
},
{
.lastUpdate = 773066718.154;
anchors = (
{
name = bottom;
pos = (384,0);
},
{
name = top;
pos = (384,700);
},
{
name = topleft;
pos = (10,700);
}
);
layerId = "83B83716-1CD1-47ED-B715-8773FED73F88";
shapes = (
{
closed = 1;
nodes = (
(73,366,l),
(345,366,l),
(345,486,l),
(73,486,l)
);
},
{
closed = 1;
nodes = (
(73,216,l),
(715,216,l),
(715,336,l),
(73,336,l)
);
},
{
closed = 1;
nodes = (
(443,366,l),
(715,366,l),
(715,486,l),
(443,486,l)
);
},
{
closed = 1;
nodes = (
(768,700,l),
(476,700,l),
(290,434,l),
(480,342,l)
);
},
{
closed = 1;
nodes = (
(502,0,l),
(502,394,l),
(266,394,l),
(266,0,l)
);
},
{
closed = 1;
nodes = (
(478,434,l),
(292,700,l),
(0,700,l),
(288,342,l)
);
}
);
width = 788;
}
);
unicode = 165;
},
{
glyphname = plus;
lastChange = "2025-06-27 08:27:54 +0000";
layers = (
{
layerId = "D8D2F0D2-8948-448B-99CD-378CDFD0E0AE";
shapes = (
{
closed = 1;
nodes = (
(64,226,l),
(536,226,l),
(536,274,l),
(64,274,l)
);
},
{
closed = 1;
nodes = (
(325,20,l),
(325,480,l),
(275,480,l),
(275,20,l)
);
}
);
width = 600;
},
{
layerId = "83B83716-1CD1-47ED-B715-8773FED73F88";
shapes = (
{
closed = 1;
nodes = (
(74,172,l),
(586,172,l),
(586,330,l),
(74,330,l)
);
},
{
closed = 1;
nodes = (
(410,0,l),
(410,500,l),
(250,500,l),
(250,0,l)
);
}
);
width = 660;
}
);
unicode = 43;
},
{
glyphname = minus;
lastChange = "2025-06-27 08:28:10 +0000";
layers = (
{
layerId = "D8D2F0D2-8948-448B-99CD-378CDFD0E0AE";
shapes = (
{
closed = 1;
nodes = (
(64,226,l),
(536,226,l),
(536,274,l),
(64,274,l)
);
}
);
width = 600;
},
{
layerId = "83B83716-1CD1-47ED-B715-8773FED73F88";
shapes = (
{
closed = 1;
nodes = (
(74,172,l),
(586,172,l),
(586,330,l),
(74,330,l)
);
}
);
width = 660;
}
);
unicode = 8722;
},
{
glyphname = equal;
lastChange = "2025-06-27 08:26:58 +0000";
layers = (
{
layerId = "D8D2F0D2-8948-448B-99CD-378CDFD0E0AE";
shapes = (
{
closed = 1;
nodes = (
(64,377,l),
(536,377,l),
(536,425,l),
(64,425,l)
);
},
{
closed = 1;
nodes = (
(64,97,l),
(536,97,l),
(536,145,l),
(64,145,l)
);
}
);
width = 599;
},
{
layerId = "83B83716-1CD1-47ED-B715-8773FED73F88";
shapes = (
{
closed = 1;
nodes = (
(74,50,l),
(586,50,l),
(586,208,l),
(74,208,l)
);
},
{
closed = 1;
nodes = (
(74,292,l),
(586,292,l),
(586,450,l),
(74,450,l)
);
}
);
width = 660;
}
);
unicode = 61;
},
{
glyphname = percent;
lastChange = "2025-06-27 08:21:41 +0000";
layers = (
{
layerId = "D8D2F0D2-8948-448B-99CD-378CDFD0E0AE";
shapes = (
{
closed = 1;
nodes = (
(147,0,l),
(203,0,l),
(553,700,l),
(497,700,l)
);
},
{
alignment = -1;
ref = _percento;
},
{
alignment = -1;
pos = (376,-356);
ref = _percento;
}
);
width = 694;
},
{
.lastUpdate = 773073466.478;
layerId = "83B83716-1CD1-47ED-B715-8773FED73F88";
shapes = (
{
closed = 1;
nodes = (
(131,0,l),
(304,0,l),
(684,700,l),
(511,700,l)
);
},
{
alignment = -1;
pos = (-10,0);
ref = _percento;
},
{
alignment = -1;
pos = (422,-356);
ref = _percento;
}
);
width = 812;
}
);
metricRight = "=|";
unicode = 37;
},
{
glyphname = dotaccentcomb;
lastChange = "2025-07-01 12:29:01 +0000";
layers = (
{
anchors = (
{
name = _top;
pos = (130,500);
},
{
name = top;
pos = (130,740);
}
);
layerId = "D8D2F0D2-8948-448B-99CD-378CDFD0E0AE";
shapes = (
{
closed = 1;
nodes = (
(159,644,o),
(174,664,o),
(174,688,cs),
(174,712,o),
(159,732,o),
(130,732,cs),
(101,732,o),
(86,712,o),
(86,688,cs),
(86,664,o),
(101,644,o),
(130,644,cs)
);
}
);
width = 260;
},
{
.lastUpdate = 773065741.684;
anchors = (
{
name = _top;
pos = (142,500);
},
{
name = top;
pos = (142,780);
}
);
layerId = "83B83716-1CD1-47ED-B715-8773FED73F88";
shapes = (
{
closed = 1;
nodes = (
(221,520,o),
(262,561,o),
(262,626,cs),
(262,692,o),
(221,732,o),
(142,732,cs),
(63,732,o),
(22,692,o),
(22,626,cs),
(22,561,o),
(63,520,o),
(142,520,cs)
);
}
);
width = 284;
}
);
unicode = 775;
},
{
glyphname = gravecomb;
lastChange = "2025-06-27 07:59:24 +0000";
layers = (
{
anchors = (
{
name = _top;
pos = (180,500);
},
{
name = top;
pos = (150,750);
}
);
layerId = "D8D2F0D2-8948-448B-99CD-378CDFD0E0AE";
shapes = (
{
closed = 1;
nodes = (
(210,552,l),
(155,677,ls),
(137,718,o),
(123,732,o),
(104,732,cs),
(77,732,o),
(67,703,o),
(91,666,cs),
(164,552,l)
);
}
);
width = 287;
},
{
anchors = (
{
name = _top;
pos = (241,500);
},
{
name = top;
pos = (191,750);
}
);
layerId = "83B83716-1CD1-47ED-B715-8773FED73F88";
shapes = (
{
closed = 1;
nodes = (
(324,540,l),
(264,665,ls),
(244,707,o),
(214,732,o),
(156,732,cs),
(59,732,o),
(29,654,o),
(95,598,cs),
(164,540,l)
);
}
);
width = 384;
}
);
metricRight = "=|";
unicode = 768;
},
{
glyphname = hungarumlautcomb;
lastChange = "2025-06-25 12:21:42 +0000";
layers = (
{
anchors = (
{
name = _top;
pos = (175,500);
},
{
name = top;
pos = (215,750);
}
);
layerId = "D8D2F0D2-8948-448B-99CD-378CDFD0E0AE";
shapes = (
{
closed = 1;
nodes = (
(197,666,ls),
(218,706,o),
(214,732,o),
(189,732,cs),
(171,732,o),
(157,718,o),
(139,677,cs),
(84,552,l),
(136,552,l)
);
},
{
closed = 1;
nodes = (
(328,666,ls),
(349,706,o),
(345,732,o),
(320,732,cs),
(302,732,o),
(288,718,o),
(270,677,cs),
(215,552,l),
(267,552,l)
);
}
);
width = 426;
},
{
anchors = (
{
name = _top;
pos = (189,500);
},
{
name = top;
pos = (225,750);
}
);
layerId = "83B83716-1CD1-47ED-B715-8773FED73F88";
shapes = (
{
closed = 1;
nodes = (
(420,622,ls),
(457,681,o),
(441,732,o),
(373,732,cs),
(326,732,o),
(292,707,o),
(266,649,cs),
(218,540,l),
(368,540,l)
);
},
{
closed = 1;
nodes = (
(220,622,ls),
(257,681,o),
(241,732,o),
(173,732,cs),
(126,732,o),
(92,707,o),
(66,649,cs),
(18,540,l),
(168,540,l)
);
}
);
width = 456;
}
);
metricRight = "=|";
unicode = 779;
},
{
glyphname = caroncomb.alt;
lastChange = "2025-06-25 15:19:28 +0000";
layers = (
{
anchors = (
{
name = _caron;
pos = (20,500);
}
);
layerId = "D8D2F0D2-8948-448B-99CD-378CDFD0E0AE";
shapes = (
{
closed = 1;
nodes = (
(132,552,l),
(161,666,ls),
(172,708,o),
(166,732,o),
(140,732,cs),
(123,732,o),
(109,722,o),
(104,677,cs),
(90,552,l)
);
}
);
width = 256;
},
{
anchors = (
{
name = _caron;
pos = (66,500);
}
);
layerId = "83B83716-1CD1-47ED-B715-8773FED73F88";
shapes = (
{
closed = 1;
nodes = (
(252,540,l),
(282,598,ls),
(314,660,o),
(301,732,o),
(209,732,cs),
(156,732,o),
(115,707,o),
(110,635,cs),
(104,540,l)
);
}
);
width = 402;
}
);
metricRight = "=|";
},
{
glyphname = circumflexcomb;
lastChange = "2025-06-25 15:07:07 +0000";
layers = (
{
anchors = (
{
name = _top;
pos = (168,500);
},
{
name = top;
pos = (168,750);
}
);
layerId = "D8D2F0D2-8948-448B-99CD-378CDFD0E0AE";
shapes = (
{
closed = 1;
nodes = (
(84,552,l),
(168,678,l),
(252,552,l),
(298,552,l),
(216,694,ls),
(202,718,o),
(190,732,o),
(168,732,cs),
(146,732,o),
(134,719,o),
(120,695,cs),
(38,552,l)
);
}
);
width = 336;
},
{
anchors = (
{
name = _top;
pos = (224,500);
},
{
name = top;
pos = (224,750);
}
);
layerId = "83B83716-1CD1-47ED-B715-8773FED73F88";
shapes = (
{
closed = 1;
nodes = (
(174,540,l),
(224,603,l),
(274,540,l),
(424,540,l),
(368,639,ls),
(334,699,o),
(295,732,o),
(224,732,cs),
(153,732,o),
(114,699,o),
(80,639,cs),
(24,540,l)
);
}
);
width = 448;
}
);
metricRight = "=|";
unicode = 770;
},
{
glyphname = brevecomb;
lastChange = "2025-06-25 17:55:03 +0000";
layers = (
{
anchors = (
{
name = _top;
pos = (164,500);
},
{
name = top;
pos = (164,720);
}
);
layerId = "D8D2F0D2-8948-448B-99CD-378CDFD0E0AE";
shapes = (
{
closed = 1;
nodes = (
(27,720,l),
(14,603,o),
(69,552,o),
(164,552,cs),
(259,552,o),
(314,603,o),
(301,720,c),
(255,720,l),
(259,640,o),
(236,598,o),
(164,598,cs),
(92,598,o),
(69,640,o),
(73,720,c)
);
}
);
width = 328;
},
{
anchors = (
{
name = _top;
pos = (194,500);
},
{
name = top;
pos = (194,720);
}
);
layerId = "83B83716-1CD1-47ED-B715-8773FED73F88";
shapes = (
{
closed = 1;
nodes = (
(19,720,l),
(3,603,o),
(51,532,o),
(194,532,cs),
(337,532,o),
(385,603,o),
(369,720,c),
(251,720,l),
(255,688,o),
(228,674,o),
(194,674,cs),
(160,674,o),
(133,688,o),
(137,720,c)
);
}
);
width = 388;
}
);
metricRight = "=|";
unicode = 774;
},
{
glyphname = ringcomb;
lastChange = "2025-06-25 15:10:06 +0000";
layers = (
{
anchors = (
{
name = _top;
pos = (169,500);
},
{
name = top;
pos = (169,732);
}
);
layerId = "D8D2F0D2-8948-448B-99CD-378CDFD0E0AE";
shapes = (
{
closed = 1;
nodes = (
(246,530,o),
(292,570,o),
(292,631,cs),
(292,692,o),
(246,732,o),
(169,732,cs),
(92,732,o),
(46,692,o),
(46,631,cs),
(46,570,o),
(92,530,o),
(169,530,cs)
);
},
{
closed = 1;
nodes = (
(124,568,o),
(92,591,o),
(92,631,cs),
(92,671,o),
(124,694,o),
(169,694,cs),
(214,694,o),
(246,671,o),
(246,631,cs),
(246,591,o),
(214,568,o),
(169,568,cs)
);
}
);
width = 338;
},
{
anchors = (
{
name = _top;
pos = (169,500);
},
{
name = top;
pos = (169,732);
}
);
layerId = "83B83716-1CD1-47ED-B715-8773FED73F88";
shapes = (
{
closed = 1;
nodes = (
(272,530,o),
(318,569,o),
(318,631,cs),
(318,694,o),
(272,732,o),
(169,732,cs),
(66,732,o),
(20,694,o),
(20,631,cs),
(20,569,o),
(66,530,o),
(169,530,cs)
);
},
{
closed = 1;
nodes = (
(146,603,o),
(134,614,o),
(134,631,cs),
(134,648,o),
(146,659,o),
(169,659,cs),
(192,659,o),
(204,648,o),
(204,631,cs),
(204,614,o),
(192,603,o),
(169,603,cs)
);
}
);
width = 338;
}
);
metricRight = "=|";
unicode = 778;
},
{
glyphname = tildecomb;
lastChange = "2025-06-25 12:25:11 +0000";
layers = (
{
anchors = (
{
name = _top;
pos = (221,500);
},
{
name = top;
pos = (221,723);
}
);
layerId = "D8D2F0D2-8948-448B-99CD-378CDFD0E0AE";
shapes = (
{
closed = 1;
nodes = (
(363,563,o),
(390,614,o),
(390,677,cs),
(390,706,o),
(382,727,o),
(362,727,cs),
(351,727,o),
(338,721,o),
(338,681,cs),
(338,639,o),
(329,617,o),
(308,617,cs),
(294,617,o),
(278,627,o),
(260,641,cs),
(210,681,ls),
(182,703,o),
(161,713,o),
(136,713,cs),
(78,713,o),
(51,660,o),
(59,576,c),
(105,576,l),
(104,635,o),
(111,659,o),
(137,659,cs),
(154,659,o),
(166,649,o),
(183,635,cs),
(233,595,ls),
(261,572,o),
(288,563,o),
(310,563,cs)
);
}
);
width = 448;
},
{
anchors = (
{
name = _top;
pos = (240,500);
},
{
name = top;
pos = (230,723);
}
);
layerId = "83B83716-1CD1-47ED-B715-8773FED73F88";
shapes = (
{
closed = 1;
nodes = (
(400,522,o),
(454,562,o),
(454,642,cs),
(454,701,o),
(425,732,o),
(376,732,cs),
(338,732,o),
(317,714,o),
(317,687,cs),
(317,675,o),
(313,668,o),
(300,668,cs),
(293,668,o),
(285,670,o),
(273,675,cs),
(214,697,ls),
(189,706,o),
(164,712,o),
(139,712,cs),
(64,712,o),
(8,656,o),
(25,534,c),
(143,534,l),
(142,557,o),
(148,566,o),
(160,566,cs),
(167,566,o),
(176,563,o),
(187,559,cs),
(246,537,ls),
(272,527,o),
(298,522,o),
(325,522,cs)
);
}
);
width = 476;
}
);
metricRight = "=|";
unicode = 771;
},
{
glyphname = macroncomb;
lastChange = "2025-06-25 12:26:06 +0000";
layers = (
{
anchors = (
{
name = _top;
pos = (150,500);
},
{
name = top;
pos = (150,648);
}
);
layerId = "D8D2F0D2-8948-448B-99CD-378CDFD0E0AE";
shapes = (
{
closed = 1;
nodes = (
(24,646,l),
(276,646,l),
(276,700,l),
(24,700,l)
);
}
);
width = 300;
},
{
anchors = (
{
name = _top;
pos = (180,500);
},
{
name = top;
pos = (180,672);
}
);
layerId = "83B83716-1CD1-47ED-B715-8773FED73F88";
shapes = (
{
closed = 1;
nodes = (
(4,560,l),
(356,560,l),
(356,700,l),
(4,700,l)
);
}
);
width = 360;
}
);
metricRight = "=|";
unicode = 772;
},
{
glyphname = commaaccentcomb;
lastChange = "2025-06-25 13:22:17 +0000";
layers = (
{
anchors = (
{
name = _bottom;
pos = (134,0);
},
{
name = bottom;
pos = (116,-200);
}
);
layerId = "D8D2F0D2-8948-448B-99CD-378CDFD0E0AE";
shapes = (
{
closed = 1;
nodes = (
(152,-104,ls),
(173,-66,o),
(166,-34,o),
(134,-34,cs),
(111,-34,o),
(95,-50,o),
(89,-82,cs),
(66,-200,l),
(100,-200,l)
);
}
);
width = 230;
},
{
anchors = (
{
name = _bottom;
pos = (124,0);
},
{
name = bottom;
pos = (129,-200);
}
);
layerId = "83B83716-1CD1-47ED-B715-8773FED73F88";
shapes = (
{
closed = 1;
nodes = (
(211,-135,ls),
(260,-71,o),
(200,-34,o),
(121,-34,cs),
(63,-34,o),
(14,-56,o),
(7,-100,cs),
(-8,-200,l),
(162,-200,l)
);
}
);
width = 234;
}
);
metricRight = "=|";
unicode = 806;
},
{
glyphname = cedillacomb;
lastChange = "2025-06-25 14:43:52 +0000";
layers = (
{
anchors = (
{
name = _bottom;
pos = (119,0);
},
{
name = bottom;
pos = (119,-212);
}
);
layerId = "D8D2F0D2-8948-448B-99CD-378CDFD0E0AE";
shapes = (
{
closed = 1;
nodes = (
(158,-161,o),
(135,-170,o),
(103,-170,cs),
(74,-170,o),
(44,-163,o),
(18,-152,c),
(18,-192,l),
(41,-204,o),
(69,-212,o),
(104,-212,cs),
(161,-212,o),
(208,-191,o),
(208,-134,cs),
(208,-89,o),
(179,-50,o),
(60,-63,c),
(80,-78,l),
(93,18,l),
(53,18,l),
(42,-64,ls),
(39,-91,o),
(48,-100,o),
(77,-100,cs),
(84,-100,o),
(93,-100,o),
(98,-100,cs),
(137,-100,o),
(158,-112,o),
(158,-136,cs)
);
}
);
width = 246;
},
{
anchors = (
{
name = _bottom;
pos = (119,0);
},
{
name = bottom;
pos = (119,-212);
}
);
layerId = "83B83716-1CD1-47ED-B715-8773FED73F88";
shapes = (
{
closed = 1;
nodes = (
(127,-120,o),
(110,-126,o),
(86,-126,cs),
(69,-126,o),
(50,-123,o),
(30,-118,c),
(30,-200,l),
(59,-208,o),
(99,-212,o),
(132,-212,cs),
(223,-212,o),
(288,-183,o),
(288,-111,cs),
(288,-65,o),
(262,-12,o),
(109,-31,c),
(159,-75,l),
(171,18,l),
(51,18,l),
(41,-45,ls),
(35,-85,o),
(46,-96,o),
(85,-96,cs),
(95,-96,o),
(92,-96,o),
(97,-96,cs),
(121,-96,o),
(127,-101,o),
(127,-108,cs)
);
}
);
width = 318;
}
);
metricRight = "=|";
unicode = 807;
},
{
glyphname = ogonekcomb;
lastChange = "2025-06-25 15:07:23 +0000";
layers = (
{
anchors = (
{
name = _ogonek;
pos = (183,0);
}
);
layerId = "D8D2F0D2-8948-448B-99CD-378CDFD0E0AE";
shapes = (
{
closed = 1;
nodes = (
(176,10,l),
(120,-30,o),
(84,-71,o),
(84,-124,cs),
(84,-179,o),
(123,-212,o),
(187,-212,cs),
(219,-212,o),
(246,-204,o),
(266,-192,c),
(266,-152,l),
(243,-163,o),
(219,-170,o),
(197,-170,cs),
(160,-170,o),
(138,-150,o),
(138,-115,cs),
(138,-75,o),
(167,-31,o),
(228,15,c)
);
}
);
width = 270;
},
{
anchors = (
{
name = _ogonek;
pos = (231,0);
}
);
layerId = "83B83716-1CD1-47ED-B715-8773FED73F88";
shapes = (
{
closed = 1;
nodes = (
(167,36,l),
(75,7,o),
(18,-46,o),
(18,-111,cs),
(18,-178,o),
(79,-212,o),
(163,-212,cs),
(204,-212,o),
(244,-204,o),
(276,-192,c),
(276,-72,l),
(258,-79,o),
(240,-83,o),
(222,-83,cs),
(198,-83,o),
(177,-76,o),
(177,-55,cs),
(177,-34,o),
(197,-9,o),
(260,23,c)
);
}
);
width = 300;
}
);
unicode = 808;
},
{
glyphname = strokeshortcomb;
lastChange = "2025-06-25 15:02:56 +0000";
layers = (
{
anchors = (
{
name = _center;
pos = (168,590);
}
);
layerId = "D8D2F0D2-8948-448B-99CD-378CDFD0E0AE";
shapes = (
{
closed = 1;
nodes = (
(0,590,l),
(336,590,l),
(336,642,l),
(0,642,l)
);
}
);
width = 336;
},
{
anchors = (
{
name = _center;
pos = (199,576);
}
);
layerId = "83B83716-1CD1-47ED-B715-8773FED73F88";
shapes = (
{
closed = 1;
nodes = (
(0,546,l),
(398,546,l),
(398,666,l),
(0,666,l)
);
}
);
width = 398;
}
);
unicode = 821;
},
{
glyphname = slashshortcomb;
lastChange = "2025-06-25 16:16:55 +0000";
layers = (
{
anchors = (
{
name = _center;
pos = (215,330);
}
);
layerId = "83B83716-1CD1-47ED-B715-8773FED73F88";
shapes = (
{
closed = 1;
nodes = (
(30,203,l),
(400,330,l),
(400,457,l),
(30,330,l)
);
}
);
width = 430;
},
{
anchors = (
{
name = _center;
pos = (135,332);
}
);
layerId = "D8D2F0D2-8948-448B-99CD-378CDFD0E0AE";
shapes = (
{
closed = 1;
nodes = (
(0,258,l),
(270,351,l),
(270,406,l),
(0,313,l)
);
}
);
width = 270;
}
);
unicode = 823;
},
{
color = 3;
glyphname = _A.ss01;
lastChange = "2025-06-20 12:41:17 +0000";
layers = (
{
layerId = "D8D2F0D2-8948-448B-99CD-378CDFD0E0AE";
width = 600;
},
{
layerId = "83B83716-1CD1-47ED-B715-8773FED73F88";
shapes = (
{
closed = 1;
nodes = (
(295,712,o),
(243,646,o),
(216,571,cs),
(10,0,l),
(263,0,l),
(413,486,l),
(377,486,l),
(530,0,l),
(786,0,l),
(579,571,ls),
(546,661,o),
(487,712,o),
(397,712,cs)
);
},
{
closed = 1;
nodes = (
(202,84,l),
(604,84,l),
(604,294,l),
(202,294,l)
);
}
);
width = 796;
}
);
metricLeft = A;
metricRight = A;
},
{
color = 3;
glyphname = _E.ss06;
lastChange = "2025-06-20 12:41:28 +0000";
layers = (
{
layerId = "D8D2F0D2-8948-448B-99CD-378CDFD0E0AE";
width = 600;
},
{
layerId = "83B83716-1CD1-47ED-B715-8773FED73F88";
shapes = (
{
closed = 1;
nodes = (
(491,304,l),
(491,438,l),
(343,434,o),
(284,445,o),
(284,481,cs),
(284,502,o),
(304,518,o),
(347,518,c),
(354,712,l),
(150,712,o),
(24,626,o),
(24,497,cs),
(24,366,o),
(154,304,o),
(364,304,cs)
);
},
{
closed = 1;
nodes = (
(164,390,o),
(24,324,o),
(24,186,cs),
(24,64,o),
(134,-12,o),
(334,-12,cs),
(464,-12,o),
(569,20,o),
(621,54,c),
(621,240,l),
(531,200,o),
(448,182,o),
(374,182,cs),
(304,182,o),
(284,198,o),
(284,217,cs),
(284,249,o),
(341,260,o),
(491,256,c),
(491,390,l),
(364,390,ls)
);
},
{
closed = 1;
nodes = (
(347,518,l),
(433,518,o),
(464,458,o),
(541,458,cs),
(594,458,o),
(644,485,o),
(644,557,cs),
(644,675,o),
(488,712,o),
(354,712,c)
);
}
);
width = 654;
},
{
associatedMasterId = "83B83716-1CD1-47ED-B715-8773FED73F88";
layerId = "FF91B9C3-5B47-4C6F-A445-6EBD73942599";
name = "17 juin 25 à 13:40";
shapes = (
{
closed = 1;
nodes = (
(414,300,l),
(414,440,l),
(294,440,ls),
(229,440,o),
(217,461,o),
(217,479,cs),
(217,500,o),
(233,514,o),
(291,514,cs),
(347,514,o),
(434,500,o),
(524,460,c),
(524,640,l),
(482,680,o),
(399,712,o),
(287,712,cs),
(103,712,o),
(-3,626,o),
(-3,484,cs),
(-3,346,o),
(77,300,o),
(287,300,cs)
);
},
{
closed = 1;
nodes = (
(77,400,o),
(-3,354,o),
(-3,216,cs),
(-3,74,o),
(103,-12,o),
(287,-12,cs),
(399,-12,o),
(482,20,o),
(524,60,c),
(524,240,l),
(434,200,o),
(347,186,o),
(291,186,cs),
(233,186,o),
(217,200,o),
(217,221,cs),
(217,239,o),
(229,260,o),
(294,260,cs),
(414,260,l),
(414,400,l),
(287,400,ls)
);
}
);
width = 600;
}
);
},
{
color = 3;
glyphname = _G.ss01;
lastChange = "2025-06-20 12:41:20 +0000";
layers = (
{
layerId = "D8D2F0D2-8948-448B-99CD-378CDFD0E0AE";
width = 600;
},
{
layerId = "83B83716-1CD1-47ED-B715-8773FED73F88";
shapes = (
{
closed = 1;
nodes = (
(498,-12,o),
(596,13,o),
(668,54,c),
(668,234,l),
(577,213,o),
(486,184,o),
(407,184,cs),
(300,184,o),
(252,238,o),
(252,346,cs),
(252,451,o),
(297,516,o),
(367,516,c),
(379,712,l),
(141,711,o),
(6,545,o),
(6,340,cs),
(6,131,o),
(145,-12,o),
(393,-12,cs)
);
},
{
closed = 1;
nodes = (
(362,412,l),
(362,232,l),
(438,232,l),
(438,44,l),
(668,54,l),
(668,412,l)
);
},
{
closed = 1;
nodes = (
(367,516,l),
(448,516,o),
(467,435,o),
(566,435,cs),
(614,435,o),
(670,454,o),
(670,532,cs),
(670,657,o),
(524,712,o),
(379,712,c)
);
}
);
width = 698;
}
);
metricLeft = "=O";
metricRight = "=u";
},
{
color = 3;
glyphname = _M.ss05;
lastChange = "2025-06-20 12:41:22 +0000";
layers = (
{
layerId = "D8D2F0D2-8948-448B-99CD-378CDFD0E0AE";
width = 600;
},
{
associatedMasterId = "83B83716-1CD1-47ED-B715-8773FED73F88";
layerId = "8E34BEC1-F89E-4A90-BB21-37AA1D1F3CB3";
name = "17 juin 25 à 13:35";
shapes = (
{
closed = 1;
nodes = (
(910,606,o),
(806,700,o),
(635,700,cs),
(559,700,o),
(499,678,o),
(450,576,c),
(489,576,l),
(441,678,o),
(381,700,o),
(304,700,cs),
(134,700,o),
(30,606,o),
(30,335,cs),
(30,240,o),
(48,125,o),
(105,-10,c),
(328,-10,l),
(288,125,o),
(272,240,o),
(272,345,cs),
(272,453,o),
(289,478,o),
(320,478,cs),
(366,478,o),
(360,419,o),
(360,140,c),
(580,140,l),
(580,419,o),
(574,478,o),
(621,478,cs),
(651,478,o),
(668,453,o),
(668,345,cs),
(668,240,o),
(653,125,o),
(612,-10,c),
(835,-10,l),
(891,125,o),
(910,240,o),
(910,335,cs)
);
}
);
width = 940;
},
{
associatedMasterId = "83B83716-1CD1-47ED-B715-8773FED73F88";
layerId = "076BEF1D-8258-4460-BDAC-72C95781E0A1";
name = "18 juin 25 à 09:52";
shapes = (
{
closed = 1;
nodes = (
(566,118,l),
(566,368,o),
(585,437,o),
(626,437,cs),
(658,437,o),
(668,395,o),
(668,319,cs),
(668,227,o),
(653,107,o),
(630,0,c),
(846,0,l),
(878,111,o),
(900,233,o),
(900,356,cs),
(900,622,o),
(799,712,o),
(659,712,cs),
(557,712,o),
(471,664,o),
(427,493,c),
(481,493,l),
(436,665,o),
(351,712,o),
(249,712,cs),
(109,712,o),
(8,622,o),
(8,356,cs),
(8,233,o),
(30,111,o),
(62,0,c),
(278,0,l),
(255,107,o),
(240,227,o),
(240,319,cs),
(240,395,o),
(250,437,o),
(282,437,cs),
(323,437,o),
(342,368,o),
(342,118,c)
);
}
);
width = 908;
},
{
layerId = "83B83716-1CD1-47ED-B715-8773FED73F88";
name = Black;
shapes = (
{
closed = 1;
nodes = (
(918,616,o),
(794,710,o),
(643,710,cs),
(567,710,o),
(487,688,o),
(438,586,c),
(487,586,l),
(439,688,o),
(359,710,o),
(282,710,cs),
(132,710,o),
(8,616,o),
(8,367,cs),
(8,250,o),
(36,125,o),
(104,0,c),
(326,0,l),
(276,135,o),
(260,250,o),
(260,355,cs),
(260,453,o),
(277,478,o),
(308,478,cs),
(354,478,o),
(348,419,o),
(348,200,c),
(578,200,l),
(578,419,o),
(572,478,o),
(619,478,cs),
(649,478,o),
(666,453,o),
(666,355,cs),
(666,250,o),
(651,135,o),
(600,0,c),
(822,0,l),
(889,125,o),
(918,250,o),
(918,367,cs)
);
}
);
width = 926;
}
);
metricRight = "=|";
},
{
color = 3;
glyphname = _Q.ss05;
lastChange = "2025-06-20 12:41:24 +0000";
layers = (
{
layerId = "D8D2F0D2-8948-448B-99CD-378CDFD0E0AE";
width = 600;
},
{
.lastUpdate = 773073463.571;
layerId = "83B83716-1CD1-47ED-B715-8773FED73F88";
shapes = (
{
closed = 1;
nodes = (
(343,-134,o),
(429,-200,o),
(547,-200,cs),
(646,-200,o),
(693,-153,o),
(693,-86,cs),
(693,-28,o),
(657,-1,o),
(614,-1,cs),
(561,-1,o),
(523,-42,o),
(504,61,c),
(296,44,l)
);
},
{
ref = O;
}
);
width = 742;
},
{
associatedMasterId = "83B83716-1CD1-47ED-B715-8773FED73F88";
layerId = "A96A6D61-9DA2-409D-A341-A2E29CB7D9C1";
name = "18 juin 25 à 17:07";
shapes = (
{
closed = 1;
nodes = (
(303,-124,o),
(379,-200,o),
(518,-200,cs),
(626,-200,o),
(693,-153,o),
(693,-82,cs),
(693,-32,o),
(659,-3,o),
(615,-3,cs),
(573,-3,o),
(558,-30,o),
(531,-30,cs),
(501,-30,o),
(491,3,o),
(504,61,c),
(316,44,l)
);
},
{
ref = O;
}
);
width = 742;
}
);
metricLeft = "=O";
metricRight = "=O";
},
{
color = 3;
glyphname = _R.ss06;
lastChange = "2025-06-20 12:41:29 +0000";
layers = (
{
layerId = "D8D2F0D2-8948-448B-99CD-378CDFD0E0AE";
shapes = (
{
closed = 1;
nodes = (
(644,0,l),
(465,362,l),
(399,361,l),
(575,0,l)
);
},
{
closed = 1;
nodes = (
(364,325,ls),
(535,325,o),
(633,395,o),
(633,519,cs),
(633,641,o),
(538,700,o),
(364,700,cs),
(145,700,l),
(145,643,l),
(364,643,ls),
(498,643,o),
(567,608,o),
(567,518,cs),
(567,427,o),
(498,382,o),
(364,382,cs),
(145,382,l),
(145,325,l)
);
},
{
closed = 1;
nodes = (
(178,0,l),
(178,700,l),
(114,700,l),
(114,0,l)
);
}
);
width = 694;
},
{
layerId = "83B83716-1CD1-47ED-B715-8773FED73F88";
shapes = (
{
closed = 1;
nodes = (
(395,212,o),
(412,174,o),
(412,0,c),
(658,0,l),
(658,255,o),
(619,317,o),
(418,317,cs),
(231,317,l),
(221,212,l),
(308,212,ls)
);
},
{
closed = 1;
nodes = (
(266,0,l),
(266,700,l),
(30,700,l),
(30,0,l)
);
},
{
closed = 1;
nodes = (
(362,252,ls),
(556,252,o),
(672,304,o),
(672,462,cs),
(672,615,o),
(564,700,o),
(362,700,cs),
(178,700,l),
(178,500,l),
(335,500,ls),
(402,500,o),
(424,482,o),
(424,451,cs),
(424,419,o),
(398,402,o),
(335,402,cs),
(178,402,l),
(178,252,l)
);
}
);
width = 702;
},
{
associatedMasterId = "D8D2F0D2-8948-448B-99CD-378CDFD0E0AE";
layerId = "F3DD9A56-9DCF-4FE3-A9DF-BA078B253229";
name = "14 juin 25 à 00:12";
shapes = (
{
closed = 1;
nodes = (
(629,0,o),
(634,20,o),
(620,49,cs),
(465,362,l),
(399,361,l),
(562,26,ls),
(570,9,o),
(582,0,o),
(601,0,cs)
);
},
{
closed = 1;
nodes = (
(363,325,ls),
(534,325,o),
(632,395,o),
(632,519,cs),
(632,641,o),
(537,700,o),
(363,700,cs),
(144,700,l),
(144,643,l),
(363,643,ls),
(497,643,o),
(566,608,o),
(566,518,cs),
(566,427,o),
(497,382,o),
(363,382,cs),
(144,382,l),
(144,325,l)
);
},
{
closed = 1;
nodes = (
(177,0,l),
(177,700,l),
(114,700,l),
(114,0,l)
);
}
);
width = 693;
},
{
associatedMasterId = "83B83716-1CD1-47ED-B715-8773FED73F88";
layerId = "450F48D0-A3BB-4E43-BCAA-040773A8703D";
name = "18 juin 25 à 10:53";
shapes = (
{
closed = 1;
nodes = (
(432,212,o),
(377,73,o),
(412,0,c),
(678,0,l),
(603,147,o),
(721,307,o),
(458,307,cs),
(251,307,l),
(241,212,l),
(328,212,ls)
);
},
{
closed = 1;
nodes = (
(266,0,l),
(266,700,l),
(30,700,l),
(30,0,l)
);
},
{
closed = 1;
nodes = (
(362,262,ls),
(556,262,o),
(672,304,o),
(672,462,cs),
(672,615,o),
(564,700,o),
(362,700,cs),
(178,700,l),
(178,500,l),
(335,500,ls),
(402,500,o),
(424,482,o),
(424,451,cs),
(424,419,o),
(398,402,o),
(335,402,cs),
(178,402,l),
(178,262,l)
);
}
);
width = 702;
}
);
metricLeft = "=H";
},
